<svg xmlns="http://www.w3.org/2000/svg" viewBox="0 0 310.89 150.47"><defs><style>.cls-1{fill:#3ddb85;}</style></defs><g id="Layer_2" data-name="Layer 2"><g id="Layer_3" data-name="Layer 3"><path class="cls-1" d="M227,112.41c-7.14,0-12.94-5-12.94-11.12s5.8-11.12,12.94-11.12,12.95,5,12.95,11.12-5.81,11.12-12.95,11.12m-143.09,0c-7.14,0-12.94-5-12.94-11.12s5.8-11.12,12.94-11.12,12.95,5,12.95,11.12S91,112.41,83.9,112.41m147.73-67,25.88-38.5c1.48-2.21.6-5-2-6.31a5.89,5.89,0,0,0-7.36,1.69L222,41.29a182.29,182.29,0,0,0-66.54-12.23A182.22,182.22,0,0,0,88.91,41.29l-26.2-39A5.88,5.88,0,0,0,55.36.62c-2.58,1.28-3.46,4.1-2,6.31l25.87,38.5C34.83,66.18,4.45,104.82,0,150.47H310.89c-4.45-45.65-34.83-84.29-79.26-105"/></g></g></svg>