<svg xmlns="http://www.w3.org/2000/svg" viewBox="0 0 96.12 109.85"><defs><style>.cls-1{fill:#fff;}.cls-2{fill:#2f3a3e;}.cls-3{fill:#3ab14a;}</style></defs><g id="Layer_2" data-name="Layer 2"><g id="Layer_1-2" data-name="Layer 1"><path class="cls-1" d="M89.43,22.43,54.75,1.84a13.1,13.1,0,0,0-13.38,0L6.69,22.43A13.84,13.84,0,0,0,0,34.35V75.52A13.85,13.85,0,0,0,6.69,87.43L41.37,108a13.05,13.05,0,0,0,13.38,0L89.43,87.43a13.85,13.85,0,0,0,6.69-11.92V34.35A13.82,13.82,0,0,0,89.43,22.43Z"/><path class="cls-2" d="M89.43,22.43,54.75,1.84a13.1,13.1,0,0,0-13.38,0L6.69,22.43A13.84,13.84,0,0,0,0,34.35V75.52A13.85,13.85,0,0,0,6.69,87.43L41.37,108a13.05,13.05,0,0,0,13.38,0L89.43,87.43a13.85,13.85,0,0,0,6.69-11.92V34.35A13.82,13.82,0,0,0,89.43,22.43ZM42.58,105.91,7.9,85.33a11.45,11.45,0,0,1-5.5-9.81V34.35a11.43,11.43,0,0,1,5.5-9.81L42.58,4a10.71,10.71,0,0,1,11,0L88.19,24.54a11.35,11.35,0,0,1,5.33,7.93c-1.16-2.45-3.75-3.12-6.77-1.38L54,51.39c-4.09,2.38-7.1,5.07-7.11,10v40.43c0,3,1.19,4.86,3,5.42a10.1,10.1,0,0,1-1.82.17A10.78,10.78,0,0,1,42.58,105.91Z"/><path class="cls-3" d="M80.34,79.5l-8.63,5.17a.62.62,0,0,0-.4.56V87.5c0,.28.19.39.42.26l8.77-5.34a.7.7,0,0,0,.26-.69v-2c0-.26-.21-.37-.42-.24Z"/><path class="cls-1" d="M62,60.48c.27-.14.5,0,.51.4l0,3a5.56,5.56,0,0,1,3.32-.4c.21,0,.3.34.22.69l-.66,2.65a1.05,1.05,0,0,1-.3.52.7.7,0,0,1-.17.13.39.39,0,0,1-.26,0,4.42,4.42,0,0,0-3.2.51,4,4,0,0,0-2.37,3.57c0,1.39.7,1.77,3.12,1.81,3.2.06,4.59,1.45,4.62,4.68a11.46,11.46,0,0,1-4.25,8.66l.06,3a1.11,1.11,0,0,1-.51.9l-1.75,1c-.28.14-.5,0-.51-.39V88.32a5.71,5.71,0,0,1-4,.38c-.18-.07-.27-.34-.19-.65l.63-2.68a1.16,1.16,0,0,1,.31-.55.66.66,0,0,1,.17-.12.34.34,0,0,1,.28,0,4.87,4.87,0,0,0,3.68-.46,4.82,4.82,0,0,0,2.71-4.17c0-1.5-.82-2.13-2.78-2.14-2.52,0-4.86-.49-4.9-4.17a10.75,10.75,0,0,1,4.06-8.23l-.12-3a1.09,1.09,0,0,1,.51-.92Z"/></g></g></svg>