<svg xmlns="http://www.w3.org/2000/svg" shape-rendering="geometricPrecision" text-rendering="geometricPrecision" image-rendering="optimizeQuality" fill-rule="evenodd" clip-rule="evenodd" viewBox="0 0 512 484.98"><defs><linearGradient id="prefix__a" gradientUnits="userSpaceOnUse" x1="212.44" y1="177.06" x2="515.82" y2="504.93"><stop offset="0" stop-color="#F9A03C"/><stop offset="1" stop-color="#F7974E"/></linearGradient><linearGradient id="prefix__b" gradientUnits="userSpaceOnUse" x1="-43.59" y1="299.74" x2="244.64" y2="579.45"><stop offset="0" stop-color="#F9A03C"/><stop offset="1" stop-color="#F7974E"/></linearGradient><linearGradient id="prefix__c" gradientUnits="userSpaceOnUse" x1="93.61" y1="399.53" x2="345.98" y2="696.9"><stop offset="0" stop-color="#F9A03C"/><stop offset="1" stop-color="#F7974E"/></linearGradient><linearGradient id="prefix__d" gradientUnits="userSpaceOnUse" x1="70.64" y1="29.19" x2="409.57" y2="502.06"><stop offset="0" stop-color="#F26D58"/><stop offset="1" stop-color="#F9A03C"/></linearGradient><linearGradient id="prefix__e" gradientUnits="userSpaceOnUse" x1="233.17" y1="110.17" x2="584.9" y2="322.7"><stop offset="0" stop-color="#B84E51"/><stop offset="1" stop-color="#F68E48"/></linearGradient><linearGradient id="prefix__f" gradientUnits="userSpaceOnUse" x1="172.42" y1="211.71" x2="177.19" y2="441.63"><stop offset="0" stop-color="#F9A03C"/><stop offset="1" stop-color="#F7974E"/></linearGradient></defs><g fill-rule="nonzero"><path fill="url(#prefix__a)" d="M511.21 351.35c.23-2.23.39-4.48.52-6.74.15-2.68-161.18-155.75-161.18-155.75h-3.86s163.53 172.48 164.52 162.49z"/><path fill="url(#prefix__b)" d="M167 298.25c-.22.47-.43.94-.65 1.41-.23.49-.46.98-.7 1.47-5.14 10.72 72 86.13 78.2 76.97.29-.4.57-.83.85-1.24.32-.48.63-.94.94-1.42 4.96-7.53-76.44-82.09-78.64-77.19z"/><path fill="url(#prefix__c)" d="M276 404.3c-.22.48-1.77 3.1-3.19 4.49-.24.48 75.31 75.4 75.31 75.4h6.8c.01 0-70.91-76.72-78.92-79.89z"/><path fill="url(#prefix__d)" d="M511.83 343.25c-3.53 78.32-68.32 140.94-147.48 140.94h-10.7l-79.06-77.88c6.5-9.17 12.55-18.67 17.93-28.58h71.83c22.71 0 41.2-18.48 41.2-41.2 0-22.72-18.49-41.21-41.2-41.21h-42.51c3.24-17.12 5.01-34.77 5.01-52.83 0-18.34-1.8-36.24-5.16-53.63h26.41l163.27 160.87c.19-2.15.35-4.31.46-6.48zM42.95 0H0v106.46h42.95c75.01 0 136.04 61.02 136.04 136.03 0 20.41-4.55 39.78-12.64 57.17l78.35 77.2c25.73-38.49 40.77-84.7 40.77-134.37C285.47 108.78 176.67 0 42.95 0z"/><path fill="url(#prefix__e)" d="M364.35 0H190.43c42.48 25.93 77.66 62.71 101.62 106.46h72.3c22.71 0 41.2 18.48 41.2 41.2 0 22.73-18.49 41.2-41.2 41.2H348.1l163.28 160.88c.38-4.36.62-8.75.62-13.21 0-35.89-12.88-68.82-34.26-94.44 21.38-25.61 34.26-58.54 34.26-94.43C512 66.24 445.77 0 364.35 0z"/><path fill="url(#prefix__f)" d="M353.65 484.19H191.68c32.6-20.13 60.78-46.71 82.91-77.88l79.06 77.88zM244.7 376.86l-78.34-77.2c-21.65 46.52-68.81 78.87-123.41 78.87H0v106.45h42.95c84.05 0 158.23-42.99 201.75-108.12z"/></g></svg>