<svg xmlns="http://www.w3.org/2000/svg" xmlns:xlink="http://www.w3.org/1999/xlink" viewBox="0 0 95.45 95.45"><defs><style>.cls-1{fill:url(#linear-gradient);}.cls-2{fill:#21d789;}.cls-3{fill:url(#linear-gradient-2);}.cls-4{fill:url(#linear-gradient-3);}.cls-5{fill:url(#linear-gradient-4);}.cls-6{fill:url(#linear-gradient-5);}.cls-7{fill:#fff;}</style><linearGradient id="linear-gradient" x1="425.66" y1="-1195.04" x2="319.66" y2="-1195.04" gradientTransform="matrix(0.6, 0, 0, -0.6, -183.15, -684.02)" gradientUnits="userSpaceOnUse"><stop offset="0" stop-color="#21d789"/><stop offset="0.92" stop-color="#fcf84a"/></linearGradient><linearGradient id="linear-gradient-2" x1="429.91" y1="-1192.73" x2="429.91" y2="-1325.09" gradientTransform="matrix(0.6, 0, 0, -0.6, -183.15, -684.02)" gradientUnits="userSpaceOnUse"><stop offset="0" stop-color="#21d789"/><stop offset="1" stop-color="#087cfa"/></linearGradient><linearGradient id="linear-gradient-3" x1="516.82" y1="-1314.09" x2="360.37" y2="-1186.59" gradientTransform="matrix(0.6, 0, 0, -0.6, -183.15, -684.02)" gradientUnits="userSpaceOnUse"><stop offset="0.1" stop-color="#21d789"/><stop offset="0.97" stop-color="#087cfa"/></linearGradient><linearGradient id="linear-gradient-4" x1="445.35" y1="-1134.25" x2="335.07" y2="-1259.23" gradientTransform="matrix(0.6, 0, 0, -0.6, -183.15, -684.02)" gradientUnits="userSpaceOnUse"><stop offset="0.23" stop-color="#21d789"/><stop offset="0.74" stop-color="#087cfa"/></linearGradient><linearGradient id="linear-gradient-5" x1="387" y1="-1154.1" x2="387" y2="-1241.53" gradientTransform="matrix(0.6, 0, 0, -0.6, -183.15, -684.02)" gradientUnits="userSpaceOnUse"><stop offset="0.08" stop-color="#878585"/><stop offset="0.54"/></linearGradient></defs><g id="Layer_2" data-name="Layer 2"><g id="Layer_1-2" data-name="Layer 1"><path class="cls-1" d="M61.35,0l1.89,38.78L14.91,57.87,0,19.29Z"/><path class="cls-2" d="M95.45,22.67,53.69,40.77,61.35,0Z"/><path class="cls-3" d="M51.21,31.62l44.24-8.95V64.53L65,76,52.6,64.63Z"/><path class="cls-4" d="M32.81,19.39l30.53,4.72L95.45,64.16,64.63,76.07,52.74,64.26Z"/><path class="cls-5" d="M19.69,0,63.24,24.06l-15,71.39H22.87L.89,72.78Z"/><path class="cls-6" d="M76.81,18.64H18.64V76.81H76.81Z"/><path class="cls-7" d="M46.76,66.79H25.11v3.56H46.76ZM25.36,26.1h8.5c6.9,0,11.55,4.65,11.55,10.75S40.76,47.76,33.86,47.76l-8.5.16Zm4.81,4.49v13h3.69a6.2,6.2,0,0,0,6.58-6.42,6.24,6.24,0,0,0-6.58-6.58Zm17.56,14,2.81-3.39A9.87,9.87,0,0,0,57,43.85c1.94,0,3.2-.78,3.2-2v-.09c0-1.26-.77-1.85-4.36-2.81-4.46-1.07-7.27-2.33-7.27-6.69v-.1c0-4,3.2-6.59,7.66-6.59a12.4,12.4,0,0,1,8.14,2.81l-2.52,3.59a10.22,10.22,0,0,0-5.72-2.14c-1.84,0-2.81.87-2.81,1.94v.1c0,1.45,1,1.94,4.75,2.91,4.46,1.16,7,2.71,7,6.59v.1c0,4.36-3.3,6.78-8,6.78A14.65,14.65,0,0,1,47.73,44.62Z"/></g></g></svg>