<svg xmlns="http://www.w3.org/2000/svg" xmlns:xlink="http://www.w3.org/1999/xlink" viewBox="0 0 88 81.27"><defs><style>.cls-1{fill:#fff;}.cls-2{fill:#ffd21e;}.cls-3{fill:#ff9d0b;}.cls-4{fill:#3a3b45;}.cls-5{mask:url(#mask);}.cls-6{fill:#f94040;}</style><mask id="mask" x="30.5" y="38.5" width="26" height="25" maskUnits="userSpaceOnUse"><g id="mask0"><path class="cls-1" d="M43.5,53.29c9.83,0,13-8.76,13-13.26,0-2.34-1.57-1.61-4.09-.36-2.33,1.15-5.46,2.74-8.91,2.74-7.18,0-13-6.88-13-2.38S33.67,53.29,43.5,53.29Z"/></g></mask></defs><g id="Layer_2" data-name="Layer 2"><g id="Layer_1-2" data-name="Layer 1"><path class="cls-2" d="M43.75,73.5A34.75,34.75,0,1,0,9,38.75,34.75,34.75,0,0,0,43.75,73.5Z"/><path class="cls-3" d="M78.5,38.75A34.75,34.75,0,1,0,43.75,73.5,34.75,34.75,0,0,0,78.5,38.75ZM5,38.75A38.75,38.75,0,1,1,43.75,77.5,38.75,38.75,0,0,1,5,38.75Z"/><path class="cls-4" d="M55,29.29c1.27.45,1.78,3.07,3.07,2.39a5,5,0,1,0-6.76-2.07C52,30.76,53.9,28.89,55,29.29Z"/><path class="cls-4" d="M31.48,29.29c-1.27.45-1.78,3.07-3.07,2.39a5,5,0,1,1,6.77-2.07C34.56,30.76,32.62,28.89,31.48,29.29Z"/><path class="cls-4" d="M43.5,53.29c9.83,0,13-8.76,13-13.26,0-2.34-1.57-1.61-4.09-.36-2.33,1.15-5.46,2.74-8.91,2.74-7.18,0-13-6.88-13-2.38S33.67,53.29,43.5,53.29Z"/><g class="cls-5"><path class="cls-6" d="M43.75,63.5a8.68,8.68,0,0,0,3-16.81l-.37-.13c-.83-.26-1.72,2.6-2.64,2.6s-1.69-2.88-2.48-2.65a8.68,8.68,0,0,0,2.48,17Z"/></g><path class="cls-3" d="M67.25,34A3.25,3.25,0,1,0,64,30.75,3.26,3.26,0,0,0,67.25,34Z"/><path class="cls-3" d="M20.75,34a3.25,3.25,0,1,0-3.25-3.25A3.26,3.26,0,0,0,20.75,34Z"/><path class="cls-3" d="M14.06,45A5.22,5.22,0,0,0,10,46.87a5.92,5.92,0,0,0-1.33,3.75,7.28,7.28,0,0,0-1.94-.3A5.3,5.3,0,0,0,2.78,52a5.81,5.81,0,0,0-1.6,4.79A5.75,5.75,0,0,0,2,59,5.3,5.3,0,0,0,.19,61.81,5.88,5.88,0,0,0,1,66.55c-.08.12-.15.26-.23.39a5.23,5.23,0,0,0-.13,4.63c1,2.32,3.57,4.14,8.51,6.11,3.08,1.21,5.9,2,5.92,2A44.12,44.12,0,0,0,26,81.27c5.86,0,10.05-1.79,12.46-5.33C42.32,70.25,41.77,65,36.74,60a27.42,27.42,0,0,1-5-7.77c-.78-2.66-2.83-5.62-6.24-5.62h0a4.91,4.91,0,0,0-.86.07,5.7,5.7,0,0,0-3.74,2.38A12.79,12.79,0,0,0,18,46.28,7.35,7.35,0,0,0,14.06,45Zm0,4a3.63,3.63,0,0,1,1.82.65C18,51,22.13,58.08,23.64,60.83a2.43,2.43,0,0,0,2.14,1.31c1.54,0,2.75-1.53.14-3.48-3.91-2.93-2.54-7.72-.67-8a1,1,0,0,1,.24,0c1.7,0,2.45,2.93,2.45,2.93a31.55,31.55,0,0,0,6,9.29c3.77,3.77,4,6.8,1.21,10.84-1.87,2.75-5.47,3.58-9.15,3.58a41.61,41.61,0,0,1-9.93-1.46c-.1,0-13.45-3.8-11.76-7a1.41,1.41,0,0,1,1.34-.76c2.38,0,6.71,3.54,8.57,3.54A.76.76,0,0,0,15,71c.8-2.84-12-4-11-8.16a1.31,1.31,0,0,1,1.44-1c3.14,0,10.2,5.53,11.68,5.53a.25.25,0,0,0,.23-.11c.75-1.19.34-2-4.88-5.19S3.64,57,5.72,54.7a1.3,1.3,0,0,1,1-.38c3.17,0,10.66,6.82,10.66,6.82s2,2.1,3.24,2.1a.77.77,0,0,0,.69-.38c.86-1.46-8.06-8.22-8.56-11C12.41,50,13,49,14.06,49Z"/><path class="cls-2" d="M35.13,73.69c2.76-4,2.56-7.07-1.21-10.84a31.55,31.55,0,0,1-6-9.29s-.82-3.21-2.69-2.91-3.24,5.08.67,8-.78,4.92-2.28,2.17S18,51,15.88,49.65s-3.63-.59-3.13,2.2,9.42,9.55,8.56,11-3.93-1.72-3.93-1.72S7.81,52.43,5.72,54.7,7.3,58.87,12.53,62s5.63,4,4.88,5.19S5.14,58.7,4.06,62.82,15.83,68.14,15,71,6,65.6,4.29,68.8s11.66,7,11.76,7C20.36,76.93,31.31,79.3,35.13,73.69Z"/><path class="cls-3" d="M73.94,45A5.22,5.22,0,0,1,78,46.87a5.92,5.92,0,0,1,1.33,3.75,7.28,7.28,0,0,1,1.94-.3A5.3,5.3,0,0,1,85.22,52a5.81,5.81,0,0,1,1.6,4.79A5.75,5.75,0,0,1,86,59a5.3,5.3,0,0,1,1.79,2.82A5.88,5.88,0,0,1,87,66.55c.08.12.15.26.23.39a5.23,5.23,0,0,1,.13,4.63c-1,2.32-3.57,4.14-8.51,6.11-3.08,1.21-5.9,2-5.92,2A44.12,44.12,0,0,1,62,81.27c-5.86,0-10.05-1.79-12.46-5.33C45.68,70.25,46.23,65,51.26,60a27.42,27.42,0,0,0,5-7.77c.78-2.66,2.83-5.62,6.24-5.62h0a4.91,4.91,0,0,1,.86.07,5.7,5.7,0,0,1,3.74,2.38A12.79,12.79,0,0,1,70,46.28,7.35,7.35,0,0,1,73.94,45Zm0,4a3.63,3.63,0,0,0-1.82.65C70,51,65.87,58.08,64.36,60.83a2.43,2.43,0,0,1-2.14,1.31c-1.54,0-2.75-1.53-.14-3.48,3.91-2.93,2.54-7.72.67-8a1,1,0,0,0-.24,0c-1.7,0-2.45,2.93-2.45,2.93a31.55,31.55,0,0,1-6,9.29c-3.77,3.77-4,6.8-1.21,10.84,1.87,2.75,5.47,3.58,9.15,3.58A41.61,41.61,0,0,0,72,75.81c.1,0,13.45-3.8,11.76-7a1.41,1.41,0,0,0-1.34-.76c-2.38,0-6.71,3.54-8.57,3.54A.76.76,0,0,1,73,71c-.8-2.84,12-4,11-8.16a1.31,1.31,0,0,0-1.44-1c-3.14,0-10.2,5.53-11.68,5.53a.25.25,0,0,1-.23-.11c-.75-1.19-.34-2,4.88-5.19S84.36,57,82.28,54.7a1.3,1.3,0,0,0-1-.38c-3.17,0-10.66,6.82-10.66,6.82s-2,2.1-3.24,2.1a.77.77,0,0,1-.69-.38c-.86-1.46,8.06-8.22,8.56-11C75.59,50,75,49,73.94,49Z"/><path class="cls-2" d="M52.87,73.69c-2.76-4-2.56-7.07,1.21-10.84a31.55,31.55,0,0,0,6-9.29s.82-3.21,2.69-2.91,3.24,5.08-.67,8,.78,4.92,2.28,2.17S70,51,72.12,49.65s3.63-.59,3.13,2.2-9.42,9.55-8.56,11,3.93-1.72,3.93-1.72,9.57-8.71,11.66-6.44S80.7,58.87,75.47,62s-5.63,4-4.88,5.19,12.27-8.52,13.35-4.4S72.17,68.14,73,71s9-5.38,10.74-2.18-11.66,7-11.76,7C67.64,76.93,56.69,79.3,52.87,73.69Z"/></g></g></svg>