<svg xmlns="http://www.w3.org/2000/svg" viewBox="0 0 42.68 50"><defs><style>.cls-1{fill:#4e4e4e;}.cls-2{fill:#767677;}.cls-3{fill:#f37726;}.cls-4{fill:#9e9e9e;}.cls-5{fill:#616262;}</style></defs><g id="Layer_2" data-name="Layer 2"><g id="Layer_1-2" data-name="Layer 1"><g id="Layer_4" data-name="Layer 4"><g id="Canvas"><g id="Group"><g id="Group-2" data-name="Group"><g id="Group-3" data-name="Group"><g id="g"><g id="path"><g id="path9_fill" data-name="path9 fill"><path id="path0_fill" data-name="path0 fill" class="cls-1" d="M1.74,26.15c0,1.55-.12,2.06-.44,2.43a1.91,1.91,0,0,1-1.3.5L.12,30a3,3,0,0,0,2-.74A3.44,3.44,0,0,0,2.82,28a3.77,3.77,0,0,0,.12-1.42V20.67H1.74v5.48Z"/></g></g><g id="path-2" data-name="path"><g id="path10_fill" data-name="path10 fill"><path id="path1_fill" data-name="path1 fill" class="cls-1" d="M10.64,25.44a16.12,16.12,0,0,0,.06,1.78H9.64l-.08-1.06a2.38,2.38,0,0,1-.91.9,2.58,2.58,0,0,1-1.25.32c-1,0-2.26-.57-2.26-2.85V20.72H6.33v3.57c0,1.23.39,2.06,1.46,2.06a1.82,1.82,0,0,0,.65-.12A1.72,1.72,0,0,0,9,25.86a1.69,1.69,0,0,0,.49-1.19v-4h1.19v4.73Z"/></g></g><g id="path-3" data-name="path"><g id="path11_fill" data-name="path11 fill"><path id="path2_fill" data-name="path2 fill" class="cls-1" d="M12.9,22.84c0-.83,0-1.5-.05-2.12h1.07L14,21.84a2.54,2.54,0,0,1,1-1,2.62,2.62,0,0,1,1.34-.31c1.59,0,2.78,1.33,2.78,3.31,0,2.33-1.43,3.49-3,3.49A2.41,2.41,0,0,1,15,27.12a2.33,2.33,0,0,1-.87-.78h0V29.9H12.9V22.84Zm1.18,1.74a2.61,2.61,0,0,0,.05.48,1.83,1.83,0,0,0,.66,1,1.8,1.8,0,0,0,1.12.38c1.26,0,2-1,2-2.51,0-1.3-.7-2.41-1.95-2.41a2,2,0,0,0-1.31.62,2,2,0,0,0-.57,1.33Z"/></g></g><g id="path-4" data-name="path"><g id="path12_fill" data-name="path12 fill"><path id="path3_fill" data-name="path3 fill" class="cls-1" d="M21.21,20.72l1.43,3.83c.15.43.31.95.42,1.33.12-.39.26-.89.42-1.35l1.3-3.81H26l-1.78,4.63c-.89,2.22-1.43,3.37-2.25,4.07a3.26,3.26,0,0,1-1.46.76l-.29-1a3.2,3.2,0,0,0,1-.57,3.59,3.59,0,0,0,1-1.32.77.77,0,0,0,.1-.29,1.18,1.18,0,0,0-.08-.31l-2.42-6h1.3Z"/></g></g><g id="path-5" data-name="path"><g id="path13_fill" data-name="path13 fill"><path id="path4_fill" data-name="path4 fill" class="cls-1" d="M29.2,18.85v1.87h1.71v.89H29.2v3.51c0,.8.23,1.26.89,1.26a2.29,2.29,0,0,0,.69-.08l.06.89a2.94,2.94,0,0,1-1.06.16,1.52,1.52,0,0,1-.7-.11,1.45,1.45,0,0,1-.59-.39A2.43,2.43,0,0,1,28,25.16V21.6H27v-.89h1V19.13Z"/></g></g><g id="path-6" data-name="path"><g id="path14_fill" data-name="path14 fill"><path id="path5_fill" data-name="path5 fill" class="cls-1" d="M33.11,24.18a2,2,0,0,0,.12.89,2.18,2.18,0,0,0,.48.76,2.33,2.33,0,0,0,.76.48,2.07,2.07,0,0,0,.89.12,4.18,4.18,0,0,0,1.78-.34l.2.89a5.25,5.25,0,0,1-2.18.4,3,3,0,0,1-2.36-.89,3,3,0,0,1-.69-1.1,3,3,0,0,1-.17-1.28c0-2,1.17-3.51,3.07-3.51,2.14,0,2.67,1.87,2.67,3.06a5,5,0,0,1,0,.55h-4.6Zm3.49-.89a1.88,1.88,0,0,0-.05-.71,1.83,1.83,0,0,0-.34-.63,1.72,1.72,0,0,0-.57-.43,1.69,1.69,0,0,0-.7-.15,1.93,1.93,0,0,0-1.28.6,2,2,0,0,0-.54,1.32Z"/></g></g><g id="path-7" data-name="path"><g id="path15_fill" data-name="path15 fill"><path id="path6_fill" data-name="path6 fill" class="cls-1" d="M39.49,22.74c0-.76,0-1.42-.05-2h1.07V22h.05a2,2,0,0,1,.66-1,1.92,1.92,0,0,1,1.12-.43h.34v1.11a2.81,2.81,0,0,0-.41,0,1.68,1.68,0,0,0-1.08.46,1.64,1.64,0,0,0-.51,1.06,3.31,3.31,0,0,0-.06.55V27.2H39.45V22.75Z"/></g></g></g></g><g id="g-2" data-name="g"><g id="path-8" data-name="path"><g id="path16_fill" data-name="path16 fill"><path id="path7_fill" data-name="path7 fill" class="cls-2" d="M39,2.84a3,3,0,0,1-1.7,2.9,3,3,0,0,1-3.33-.48A3,3,0,0,1,37,.17a2.88,2.88,0,0,1,1,.6,3,3,0,0,1,.7.93A3.18,3.18,0,0,1,39,2.84Z"/></g></g><g id="path-9" data-name="path"><g id="path17_fill" data-name="path17 fill"><path id="path8_fill" data-name="path8 fill" class="cls-3" d="M21.37,37.7c-8,0-15.06-2.87-18.7-7.12a19.93,19.93,0,0,0,37.39,0C36.43,34.83,29.41,37.7,21.37,37.7Z"/></g></g><g id="path-10" data-name="path"><g id="path18_fill" data-name="path18 fill"><path id="path9_fill-2" data-name="path9 fill" class="cls-3" d="M21.37,10.09c8,0,15.05,2.87,18.69,7.12a19.93,19.93,0,0,0-37.39,0C6.31,13,13.32,10.09,21.37,10.09Z"/></g></g><g id="path-11" data-name="path"><g id="path19_fill" data-name="path19 fill"><path id="path10_fill-2" data-name="path10 fill" class="cls-4" d="M10.34,46a3.86,3.86,0,0,1-.52,2.15A3.81,3.81,0,0,1,8.2,49.63,3.93,3.93,0,0,1,6,50,3.79,3.79,0,0,1,4,49a3.73,3.73,0,0,1-1.14-1.9A3.79,3.79,0,0,1,3,44.92a3.86,3.86,0,0,1,1.33-1.78,3.92,3.92,0,0,1,3.54-.53A3.85,3.85,0,0,1,10,44.54,3.74,3.74,0,0,1,10.34,46Z"/></g></g><g id="path-12" data-name="path"><g id="path20_fill" data-name="path20 fill"><path id="path11_fill-2" data-name="path11 fill" class="cls-5" d="M3.58,9.12a2.18,2.18,0,0,1-1.22-.33,2.23,2.23,0,0,1-.84-1,2.26,2.26,0,0,1-.16-1.26,2.13,2.13,0,0,1,.56-1.13,2.18,2.18,0,0,1,2.36-.56,2.13,2.13,0,0,1,1,.76,2.18,2.18,0,0,1,.42,1.2A2.22,2.22,0,0,1,3.58,9.12Z"/></g></g></g></g></g></g></g></g></g></svg>