<svg xmlns="http://www.w3.org/2000/svg" viewBox="0 0 383.58 136.93"><defs><style>.cls-1{fill-rule:evenodd;}</style></defs><g id="Layer_2" data-name="Layer 2"><g id="Layer_3" data-name="Layer 3"><path class="cls-1" d="M91.92,80.32l2.68.59-9.41,29.85H0v-3H4.15q7,0,10-4.54c1.14-1.74,1.69-5.76,1.69-12v-71q0-10.3-2.27-12.88Q10.39,3.75,4.15,3.75H0v-3H49.82v3c-5.84,0-9.94.47-12.3,1.61a9.78,9.78,0,0,0-4.81,4.32c-.86,1.71-1.31,5.86-1.31,12.4V91.2c0,4.49.45,7.57,1.31,9.25a5.7,5.7,0,0,0,3,2.52c1.35.53,5.56.81,12.65.81h8q12.67,0,17.78-1.86A23.39,23.39,0,0,0,83.5,95.3C86.29,92.15,89.12,87.14,91.92,80.32Z"/><path class="cls-1" d="M105,59.67H71.88l-5.8,13.51c-1.44,3.32-2.15,5.8-2.15,7.46a4.33,4.33,0,0,0,1.85,3.43c1.25,1,3.92,1.64,8.06,1.94v2.33h-27V86c3.58-.64,5.89-1.46,6.94-2.48q3.24-3,7.14-12.31L91.09.74h2.2L123.11,72q3.58,8.59,6.53,11.14A13.41,13.41,0,0,0,137.83,86v2.33H104V86c3.4-.17,5.71-.76,6.92-1.72a4.39,4.39,0,0,0,1.81-3.54c0-1.85-.87-4.76-2.55-8.78L105,59.67ZM103.27,55,88.74,20.38,73.84,55Z"/><path class="cls-1" d="M209.47,0l1.23,26h-3.13c-.59-4.58-1.4-7.85-2.46-9.83a16.47,16.47,0,0,0-6.73-7Q194.17,7,187.3,7H171.67V91.71c0,6.81.75,11.05,2.21,12.76,2.06,2.28,5.27,3.43,9.57,3.43h3.86v3h-47v-3h3.93q7,0,10-4.28c1.2-1.73,1.81-5.72,1.81-11.91V7H142.64c-5.16,0-8.85.39-11,1.15a15.15,15.15,0,0,0-7.28,6c-2,3-3.21,6.92-3.6,12h-3.1l1.31-26Z"/><path class="cls-1" d="M222.93,36.38v42H246.3c6.08,0,10.12-.91,12.15-2.73C261.19,73.27,262.69,69,263,63h2.89v37H263q-1.1-7.76-2.2-10a9.92,9.92,0,0,0-4.63-4.32c-2.14-1-5.43-1.57-9.88-1.57H222.93v35.07c0,4.71.22,7.58.62,8.59a5.05,5.05,0,0,0,2.19,2.44c1,.59,3,.88,6,.88h18c6,0,10.39-.4,13.1-1.26a19.36,19.36,0,0,0,7.84-4.92q4.86-4.86,10-14.68h3.13l-9.15,26.67h-82V134h3.78a14.9,14.9,0,0,0,7.12-1.82,6.58,6.58,0,0,0,3.42-3.75q.89-2.52.89-10.28V49.09c0-6.74-.67-10.89-2-12.47q-2.81-3.13-9.39-3.14h-3.78V30.56h82l1.17,23.3h-3.07q-1.65-8.4-3.64-11.51a12.57,12.57,0,0,0-5.92-4.8c-2.09-.77-5.79-1.17-11.06-1.17Z"/><path class="cls-1" d="M333.3,49.55l23.64,35.22q9.81,14.64,14.58,18.49a20.36,20.36,0,0,0,12.06,4.27v3H336.32v-3a21.11,21.11,0,0,0,7-1,6.75,6.75,0,0,0,2.8-2.22,5.18,5.18,0,0,0,1.08-3,10.41,10.41,0,0,0-.73-3.74A69.19,69.19,0,0,0,342,90.37L323.32,62.13,300.26,91.68A43.35,43.35,0,0,0,295.89,98a7.61,7.61,0,0,0-.75,3.29,5.25,5.25,0,0,0,2.19,4.3c1.46,1.14,4.26,1.8,8.37,2v3H266.64v-3a24.5,24.5,0,0,0,7.16-1.72,41.27,41.27,0,0,0,9.56-5.68,65.92,65.92,0,0,0,10.39-11l26-32.78L298.07,24.6q-8.85-12.88-15-16.9a27.09,27.09,0,0,0-14.22-4.27v-3h50.92v3c-4.33.17-7.29.86-8.9,2.1a5.33,5.33,0,0,0-2.38,4.13c0,2,1.3,4.94,3.88,8.79l16.9,25.25,19.57-24.78a42.91,42.91,0,0,0,4.18-6,8.08,8.08,0,0,0,.78-3.35,4.74,4.74,0,0,0-1-3A6.37,6.37,0,0,0,349.7,4.2c-1.24-.47-3.82-.72-7.7-.78V.4h39.05v3a23.53,23.53,0,0,0-7.56,1.45,30.6,30.6,0,0,0-8,5q-3.66,3.16-10.32,11.7L333.3,49.55Z"/></g></g></svg>