<svg xmlns="http://www.w3.org/2000/svg" xmlns:xlink="http://www.w3.org/1999/xlink" viewBox="0 0 417.65 178.65"><defs><style>.cls-1{fill:#fff;}.cls-1,.cls-2,.cls-5{fill-rule:evenodd;}.cls-2{fill:url(#linear-gradient);}.cls-3{fill:none;}.cls-4{mask:url(#mask);}.cls-5{fill:#faf9f8;}.cls-6{mask:url(#mask-2);}</style><linearGradient id="linear-gradient" x1="-970.15" y1="884.82" x2="-970.15" y2="884.66" gradientTransform="matrix(2187.2, 0, 0, -1064.3, 2122119.36, 941722.1)" gradientUnits="userSpaceOnUse"><stop offset="0" stop-color="#2e4f82"/><stop offset="1" stop-color="#182e4d"/></linearGradient><mask id="mask" x="0.1" y="0" width="417.55" height="178.65" maskUnits="userSpaceOnUse"><g id="d"><path id="c" class="cls-1" d="M.1,0H417.65V178.65H.1"/></g></mask><mask id="mask-2" x="0" y="0" width="417.65" height="178.65" maskUnits="userSpaceOnUse"><g id="d-2" data-name="d"><path id="c-2" data-name="c" class="cls-1" d="M.1,0H417.65V178.65H.1"/></g></mask></defs><g id="Layer_2" data-name="Layer 2"><g id="Layer_3" data-name="Layer 3"><path id="a" class="cls-2" d="M391.93,144c0,18.87-15.8,34.3-35.12,34.3H61.59c-19.32,0-35.13-15.43-35.13-34.3V34.73C26.46,15.86,42.27.42,61.59.42H356.81c19.32,0,35.12,15.44,35.12,34.31V144"/><path id="c-3" data-name="c" class="cls-3" d="M.1,0H417.65V178.65H.1"/><g class="cls-4"><path class="cls-5" d="M399.82,65.15c0-13.37,2.06-21.26,2.06-35.66C401.88,7.2,393.65,0,375.48,0H362.1V15.77h4.12c9.26,0,11.31,3.09,11.31,14.41,0,10.62-1,21.25-1,33.6,0,15.77,5.15,21.94,15.43,24.34v1c-10.28,2.4-15.43,8.58-15.43,24.35,0,12.34,1,22.29,1,33.6,0,11.66-2.4,14.75-11.31,14.75v.34H362.1v16.46h13.38c18.17,0,26.4-7.2,26.4-29.49,0-14.74-2.06-22.29-2.06-35.66,0-7.2,4.46-14.74,17.83-15.43V80.24c-13.37-.34-17.83-7.89-17.83-15.09M247.92,86.07c-10.63-4.12-20.23-6.52-20.23-13.38,0-5.14,4.11-8.22,11.65-8.22s14.41,3.08,22,8.57L275,54.86c-8.58-6.51-20.24-13.37-36-13.37-23.32,0-39.09,13.37-39.09,32.23,0,16.81,14.74,25.38,27.09,30.18,10.63,4.11,20.92,7.54,20.92,14.4,0,5.14-4.12,8.57-13.38,8.57-8.57,0-17.14-3.43-26.4-10.63l-13.37,19.89c10.28,8.57,26.06,14.4,39.09,14.4,27.43,0,42.17-14.4,42.17-33.26s-14.74-26.74-28.11-31.2m83,0C320.61,82,311,79.55,311,72.69c0-5.14,4.11-8.22,11.66-8.22s14.4,3.08,21.94,8.57l13.72-18.18c-8.57-6.51-20.23-13.37-36-13.37-23.32,0-39.1,13.37-39.1,32.23,0,16.81,14.75,25.38,27.09,30.18,10.63,4.11,20.92,7.54,20.92,14.4,0,5.14-4.11,8.57-13.37,8.57-8.57,0-17.15-3.43-26.4-10.63l-13.72,19.89c10.29,8.57,26.06,14.4,39.09,14.4,27.43,0,42.18-14.4,42.18-33.26s-14.75-26.74-28.12-31.2M127.22,84.35c2.05-13.71,10.28-20.23,19.88-20.23,12.35,0,17.15,8.57,17.15,20.23Zm63.09,6.18c.34-27.78-14.75-49.38-43.55-49.38-25,0-49,20.92-48.35,53.83,0,34,22.29,53.84,51.78,53.84,12.34,0,26.06-4.46,36.69-11.66L176.59,119c-7.54,4.45-14.74,6.51-22.29,6.51-13.71,0-24.34-6.51-27.08-22.29h62.06a88.88,88.88,0,0,0,1-12.68Z"/></g><g class="cls-6"><path class="cls-5" d="M96.7,124.82c-2.4,0-5.49-2.06-5.49-8.58V0H42.52C24,0,15.77,7.2,15.77,29.49c0,14.74,2.06,23,2.06,35.66,0,7.2-4.46,14.75-17.83,15.43V98.41c13.37.35,17.83,7.89,17.83,15.09,0,12.69-2.06,20.23-2.06,35C15.77,170.76,24,178,42.18,178H55.55V162.19H51.43c-8.57,0-11.31-3.43-11.31-14.74s1-20.92,1-33.61C41.15,98.07,36,91.9,25.72,89.5v-1C36,86.07,41.15,79.9,41.15,64.12c0-12.34-1-22.29-1-33.6s2.4-14.4,11.31-14.4h9.26v98.41c0,20.91,7.2,34.63,28.12,34.63a45.44,45.44,0,0,0,15.43-2.4l-3.43-22.29a20.9,20.9,0,0,1-4.11.35"/></g></g></g></svg>