<svg xmlns="http://www.w3.org/2000/svg" viewBox="0 0 164.17 192.42"><defs><style>.cls-1{fill:#fff;}.cls-1,.cls-2,.cls-3{fill-rule:evenodd;}.cls-2{fill:#f6d330;}</style></defs><g id="Layer_2" data-name="Layer 2"><g id="Layer_1-2" data-name="Layer 1"><path class="cls-1" d="M56.45,48.45l-.32-21.56L69,19.37,88,6.55l7.83-.32L104,15l4.39,29.09-5.95,10.64-24.71-.64L56.45,48.45Z"/><path class="cls-1" d="M31.11,110.09l6.56-18.47L50.5,76.31l6.56-13.15,2.83-4.37,46.9-7.19,9.39,14.7,26.27,62.86-9.07,11.25L109.6,180.16,104,181.41,60.5,182.65,30.16,148.87l-5-28.15,6-10.63Z"/><path class="cls-2" d="M91.16,62.23S89.6,61.91,94,61s4.42-1.85,5.64-3.12,1.88-4.07,1.88-7.2S103,38.45,102.72,36s-5.64-11.88-7.81-13.15-26.58-3.44-26.58-3.44l-7.52,6-5.63,5.29,1.27,16.9S54.86,52.84,55.18,55s3.46,4.71,4.71,6,5.92,6.3,7.49,7.83,1.9,3.12,5.63,1.88,5.95-1.24,8.78-3.44S91.16,62.23,91.16,62.23Z"/><path class="cls-1" d="M76.77,35.65c1-2.52,2.19-7.2,4.36-8.76a17.22,17.22,0,0,1,9.71-2.51c2.83.31,8.12,3.12,9.39,5.31s1.25,11,1.25,11l-.64,7.2-4.36-.32-9.39-3.75H85.52s-1.56.61-6.26-1.88-3.44-3.73-2.49-6.24Zm-10,6.87A4.4,4.4,0,0,1,67.6,42a61.64,61.64,0,0,1,6-2.58s4-10.3.61-14.37-10.92-3.44-10.92-3.44-8.12,4.68-7.83,6.56.63,8.44,1,9.37,1.56,11,1.56,11l2.81-1.24,4.07-3.13a12.14,12.14,0,0,0,1.88-1.56Z"/><path class="cls-2" d="M126.5,137l4.54.34c.66,0,1.31.07,2,.1,3.37.12,6.32.63,9.47,1,2.07.25,5.51,1.57,5.76,4.18.34,3.85-.79,8.09,2.48,9.68,3.34,2.27,10.81,7.51,10.81,7.51l2.19,4.05-6.56,5.95-32.22,19.39-14.68-5V172.33l.61-16L109.31,142l2.48-5.63,6.27-1.88L126.5,137Zm-93.17-7c-.32-.3-6,1.39-6.39,1.46-2.66.39-6,2.22-6,5.12a9.58,9.58,0,0,1-.8,4.37,30.59,30.59,0,0,0-1.74,3,7.25,7.25,0,0,1-2.21,3.44c-1.22.13-6.64.61-6.64.61H4.81L2,151.36l2.19,9.1-.63,7.17L1.4,175.77l5.29,2.81,40.05,10.63,9.07-2.8,4.69-11.59-1-4.36-4.37-8.76s-19-27.64-21.85-31.73Z"/><path class="cls-3" d="M53.72,31.79C53.06,10,61.57.33,79.25,0s28.74,9,31,21.2.95,28.26,5.46,36.61,7.37,14.78,15.1,24.41,12.51,19.44,14.76,31.34,3.53,17.49-2.25,23.62-16.05,16-23.76,4.8c-3.87-5.63-4.29-12.63,2.25-14.12,4.17-1,7.17-.66,10.27.95s3.85.85.12-1.93-4.51-.22-3.22-4.71,3-12.56-.54-21.44c-1.63-4.09-7.17-15.31-12.36-18.07-.47-.27-1.83-.83-.91.32,1.39,1.73,8.88,12.75,11,19.32,2.27,7,2.59,13.78,1.42,18s-3.22,6-5.68,6-4.71,1.17-4.71-4.49.59-14.25-2.46-21.49-6.76-12.2-7.57-15.25-2.56-11.24-6.24-15.9-5.32-7.71-3.39-13,.49-6.74-3.37-7.86-9-2.73-10.27-5.32-.48-7.7,2.4-9,7.7.46,7.87,4.17-1.61,5.61-1.12,6.42,3,2.09,4.34.65,1.62-5.95.32-10.12-1.93-7.07-6.59-8-6.75-.66-9,2.24a14.88,14.88,0,0,0-2.56,10.93c.64,3.36-.66,1.44-2.9,1.26a16,16,0,0,0-3.85-.14c-2.25.14-1.44-1.29-1.61-3.71s-.47-7.39-3.86-9.32-9.14.32-9,8.37,2.9,11.88,4.52,9,.8-1.44-.81-2.74-2.73-6.58-1-8.17,3.85-1.61,5-.65S69,38.4,68.65,40.47s-.49,2.25-2.56,3.71-2.91,2.73-5.32,4.32-3.37,5.32-1.44,6.27,2.1.8,3.68,3.22,4.34,3.53,11.1,2.41,9.51-2.73,14.61-4.51c3.71-1.27,2.42-1.12,3.71-2.56s3.37.63,1.44,1.93-6.27,2.56-9.49,3.68-6.9,4.34-13.63,4-2.1-.17-4.2-.31-3,.14-.81,1.75,2.1,2.1,4,2.73a11.36,11.36,0,0,0,7.56-.46c3-1.15,10.76-4.51,13.17-6.12s4.32.49,1.93,2.1-3.07,1.12-5.32,2.56S80.7,69.06,78,71.65s-3.37,2.73-6.76,2.87-5.46-3.36-6.9-5S63,67,61.26,65.06s-1.93-1.46-2.25.63-2.73,7.39-4.83,10.93-2.24,7.88-1.92,10.93-.49,3.36-2.88,6.9-6.44,14-7.07,17.34a69,69,0,0,0-1.13,14.3c.32,4-.8,4.83-3.7,2.09s-3.86-5.78-3.69-9.8a27.28,27.28,0,0,1,1.05-7.12c.44-1.27,0-2.15-.9-.59-2,3.42-2.07,9.32-1.59,11.42s.64,5.78,5.93,10.75a228.68,228.68,0,0,0,19.44,16.54c6.44,4.66,8.69,10.44-.8,14.61,5.95,8,9.17,12.22,6.58,17.51,5.32-3.05,3.27-10.24.71-12.17s-1-3.41,1.22-2,3,4.32,11.9,4.17,18.34-1.05,23.66-8.78,6.32-1.22,5,3.3-4.44,14.63.53,13.68c.64-5.95,2.1-11.1,2.1-17.51s.64-9.54.15-18.86c-.49-9,3.39-9.59,7.39-9.59s2.73,2.59.17,2.42-5.29.8-5.46,7.39,0,6,1.12,11.88,1.29,7.71.32,14.29-1.76,10.12,2.58,14.15,10.9,2.88,14.29.32,9.78-8.51,15.56-10.44,11.91-3.37,15.13-6.59,2.39-5.46-1-7.22-6.59-1-9.15-3.85-3.85-9.32-2.9-12.71,2.1-1.93,2.1.49a10.75,10.75,0,0,0,2.56,7.7c2.42,3,4.66,4.52,8.51,6.91s6.27,6.27,1.44,9.66-7.54,5.29-11.56,6.9a50.82,50.82,0,0,0-14.61,9.46c-4,4-6.27,7.57-14.15,7.57s-11.46-1.91-13.8-6.59c-1.61-3.22-2.42-2.73-6.1-2.9s-16.08-.32-25.71-.15-12.85,1.76-17.2,5.29-5.92,6.27-14.12,3.54-12.54-5.78-24.73-8.2-5.63-1.29-13-2.9-6.9-5.12-5.92-8,3.36-7.39,1.27-13.32S.55,146.82,6.16,146.82s10.92,1.12,13.17-6.27,2.9-1.61,2.24.32-.95,7.22-5.93,8-6.09-.31-9.17-.31-4.31,2.09-2.73,5.63,3.39,7.22,3.07,10.27-.65,4.17-2.9,7.07S2,175.89,6,176.85s11.24,2.9,18,4.51,7.24,1.58,19,4.66,15-2.42,15.9-9-3.53-12.86-7.71-19.13S42.47,144.41,37,137.82s-8.69-7.07-11.42-5.63-3.22,1.14-3.36-2.56-.49-6.1,2.56-11.57a125.39,125.39,0,0,0,9-20.56c3.22-9.15,6.1-10.93,11.56-18.8s3-4.81,6.9-10.1S55,64.26,54.67,55.89s-.64-13.17-1-24.1ZM38.37,97.11c.83,1,2-1.36,3.22-2.27A4.18,4.18,0,0,0,42.91,91c-.12-.75-1.34-.51-1.58-.24-.76.75-.59,2-1.13,3-.61,1.27-2.65,2.3-1.83,3.32Zm69.06-33.56c1.73,1.46,2.8,2.73,3.75.56s1-3-1.36-3.93a10,10,0,0,1-4.42-3c-1.05-1.22-1.41.86-.56,2.88a6.7,6.7,0,0,0,2.59,3.54ZM71.23,43.62a3.55,3.55,0,0,0-3.44.81,1,1,0,0,0,.39,1.46c.73.32,1.22-.41,1.37-1,.07-.24.17-.56.41-.63s.78,0,1.12-.17.25-.49.15-.49Zm5.68.22c.49.73,1.37.73,2.1,1,.39.17,1.2.41,1.44-.15.56-1.78-1.85-1.22-3-1.22-.24,0-.8-.07-.56.32Zm11.71-7.78c1.1,0,2.59,2,2.73,4.27,0,.34,1,.31,1.15,0,.51-.9.15-1.9-.1-3a3.82,3.82,0,0,0-2.12-2.17,3.3,3.3,0,0,0-2-.3c-.19.1-.87,1.13.32,1.2ZM64.69,35.5c-1,.07-.63.85-.58,1.49,1.39.78,1.51,2.53,1.8,3.92,0,.54.83.3.9.13.61-1.13-.14-2.39-.41-3.71a4.21,4.21,0,0,0-1.34-1.93c-.1-.1-.27.1-.37.1ZM95.38,10.89c-1-.81-2.56-1.12-3,.19-.48,1.12-.29,2.27-.56,3.49,0,.39-.49.49-.75.85a1,1,0,0,0-.1,1.22c.93.95,2.63-.92,3.88-1.58.92-.59,2.26.17,3.29-.49a.7.7,0,0,0,.1-1A10.9,10.9,0,0,0,95.38,10.89Z"/><path class="cls-3" d="M124.31,138.6c.14-.66.48-1.95,1.12-2.14a.35.35,0,0,1,.48.24c.15.41-.29,2.78-.12,3.32s.86.48,1.32.34a2.89,2.89,0,0,0,1.68-1.78c0-.05,0-.05-.07-.05s-.32.66-.81.8c-.31.1-.56,0-.65-.26s.31-2.79.12-3.35a.93.93,0,0,0-1.27-.53c-1.2.39-1.71,2.22-2,3.29h0l.17-2.51-1.49.49-.07,5.19,1.39-.46a13,13,0,0,1,.25-2.59Zm6.44.56a2.74,2.74,0,0,0,1.68-2c0-.05-.05-.08-.1-.08s-.32.86-1,1.07c-.29.1-.56,0-.63-.16a5,5,0,0,1,0-1.25l.05-2.34,1.63-.54,0-.56-1.63.54.07-2.22-1.46.83-.08,5a4.92,4.92,0,0,0,.05,1.24c.2.64.86.71,1.47.49Z"/></g></g></svg>