<svg xmlns="http://www.w3.org/2000/svg" xmlns:xlink="http://www.w3.org/1999/xlink" viewBox="0 0 256 139.5"><defs><style>.cls-1{fill:#8dc220;}.cls-2{fill:#44bfef;}.cls-3{fill:#00ac71;}.cls-4{fill:#f9bc00;}.cls-5{fill:url(#linear-gradient);}.cls-6{fill:url(#linear-gradient-2);}.cls-7{fill:url(#linear-gradient-3);}.cls-8{fill:#df1b1c;}.cls-9{fill:url(#linear-gradient-4);}.cls-10{fill:url(#linear-gradient-5);}.cls-11{fill:url(#linear-gradient-6);}.cls-12{fill:url(#linear-gradient-7);}.cls-13{fill:url(#linear-gradient-8);}.cls-14{fill:url(#linear-gradient-9);}.cls-15{fill:url(#linear-gradient-10);}</style><linearGradient id="linear-gradient" x1="-643.9" y1="579.27" x2="-643.9" y2="580.27" gradientTransform="matrix(63.8, 0, 0, -45.2, 41198.41, 26253.01)" gradientUnits="userSpaceOnUse"><stop offset="0" stop-color="#8ac23e"/><stop offset="1" stop-color="#8ac23e" stop-opacity="0"/></linearGradient><linearGradient id="linear-gradient-2" x1="-643.89" y1="580.27" x2="-643.89" y2="579.27" gradientTransform="matrix(63.7, 0, 0, -45.2, 41147.94, 26228.41)" gradientUnits="userSpaceOnUse"><stop offset="0" stop-color="#698932"/><stop offset="1" stop-color="#698932" stop-opacity="0"/></linearGradient><linearGradient id="linear-gradient-3" x1="-643.9" y1="580.27" x2="-643.9" y2="579.27" gradientTransform="matrix(63.8, 0, 0, -45.2, 41241, 26228.41)" gradientUnits="userSpaceOnUse"><stop offset="0" stop-color="#ffed01"/><stop offset="1" stop-color="#ffed01" stop-opacity="0"/></linearGradient><linearGradient id="linear-gradient-4" x1="-643.9" y1="580.27" x2="-643.9" y2="579.27" gradientTransform="matrix(63.8, 0, 0, -45.2, 41290, 26228.41)" gradientUnits="userSpaceOnUse"><stop offset="0" stop-color="#e02a89"/><stop offset="1" stop-color="#e02a89" stop-opacity="0"/></linearGradient><linearGradient id="linear-gradient-5" x1="-643.9" y1="580.27" x2="-643.9" y2="579.27" gradientTransform="matrix(63.8, 0, 0, -45.2, 41305.11, 26298.21)" gradientUnits="userSpaceOnUse"><stop offset="0" stop-color="#7f1e4f"/><stop offset="1" stop-color="#7f1e4f" stop-opacity="0"/></linearGradient><linearGradient id="linear-gradient-6" x1="-643.9" y1="580.27" x2="-643.9" y2="579.27" gradientTransform="matrix(63.8, 0, 0, -45.2, 41256.11, 26298.21)" gradientUnits="userSpaceOnUse"><stop offset="0" stop-color="#e95506"/><stop offset="1" stop-color="#e95506" stop-opacity="0"/></linearGradient><linearGradient id="linear-gradient-7" x1="-643.9" y1="579.27" x2="-643.9" y2="580.27" gradientTransform="matrix(63.8, 0, 0, -45.2, 41112.91, 26253.01)" gradientUnits="userSpaceOnUse"><stop offset="0" stop-color="#88d0f1"/><stop offset="1" stop-color="#88d0f1" stop-opacity="0"/></linearGradient><linearGradient id="linear-gradient-8" x1="-643.9" y1="580.27" x2="-643.9" y2="579.27" gradientTransform="matrix(63.8, 0, 0, -45.2, 41127.91, 26228.41)" gradientUnits="userSpaceOnUse"><stop offset="0" stop-color="#00828b"/><stop offset="0.83" stop-color="#00828b" stop-opacity="0"/></linearGradient><linearGradient id="linear-gradient-9" x1="-643.89" y1="579.27" x2="-643.89" y2="580.27" gradientTransform="matrix(63.7, 0, 0, -45.2, 41062.44, 26322.71)" gradientUnits="userSpaceOnUse"><stop offset="0" stop-color="#2073ba"/><stop offset="1" stop-color="#2073ba" stop-opacity="0"/></linearGradient><linearGradient id="linear-gradient-10" x1="-643.9" y1="580.27" x2="-643.9" y2="579.27" gradientTransform="matrix(63.8, 0, 0, -45.2, 41155.61, 26228.41)" gradientUnits="userSpaceOnUse"><stop offset="0" stop-color="#8ed0e1"/><stop offset="1" stop-color="#88d0f1" stop-opacity="0"/></linearGradient></defs><g id="Layer_2" data-name="Layer 2"><g id="Layer_3" data-name="Layer 3"><path class="cls-1" d="M128.1,0h36.1c-13.3,21.8-28,45.8-42.7,69.7H85.4C100.1,45.8,114.8,21.8,128.1,0Z"/><path class="cls-2" d="M42.7,0H78.8C71.7,11.6,64.5,23.3,57.4,34.9L36.1,69.7C43.2,81.3,50.3,93,57.4,104.6s14.2,23.2,21.4,34.8H42.7c-7.1-11.6-14.3-23.2-21.4-34.8S7.1,81.4,0,69.8L21.3,35C28.4,23.3,35.6,11.7,42.7,0Z"/><path class="cls-3" d="M42.7,0h0L85.4,69.7h36.1L78.8,0H42.7Z"/><path class="cls-4" d="M164.2,0H128.1c7.1,11.6,14.2,23.3,21.4,34.9s14.2,23.2,21.4,34.8c-7.1,11.6-14.3,23.3-21.4,34.9s-14.2,23.2-21.4,34.8h36.1c7.1-11.6,14.2-23.2,21.4-34.8S199.8,81.4,207,69.7c-7.2-11.6-14.3-23.2-21.4-34.8S171.3,11.7,164.2,0Z"/><path class="cls-5" d="M149.3,24.6H113.2c-4.6,7.5-9.2,15.1-13.8,22.6S90.2,62.3,85.5,69.8h36.1c4.6-7.5,9.3-15.1,13.9-22.6S144.6,32.1,149.3,24.6Z"/><path class="cls-6" d="M100.5,45.2h36.1c4.6-7.5,9.2-15.1,13.8-22.6S159.6,7.5,164.2,0H128.1c-4.6,7.5-9.2,15.1-13.8,22.6S105.1,37.7,100.5,45.2Z"/><path class="cls-7" d="M191.9,45.2H155.8c-4.6-7.5-9.3-15.1-13.9-22.6S132.7,7.5,128.1,0h36.1c4.6,7.5,9.2,15.1,13.8,22.6S187.3,37.7,191.9,45.2Z"/><path class="cls-8" d="M213.2,0H177.1c7.1,11.7,14.2,23.3,21.3,34.9s14.3,23.2,21.4,34.8c-7.1,11.6-14.3,23.3-21.4,34.9s-14.2,23.2-21.4,34.8h36.1c7.1-11.6,14.2-23.2,21.4-34.8s14.2-23.2,21.4-34.9c-7.1-11.6-14.2-23.2-21.4-34.8C227.5,23.3,220.3,11.7,213.2,0Z"/><path class="cls-9" d="M240.9,45.2H204.8c-4.7-7.5-9.3-15.1-13.9-22.6S181.7,7.5,177.1,0h36.1c4.6,7.5,9.2,15.1,13.8,22.6S236.3,37.7,240.9,45.2Z"/><path class="cls-10" d="M192.2,115h36.1c4.6-7.5,9.2-15,13.8-22.6s9.2-15.1,13.9-22.6H219.8c-4.6,7.5-9.2,15.1-13.8,22.6S196.8,107.4,192.2,115Z"/><path class="cls-11" d="M143.2,115h36.1c4.6-7.5,9.2-15.1,13.8-22.6s9.2-15.1,13.9-22.6H170.9c-4.6,7.5-9.2,15.1-13.8,22.6S147.8,107.4,143.2,115Z"/><path class="cls-12" d="M63.8,24.6H27.7c-4.6,7.5-9.2,15.1-13.8,22.6S4.6,62.3,0,69.8H36.1c4.6-7.5,9.2-15,13.8-22.6S59.1,32.1,63.8,24.6Z"/><path class="cls-13" d="M15,45.2H51.1c4.6-7.5,9.2-15.1,13.8-22.6S74.2,7.5,78.8,0H42.7c-4.6,7.5-9.2,15-13.8,22.6S19.7,37.7,15,45.2Z"/><path class="cls-14" d="M15,94.3H51.1c4.6,7.5,9.2,15.1,13.8,22.6s9.2,15.1,13.8,22.6H42.6c-4.6-7.5-9.3-15-13.9-22.6S19.6,101.9,15,94.3Z"/><path class="cls-15" d="M106.5,45.2H70.4c-4.6-7.5-9.2-15.1-13.8-22.6S47.3,7.5,42.7,0H78.8C83.4,7.5,88,15,92.6,22.6S101.9,37.7,106.5,45.2Z"/></g></g></svg>