<svg xmlns="http://www.w3.org/2000/svg" viewBox="0 0 261.8 236.89"><defs><style>.cls-1{fill:#2680b9;}.cls-2{fill:#c3352f;}.cls-3{fill:#55a2d9;}.cls-4{fill:#45344f;}.cls-5{fill:#8c201c;}.cls-6{fill:#7d1b17;}.cls-7{fill:#236da2;}.cls-8{fill:#c73630;}.cls-9{fill:#449fd7;}.cls-10{fill:#3e9ad4;}.cls-11{fill:#ee8d3d;}.cls-12{fill:#821d19;}.cls-13{fill:#cd3c31;}.cls-14{fill:#eb783a;}.cls-15{fill:#bd352f;}.cls-16{fill:#7b1a16;}.cls-17{fill:#f5bb3c;}.cls-18{fill:#a33126;}.cls-19{fill:#4c8ec7;}.cls-20{fill:#ad3929;}.cls-21{fill:#ec7a3b;}.cls-22{fill:#ea7039;}.cls-23{fill:#ee893c;}.cls-24{fill:#761714;}.cls-25{fill:#4993ce;}.cls-26{fill:#d75a36;}.cls-27{fill:#ce5333;}.cls-28{fill:#982a22;}.cls-29{fill:#5e1018;}.cls-30{fill:#ed823e;}.cls-31{fill:#4195d0;}.cls-32{fill:#c34b2e;}.cls-33{fill:#4fa2d9;}.cls-34{fill:#92241e;}.cls-35{fill:#9e2d25;}.cls-36{fill:#ec7e3d;}.cls-37{fill:#e25035;}.cls-38{fill:#e86739;}.cls-39{fill:#ed833b;}.cls-40{fill:#e26538;}.cls-41{fill:#ec793d;}.cls-42{fill:#52111a;}.cls-43{fill:#ee8a3c;}.cls-44{fill:#d54433;}.cls-45{fill:#4ba1d8;}.cls-46{fill:#e66a38;}.cls-47{fill:#e75d37;}.cls-48{fill:#701514;}.cls-49{fill:#ed803d;}.cls-50{fill:#ee883c;}.cls-51{fill:#661216;}.cls-52{fill:#ef913c;}.cls-53{fill:#f3b03e;}.cls-54{fill:#f19f3c;}.cls-55{fill:#f0993c;}.cls-56{fill:#ba442d;}.cls-57{fill:#f2a83e;}.cls-58{fill:#481b2d;}.cls-59{fill:#7a1a16;}.cls-60{fill:#2786c5;}.cls-61{fill:#37486a;}.cls-62{fill:#dd4b35;}.cls-63{fill:#1f6da3;}.cls-64{fill:#442942;}.cls-65{fill:#b1312b;}.cls-66{fill:#3f3a57;}.cls-67{fill:#3a6189;}.cls-68{fill:#3392cf;}.cls-69{fill:#1578b5;}.cls-70{fill:#44304b;}.cls-71{fill:#3f3957;}.cls-72{fill:#206699;}.cls-73{fill:#2e567f;}.cls-74{fill:#3b4464;}.cls-75{fill:#275f8b;}.cls-76{fill:#1b80c1;}.cls-77{fill:#364c6f;}.cls-78{fill:#1c75ad;}.cls-79{fill:#3292cf;}.cls-80{fill:#1a6da3;}.cls-81{fill:#305a83;}.cls-82{fill:#414361;}.cls-83{fill:#2b8bca;}.cls-84{fill:#3f6088;}.cls-85{fill:#1573ad;}.cls-86{fill:#3a8fcc;}.cls-87{fill:#1973ab;}.cls-88{fill:#4b4965;}.cls-89{fill:#377bb2;}.cls-90{fill:#491219;}.cls-91{fill:#452237;}.cls-92{fill:#334e73;}.cls-93{fill:#266495;}.cls-94{fill:#1f71a8;}.cls-95{fill:#f0933d;}.cls-96{fill:#d84933;}.cls-97{fill:#c3462f;}.cls-98{fill:#e76b38;}.cls-99{fill:#ba432d;}.cls-100{fill:#4d8ac2;}.cls-101{fill:#b43f2c;}.cls-102{fill:#ea713b;}.cls-103{fill:#ed833c;}.cls-104{fill:#6b1415;}.cls-105{fill:#dd6037;}.cls-106{fill:#c84f30;}.cls-107{fill:#92241f;}.cls-108{fill:#37486b;}.cls-109{fill:#432c45;}.cls-110{fill:#42304a;}.cls-111{fill:#1a7dbc;}.cls-112{fill:#226596;}.cls-113{fill:#3c4c70;}.cls-114{fill:#2a89c7;}.cls-115{fill:#2d5781;}.cls-116{fill:#197ebf;}.cls-117{fill:#44273e;}.cls-118{fill:#454360;}.cls-119{fill:#354d72;}.cls-120{fill:#2b8bcb;}.cls-121{fill:#4381b8;}.cls-122{fill:#5186bb;}.cls-123{fill:#f19c3b;}.cls-124{fill:#f4b23a;}.cls-125{fill:#246393;}.cls-126{fill:#49121b;}.cls-127{fill:#48192c;}.cls-128{fill:#462035;}.cls-129{fill:#471422;}.cls-130{fill:#375880;}.cls-131{fill:#3e5073;}.cls-132{fill:#385880;}.cls-133{fill:#415173;}.cls-134{fill:#587ba6;}.cls-135{fill:#5580af;}.cls-136{fill:#5283b6;}.cls-137{fill:#f3a73c;}.cls-138{fill:#f4ba3a;}.cls-139{fill:#e9e340;}.cls-140{fill:#f1ca38;}.cls-141{fill:#f5c139;}</style></defs><g id="Layer_2" data-name="Layer 2"><g id="Layer_1-2" data-name="Layer 1"><path class="cls-1" d="M171.52,2.89l0-1.28,1.38-.78c-.26.83-.49,1.69-1.41,2.06Z"/><path class="cls-2" d="M181.25,8.25h-1.94l.48-.49c.81.12,1.75-.33,2.42.49Z"/><path class="cls-3" d="M0,131.6c5.21-1.54,10.06-4,15.12-5.9,6.19-2.36,12.34-4.84,18.52-7.26a10,10,0,0,1-4.8,5.75A39.59,39.59,0,0,1,1,132.59l-1-.51Z"/><path class="cls-4" d="M173.51,0H176c.29.67-.35.87-.62,1.26-.43.46-.72,1-1.13,1.49s-1.07,1.1-1.54,1.7A157.37,157.37,0,0,0,161,28.13c-1.25,2.63-2,5.47-3.5,8A37.9,37.9,0,0,0,155,41.61c-.08.21-.17.42-.27.62-1.1,2.34-2.12,4.71-3.12,7.08a5.56,5.56,0,0,1-.25.61,15,15,0,0,0-1.28,2.94,6.07,6.07,0,0,1-.24.59,22.07,22.07,0,0,0-1.71,3.81,4.35,4.35,0,0,1-.25.63c-.76.83-.52,2.6-2.31,2.49a1.62,1.62,0,0,1-.23-1c.9-3.35,2.93-6.26,3.7-9.65a3.19,3.19,0,0,1,.35-1,18.81,18.81,0,0,0,3.08-6.84,4.7,4.7,0,0,1,.78-1.94,9.62,9.62,0,0,0,2.08-4.42,7.57,7.57,0,0,1,.28-1.32,4.6,4.6,0,0,1,.65-1.19A3.81,3.81,0,0,0,157.4,30a12.78,12.78,0,0,1,1.73-3.86c2.49-4.26,4.09-8.94,6.27-13.35A49.06,49.06,0,0,1,173.51,0Z"/><path class="cls-5" d="M177.9,0c.07.59.65.4.95.63,0,1.59-1.32,2.52-1.89,3.85a134.4,134.4,0,0,0-5.21,18.71c-2.42,9.33-4.51,18.74-6.65,28.14-.17.74-.23,1.67-1.24,1.92a1.81,1.81,0,0,1-1.15-1.58,21.48,21.48,0,0,1,1.38-6.86c1.81-7.22,3.38-14.5,5.58-21.62a34.81,34.81,0,0,0,.92-4.52A73.38,73.38,0,0,1,176.93,0Z"/><path class="cls-6" d="M176.93,0a3.69,3.69,0,0,1-.1,1.44,107.84,107.84,0,0,0-5.75,17.08c-1.67,6.15-3.2,12.33-5,18.46a2.33,2.33,0,0,1-1.3,1.64.88.88,0,0,1-.93-.57,22.08,22.08,0,0,1,2.06-8.9c2.13-6.62,3.93-13.33,5.92-20,.84-2.82,2.33-5.34,3.18-8.14l.9-1Z"/><path class="cls-7" d="M173.51,0c-1.28,3.06-3.7,5.4-5.21,8.35-2.79,5.45-5.16,11.09-7.74,16.64-.26.57-.32,1.29-1.15,1.37a1.57,1.57,0,0,1-.15-2A165.06,165.06,0,0,1,170,2.72a13,13,0,0,0,2-1.89c.16-.49,1-.21,1-.83Z"/><path class="cls-2" d="M257.34,192.05l-10.68-9.84a32,32,0,0,0-3-8.7c-4.3-8.91-7.92-18.11-11.4-27.37q-5.93-15.72-11-31.73c-4.28-13.62-8.14-27.37-12-41.12a359.39,359.39,0,0,0-12-37,104.07,104.07,0,0,0-9.92-20.55,4.73,4.73,0,0,0-1.22-1.49,44.92,44.92,0,0,0-4.45-5,.71.71,0,0,1-.26-1l.07-.09c1.1-.63,1.79.19,2.59.71a38.84,38.84,0,0,1,13.08,16.88q2.94,6.12,5.47,12.42c1.3,3.21,2.49,6.49,3.8,9.68a121.64,121.64,0,0,0,5.49,14.64,13.29,13.29,0,0,1,.78,3.28c1.34,4.68,3.57,9.09,4.77,13.74,1.56,6.06,3.75,11.91,5.61,17.85a280.42,280.42,0,0,0,9.14,26.92c1,2.2,1.42,4.64,2.26,6.92,3.76,10.3,7.25,20.69,11.61,30.78,2.64,6.09,5.41,12.12,8,18.25,1.3,3.12,3,6.09,4.28,9.24.47,1.19.79,2.24-1,2.57Z"/><path class="cls-8" d="M186.19,13.64a12.9,12.9,0,0,1,4.07,5.52,172.73,172.73,0,0,1,9.35,21.44q4.74,13.34,8.67,26.95c2.92,10.3,5.62,20.67,8.74,30.92,2.68,8.78,5.36,17.56,8.32,26.26q6.3,18.7,13.61,37.06c2.36,5.88,5.41,11.48,7.7,17.41a3,3,0,0,1,0,3l-11.27-10.07c-.9-3.87-2.83-7.4-4-11.13-1.63-5.1-3.66-10.06-5.32-15.14-1.61-4.91-3.24-9.83-4.84-14.76-1.32-4.05-2.41-8.23-3.6-12.35-1.06-3.73-1.83-7.54-3.17-11.21-1-2.78-1.75-5.72-2.5-8.62q-1.81-6.92-4-13.72c-.93-3-1.4-6.27-2.11-9.4-1.32-5.92-3.3-11.67-4.76-17.56-1.18-4.79-2.37-9.6-4-14.26-2.45-7.2-4.3-14.62-7.37-21.59-1-2.2-2.18-4.33-3.21-6.53C186.24,15.16,185.54,14.52,186.19,13.64Z"/><path class="cls-9" d="M48.26,112.6A100.83,100.83,0,0,1,59,108.24c1,.49.7,1.38.59,2.13a66.37,66.37,0,0,1-7.51,23.14,68.58,68.58,0,0,1-19.45,21.58q-7.72-5.16-15.09-10.79c-.14-1.6,1.24-1.71,2.2-2.1A49.9,49.9,0,0,0,44.6,120.4,56,56,0,0,1,48.26,112.6Z"/><path class="cls-10" d="M32.62,155.09c1.45-2.86,4.4-4.19,6.62-6.24A66.45,66.45,0,0,0,47,140.27a59.91,59.91,0,0,0,11.3-25.62,16.75,16.75,0,0,0,.69-6.41,33.6,33.6,0,0,1,6.27-2.5c1.82-.5,1.54,1,1.63,1.88a43.07,43.07,0,0,1-.52,9.69,75.33,75.33,0,0,1-10.45,31.06,88.09,88.09,0,0,1-9.37,12.38c-.86.94-1.7,2-3.17,2.05Q37.82,159.18,32.62,155.09Z"/><path class="cls-11" d="M199,164.79A77.66,77.66,0,0,0,185.21,175a1.93,1.93,0,0,1-1-2.48,8.06,8.06,0,0,0-.36-5.41,11.74,11.74,0,0,1,.06-6.49,6.21,6.21,0,0,0-.22-4.73,1.66,1.66,0,0,1-.16-1.64,6.85,6.85,0,0,0,.25-5.67c-1.86-6.72-1.93-13.72-3.3-20.51-1.72-8.58-2.56-17.27-3.89-25.91a208.72,208.72,0,0,1-2.81-26.29,51.45,51.45,0,0,1-.44-5.55,4,4,0,0,1,.55-2.56c1.65.17,1.09,1.49,1.24,2.41.61,3.85.12,7.8,1,11.6,1.22,5.27,1.68,10.68,2.37,16,1.1,8.49,3.1,16.72,5,25a101.71,101.71,0,0,0,4.23,13.44c.31.81.7,1.91,1.66,1.92,1.15,0,1.39-1.23,1.68-2.11a13.39,13.39,0,0,0,.66-4.07c0-5.11.87-10.17.52-15.31-.2-3.12.66-6.24.22-9.43a93.55,93.55,0,0,1-.22-15.7c.12-3.87-.44-7.76-.35-11.65,0-1-.26-2.15.78-2.91.88.27,1,1,1,1.76,0,5.76,1.08,11.44,1.1,17.21,0,6,.27,12,.84,18a53,53,0,0,1-.4,6.3c-.06,3.82.72,7.59.53,11.42a216.29,216.29,0,0,0,2.19,28.53C198,161.7,199,163.14,199,164.79Z"/><path class="cls-12" d="M164.74,38.5A36.47,36.47,0,0,0,167.67,30a73.26,73.26,0,0,1,3.41-11.43,83.3,83.3,0,0,1-3.18,13.57C166.58,38,165,43.87,163.52,49.75a15.58,15.58,0,0,0-.24,1.91c-1.63,6.59-2.76,13.32-4.9,19.78C155,81.58,152.3,91.93,148.59,102c-1.59,4.32-3,8.75-4.81,13a176.74,176.74,0,0,1-11.12,23.48c-1.57,2.56-2.91,5.24-4.47,7.8a114.22,114.22,0,0,1-22.86,26.68,138.09,138.09,0,0,1-14.47,10.65,1.23,1.23,0,0,1-1.15.21l-2-2.91a2.83,2.83,0,0,1,1.56-2.31,114.14,114.14,0,0,0,20.16-17.39q3.82-4.08,7.33-8.42a162,162,0,0,0,16.21-26c3.41-6.48,6.3-13.18,9.12-19.89a108.83,108.83,0,0,0,6-16.7,48.7,48.7,0,0,1,2.67-7.52,102.65,102.65,0,0,0,4.21-11.91c2.23-8,4.4-15.91,7.09-23.72.38-1.09.51-2.22.81-3.32a11.76,11.76,0,0,1,1.91-5.19Z"/><path class="cls-13" d="M186.19,13.64c1.73,3.62,3.66,7.15,5.11,10.87a46.11,46.11,0,0,1,3.26,10.05,19.53,19.53,0,0,0,1.76,4.92,103.89,103.89,0,0,1,3.85,12.67c1.76,5.86,2.58,12.05,4.77,17.73a51.77,51.77,0,0,1,2.77,10.66c.59,3.95,2.17,7.49,3.08,11.23,1,3.89,2,7.86,3.24,11.74A101.11,101.11,0,0,1,217,113.6c.76,3.8,2,7.51,3.14,11.24,1.4,4.78,2.72,9.58,4.3,14.31,1.93,5.79,4.26,11.45,6.07,17.28,1.17,3.75,2.95,7.24,4.11,11,.5,1.6,1.39,3,.81,4.72l-7.33-5.34a16.44,16.44,0,0,1-2.26-7.63,129.47,129.47,0,0,0-4.44-13.61c-1.8-7.49-4.42-14.74-6.43-22.18-1.68-6.26-3.42-12.52-5-18.81q-2.2-8.44-4.21-16.95c-3.32-14.44-6.6-28.9-10.48-43.21Q193.57,38.2,191.67,32a123.43,123.43,0,0,0-6.46-16.6,18.32,18.32,0,0,0-4.83-6.24,1.37,1.37,0,0,1-.22-.69c.15-.42.47-.49.86-.43l.29.21A19.46,19.46,0,0,1,186.19,13.64Z"/><path class="cls-5" d="M89.71,183.74c4.54-3.33,9.19-6.5,13.58-10a119.35,119.35,0,0,0,17.62-18.19A151.91,151.91,0,0,0,134,135c2.52-4.36,4.11-9.25,6.42-13.75,1.91-3.73,3.2-7.69,4.81-11.53,1.18-2.79,2-5.73,3-8.6,1.61-4.8,3.29-9.6,4.8-14.43,2.28-7.26,4.5-14.54,6.6-21.84.93-3.24,1.54-6.58,2.2-9.91a6.21,6.21,0,0,1,1.49-3.23l.49,1.47c.83.87.43,1.84.19,2.76-2.31,8.71-4.18,17.51-6.56,26.2q-4.36,15.82-9.62,31.39c-1.49,4.47-3.62,8.67-5.27,13.09a120.13,120.13,0,0,1-10.68,21.52,106.55,106.55,0,0,1-26.37,29.36,88.57,88.57,0,0,1-9.14,6.46,11.32,11.32,0,0,0-4.25,3.85Z"/><path class="cls-14" d="M100,204.69a2.11,2.11,0,0,1-.65-1.41,20.62,20.62,0,0,1,11.12-5,108,108,0,0,1,21.74-2.18c4,0,8-1.15,12.09-1.32a3.31,3.31,0,0,0,2.88-1.63,20.89,20.89,0,0,1,7-7,35.26,35.26,0,0,0,12.06-19,133.45,133.45,0,0,0,4.28-28c.75-11.11,1.15-22.23.81-33.34-.46-14.91-.31-29.81-.43-44.73.17-6.6.73-13.17,1-19.76,0-.79,0-1.67,1-2,1.27,1.26.6,2.89.79,4.35a15.89,15.89,0,0,1-.2,3.16,68.67,68.67,0,0,0-.29,9.83,41,41,0,0,1-.14,4.57,43.14,43.14,0,0,0-.2,11.63c.26,3.08.2,6.15.35,9.21A206.85,206.85,0,0,0,174.59,106c.31,1.91-.15,3.82,0,5.78a317,317,0,0,1,.53,34.74,109.31,109.31,0,0,1-2.89,22.36,17.58,17.58,0,0,1-1.47,3.85,16.37,16.37,0,0,0-2.21,4.3,28.74,28.74,0,0,1-6,9.3,35.18,35.18,0,0,1-7.37,8,22.46,22.46,0,0,1-7.54,3.11,68.87,68.87,0,0,1-14,1.22,83.92,83.92,0,0,0-18,1.62,9.27,9.27,0,0,1-1.89.21,10.21,10.21,0,0,0-5.6,1,5.4,5.4,0,0,1-.67.25,4.74,4.74,0,0,0-3,1.32,14.51,14.51,0,0,1-4.4,1.63Z"/><path class="cls-15" d="M257.34,192.05c2.16-2-.23-3.52-.81-4.86-3.3-7.71-7.37-15.09-10.39-22.89-2.86-7.41-6.33-14.6-8.55-22.27a39,39,0,0,0-2.08-7.17c-2.65-4.86-3.54-10.25-5.76-15.19-1.83-4.09-2.73-8.56-4.27-12.74-2.06-5.59-3.47-11.38-5.54-17-1.15-3.12-2-6.38-2.93-9.61a75.16,75.16,0,0,0-3.19-9c-1.08-2.58-1.4-5.41-2.27-8-.71-2.11-1.64-4.28-2.53-6.39a37,37,0,0,0-1.6-5.18,32.85,32.85,0,0,1-2.76-7.34c-1.91-4.33-3.67-8.71-5.49-13.07-1.27-3.05-2.87-6.06-4.41-9A35,35,0,0,0,183.47,9.17a3.15,3.15,0,0,0-2.15-.88h0c-.74-.69-1.95.51-2.56-.66a5.68,5.68,0,0,1,7.5-.83,46.48,46.48,0,0,1,8,11.64,138.08,138.08,0,0,1,8.11,16.63c1.85,4.24,3.62,8.53,5.15,12.89,5.18,14.8,10,29.71,15.37,44.46,9.88,27.39,19.52,54.86,30.43,81.88q4,9.85,8.27,19.57a1.83,1.83,0,0,1,0,1.5,13.77,13.77,0,0,1-4.33-3.32Z"/><path class="cls-16" d="M164.74,38.5a142.89,142.89,0,0,1-5.61,19.15,3.46,3.46,0,0,0-.22.69,134.7,134.7,0,0,1-4,14.51,92.82,92.82,0,0,1-3.76,10.36,48.75,48.75,0,0,0-2.89,8.29,64.28,64.28,0,0,1-3.69,10.63c-1.84,4.87-3.63,9.8-5.87,14.48-3.26,6.75-6.57,13.49-10.38,20a144.88,144.88,0,0,1-8.94,13.78A142.41,142.41,0,0,1,104,167.56c-3.7,3.56-7.94,6.39-11.66,9.87-1.4,1.3-3.57,1.57-4.58,3.4l-1.63-2.36a1.52,1.52,0,0,1,1.25-1.31,3.25,3.25,0,0,0,2.23-1.74,5.2,5.2,0,0,1,2.56-2.18,12.28,12.28,0,0,0,4.28-3.13c3.64-3.79,7.58-7.25,11.45-10.79,1.35-1.23,1.8-3.07,3.12-4.33a31.25,31.25,0,0,0,5.8-6.81,47.06,47.06,0,0,0,5.63-9.52c1.66-3.34,3.76-6.44,5.43-9.76,3-5.85,6.25-11.52,8.75-17.58a.92.92,0,0,1,.09-.23,156.5,156.5,0,0,0,8.73-20.48c3.13-7.82,5.77-15.82,8.48-23.79q3.5-10.09,6.62-20.32a36.5,36.5,0,0,1,2.09-6.71c.39-.74.43-1.83,1.66-1.77Z"/><path class="cls-17" d="M136.08,226.69a54.47,54.47,0,0,1-20.56,10.06c-.91.24-1.67.31-2.15-.85-2.73-6.49-5.52-13-8.3-19.45a12.8,12.8,0,0,1,7.76-1.27,37,37,0,0,1,16.1,4A12.27,12.27,0,0,1,136.08,226.69Z"/><path class="cls-18" d="M94.7,193l-.5-1a3.31,3.31,0,0,1,2-2.3,191.87,191.87,0,0,0,20.64-13.3,78.13,78.13,0,0,0,16.68-17.23A97.58,97.58,0,0,0,145.72,136a225.69,225.69,0,0,0,7.86-23.5Q157.22,98.87,160,85c2.5-12.38,4.73-24.8,6.93-37.23a21.71,21.71,0,0,0,.14-2.67c1-5.25,2.25-10.45,3.07-15.73q2.22-10.15,5-20.18a39,39,0,0,1,2.57-6,2.49,2.49,0,0,1,2.67-1.66c.89-.09,1.36.59,1.95,1.08.59,1.17-.6,1.24-1.11,1.69a11.23,11.23,0,0,0-3.87,5.31,39.6,39.6,0,0,0-2.86,10.46c-1.47,4.06-1.52,8.45-2.86,12.55-1.34,6.25-2.17,12.59-3.27,18.89-1.91,10.93-3.59,21.89-5.53,32.81C161,94.63,159,104.9,156.47,115.05c-1.49,6-3.61,11.78-5.27,17.71a111.07,111.07,0,0,1-10,22.6,61.09,61.09,0,0,1-8.05,11.24,77.18,77.18,0,0,1-11.34,10.94,235.25,235.25,0,0,1-24.85,15.29C96.24,193.23,95.5,193.66,94.7,193Z"/><path class="cls-19" d="M71.13,103.25l.55-.29c1.94,1.12,4.59,1.34,5.14,4.18q.83,7.47.91,15a103.94,103.94,0,0,1-7,38.17,16.6,16.6,0,0,0-1.66,4.54,3.08,3.08,0,0,1-1.74,2.38c-.34.21-1,.28-.53,1a25.21,25.21,0,0,0-8.79,3c-1.87-.55-1.89-1.63-1.06-3.16,1.58-2.92,3.41-5.69,5.09-8.55a81.21,81.21,0,0,0,4.65-13.21,75.55,75.55,0,0,0,4.4-18.64,67.59,67.59,0,0,0,.23-20.33A9,9,0,0,1,71.13,103.25Z"/><path class="cls-20" d="M94.7,193a35.38,35.38,0,0,0,7.83-4.09c4.66-2.56,9.13-5.46,13.68-8.2a61.89,61.89,0,0,0,14.24-11.91,72.57,72.57,0,0,0,12.3-18c2.08-4.57,4.62-9,6.35-13.73,1.9-5.19,3.16-10.6,4.89-15.85a252.08,252.08,0,0,0,6.64-28.46c2-9.85,3.41-19.83,5.08-29.75,1.38-8.18,2.75-16.36,4.17-24.53a16.29,16.29,0,0,1,1.2-5.84c1.27,1.43.39,3,.16,4.42-1,6.56-1.67,13.18-3,19.69-1,5.16-1.52,10.4-2.35,15.59-1.83,11.35-3.25,22.77-5.47,34.05q-2.48,12.52-6.09,24.75c-1.54,5.21-3.13,10.42-5.16,15.44A69.88,69.88,0,0,1,129,175.39a135.76,135.76,0,0,1-23.62,14.75,11.4,11.4,0,0,0-2.2,1.5A30.27,30.27,0,0,1,96,195.46Z"/><path class="cls-21" d="M213.46,161.68l-5.75.16c-1.57.58-2.21-.22-2.57-1.63a54.29,54.29,0,0,1-1.37-7.91c-.77-7.92-3.25-15.56-3.94-23.51-.56-6.45-1.55-12.88-2.37-19.31-1.32-10.44-1.93-21-3.21-31.39-1.26-10.18-2.18-20.42-4.15-30.51a9.26,9.26,0,0,1-.67-3.67,109.5,109.5,0,0,0-4.57-21.34c-.14-1.66-1.45-3.13-.78-4.92,1.18-.49,1.32.57,1.59,1.2.51,1.15.89,2.37,1.38,3.54a23.6,23.6,0,0,0,.63,2.61,122.62,122.62,0,0,1,4,17c.44,5.18,1.78,10.2,2.52,15.33,1.1,7.61,2.28,15.21,3.46,22.8,1.69,10.88,2.86,21.83,5,32.65,1.6,8.17,2.72,16.45,4.41,24.62,1.35,6.51,3,13,4.22,19.5a6.34,6.34,0,0,0,1.57,3.74A1.21,1.21,0,0,1,213.46,161.68Z"/><path class="cls-22" d="M171.57,61.41c0,9-.07,18,0,27.05.09,10,.36,20,.46,29.93.09,9.11-.6,18.19-1.33,27.26a97.55,97.55,0,0,1-5,25.65,34.86,34.86,0,0,1-11.45,15.83c-2.37,1.86-5.23,3.27-6.35,6.6-.5,1.48-2.69,2.13-4.18,2-4.88-.29-9.52,1.54-14.39,1.2a80.86,80.86,0,0,0-18.86,2,15.47,15.47,0,0,0-8.63,3.39c-.73.71-1.7.42-2.45.88a.4.4,0,0,1-.33-.53,3.61,3.61,0,0,1,1.65-1.67,38,38,0,0,1,12.86-4.62,38,38,0,0,1,10.59-2.16A39.35,39.35,0,0,0,147,187.12a41.59,41.59,0,0,0,8.91-7.11,46.64,46.64,0,0,0,9.34-20.37A144,144,0,0,0,169,132.22c.45-9.54,1.25-19.07,1.35-28.62.15-13,0-26.11.09-39.16C170.44,63.36,169.91,61.94,171.57,61.41Z"/><path class="cls-23" d="M173,46.79V43.87a.57.57,0,0,1,.78.23v0a3,3,0,0,1,.36,1.62c-.27,6.36.47,12.69.49,19a3.71,3.71,0,0,1-.66,3c.17,7.59.91,15.11,1.78,22.65.68,5.82,1.06,11.74,2.29,17.42,1.38,6.42,1.17,13,2.94,19.38a16.49,16.49,0,0,1,.91,7.69c-.3,1.47,1,3,.91,4.67-.18,4.19,2,8,2,12.21,0,.24.29.57.22.68-2,2.54,1,5.25-.21,7.67a14.52,14.52,0,0,0-.63,5.71c0,.39-.12,1,.09,1.18a4.75,4.75,0,0,1,.35,5.77c-.47,1,.77,1.38.52,2.21l-6.31,6.42a3.7,3.7,0,0,1-.76-3,115.15,115.15,0,0,1,.78-19.2,19.91,19.91,0,0,0-.38-5.81,71.44,71.44,0,0,1-.42-9.25,117.85,117.85,0,0,0-.76-12.6q-1.19-11.47-2.16-23c-.64-7.4-1.35-14.8-1.77-22.21-.27-4.62-.35-9.25-.59-13.86-.44-8.19.1-16.38,0-24.57a1.81,1.81,0,0,1,.23-1.18Z"/><path class="cls-24" d="M164.25,38A14.66,14.66,0,0,0,162,43.3c-2,6.83-3.77,13.72-6.4,20.38-2.28,5.75-3.91,11.76-5.83,17.66-1,3-2.49,5.89-3.49,9-1.22,3.76-2.83,7.39-4.11,11.16-1,3.08-3,5.83-4.25,8.86-2.43,5.82-5.65,11.23-8.32,16.92-1.89,4.06-4.45,7.8-6.72,11.67a30.78,30.78,0,0,1-4.71,7c-2.06,2.66-3.76,5.58-6.1,8.09-3.23,3.49-6.32,7.12-9.76,10.41-4.37,4.18-9.21,7.86-13.8,11.81a3.62,3.62,0,0,1-3.22,1.26l-.45-.45c-.61-1.55.39-2.44,1.39-3.29,2.5-2.08,5-4.09,7.56-6.14a113.32,113.32,0,0,0,19-20.41,141.15,141.15,0,0,0,9.48-13.55,256.84,256.84,0,0,0,12.44-22.52c3.41-7.58,7.05-15.07,9.83-23,1.85-5.26,4.18-10.36,5.69-15.76,3.69-11,7.78-21.92,11.28-33,2.69-8.57,5.67-17,8.25-25.65.19-.62.27-1.27.44-1.89A35.66,35.66,0,0,1,174,2.43c.3-.51.43-1.15,1.06-1.42.64,1,0,1.94-.33,2.7a152.43,152.43,0,0,0-6.19,19.77c-1.08,3.76-2.45,7.47-3.6,11.24A8,8,0,0,0,164.25,38Z"/><path class="cls-25" d="M71.13,103.25a29.92,29.92,0,0,1,1.47,8.44,100.07,100.07,0,0,1-3.5,29.68c-.73,2.76-1.8,5.5-2.7,8.25a60.66,60.66,0,0,1-3.38,9.5c-1.57,3-3.47,5.8-5.15,8.72-.88,1.51-.86,2.29.19,3.36a2.18,2.18,0,0,1-3.08.16l-.11-.11c-2-1.57-4.07-3.05-6.11-4.57a66.86,66.86,0,0,0,15.24-26,93.11,93.11,0,0,0,4-23.41c.13-3.32,0-6.65,0-10a4.22,4.22,0,0,1,.66-3,4.85,4.85,0,0,1,2.41-1Z"/><path class="cls-26" d="M98.12,200.31l-.6-1.45a26.3,26.3,0,0,1,8.62-4.33c6.78-3,13.87-5.34,20.77-8.09a44.84,44.84,0,0,0,18.72-13.08,60.2,60.2,0,0,0,9.81-16.69,163,163,0,0,0,8.16-36.22c1.35-10,2.17-20.11,3-30.2.72-9,1.46-18,2-27.1.22-3.7.9-7.38,1-11.11a5.3,5.3,0,0,1,.18-.81c.51-3.74.61-7.52,1.2-11.25.12-.73-.2-1.89,1.21-1.82a21.32,21.32,0,0,1-.17,7.43c-.66,4-.06,8.1-.92,12.07-.35,1.35-.21,2.75-.44,4.11,0,.54,0,1.09-.09,1.63-.52,2.39,0,4.83-.34,7.23a4.15,4.15,0,0,1-.16.78,74.69,74.69,0,0,0-.6,9.91q-.57,14.19-1.73,28.35c-.63,8.37-1.72,16.72-2.84,25.06a116.6,116.6,0,0,1-4.29,19.62,53.57,53.57,0,0,1-14.27,25,52.48,52.48,0,0,1-15.95,9.14q-9.69,3.87-19.73,6.76a4.49,4.49,0,0,0-2,.92c-3,1.65-6.26,2.61-9.19,4.33A1.08,1.08,0,0,1,98.12,200.31Z"/><path class="cls-27" d="M170.1,51.66c0,6.15-1,12.22-1.38,18.33-.15,2.83-.36,5.64-.54,8.46-.5,7.56-1.2,15.11-1.87,22.66-.45,5.06-1,10.1-1.52,15.15a222.16,222.16,0,0,1-4.19,25.5,76.32,76.32,0,0,1-9.29,24.81,64.42,64.42,0,0,1-8.17,10.37,50,50,0,0,1-15.09,9.73c-3.31,1.58-6.9,2.58-10.32,3.94A133.11,133.11,0,0,0,104,196.29a59.73,59.73,0,0,1-6.45,2.57l-.46-1a11,11,0,0,1,6-3.39,78.51,78.51,0,0,0,10.74-4.43c4.73-2.11,9.54-4.05,14.17-6.41a46.88,46.88,0,0,0,18-15.29,80.44,80.44,0,0,0,10.16-21.18,200.45,200.45,0,0,0,6.13-28.47,120,120,0,0,0,2.34-21.21c.53-6.11,1.23-12.19,1.76-18.3.49-5.61,1.21-11.21,1.68-16.84.26-3.13.58-6.26,1.05-9.37C169.11,52.38,169.19,51.65,170.1,51.66Z"/><path class="cls-28" d="M170.59,29.25A50.92,50.92,0,0,1,168.88,39c-.33,2.13-.8,4.25-1.21,6.37-1.37,8.26-3,16.45-4.56,24.68q-2.12,11.65-4.82,23.2c-1.3,5.49-3,10.9-4.33,16.4a194.46,194.46,0,0,1-7.63,22.53,97.94,97.94,0,0,1-27.67,41.68,95.56,95.56,0,0,1-13,9.76c-3.13,1.86-6.09,4-9.23,5.87-.87.51-1.6,1.44-2.81,1.13l-.83-1.5a15.92,15.92,0,0,1,5.76-4.66c5.3-3.32,10.24-7.09,15.19-10.91a103.13,103.13,0,0,0,16.46-17.84,40.55,40.55,0,0,0,5.21-8.75c2.23-4.88,5.19-9.38,7.15-14.39.77-2,1.43-4,2.09-6a9.59,9.59,0,0,1,.4-1.39A134,134,0,0,0,152,106.06a34.23,34.23,0,0,0,1-4c1.17-4.25,2.47-8.47,3.44-12.79.74-3.27,1.84-6.46,2.38-9.8.16-1,.46-2,.6-3.07,3.62-14.89,6.61-29.92,10.11-44.84.18-.79-.15-2,1.15-2.32Z"/><path class="cls-29" d="M174,2.43l-3.4,9.27c-2.79,9.17-5.94,18.22-8.92,27.33-2,6.2-4,12.4-6.31,18.5-2.73,7.35-5.34,14.75-8.33,22-2,4.85-4.3,9.58-6.19,14.49a165.24,165.24,0,0,0-8.44,17.09,75.34,75.34,0,0,1-4.48,8c-3.43,5.76-6.68,11.64-10.47,17.18a170.55,170.55,0,0,1-18.89,23.4A201.67,201.67,0,0,1,83,173.19a2.33,2.33,0,0,1-1.11.46L80,172.05a53.41,53.41,0,0,1,9.65-8.49,108.64,108.64,0,0,0,13.51-13.62,196.42,196.42,0,0,0,20.3-29.33,292.24,292.24,0,0,0,19.32-39.16q4.88-10.86,9.16-22c3.69-9.77,7.34-19.56,10.73-29.43a16.38,16.38,0,0,0,1.6-4.82,97.9,97.9,0,0,1,8.28-21.29A2.89,2.89,0,0,1,174,2.44Z"/><path class="cls-30" d="M173,46.79c0,2.92.1,5.84,0,8.76-.29,7.21.48,14.39.59,21.59.12,7.73.77,15.46,1.43,23.17s1.86,15.12,2.35,22.7a201.3,201.3,0,0,1,1.56,26.77,23.76,23.76,0,0,0,.8,6.45,20.32,20.32,0,0,1-.47,6.73c-.76,6.15-.18,12.29-.37,18.44l-8.34,9.6c-1.41-.47-1.51-1.54-1.21-2.75,1.14-4.56,1.63-9.28,2.84-13.78a147.27,147.27,0,0,0,3.27-18.88,15.5,15.5,0,0,0,.21-4.61c-1.18-7.18.19-14.36-.3-21.58-.83-12.09-1.35-24.22-1.92-36.33-.46-9.84-.95-19.67-1.13-29.52a3.53,3.53,0,0,1,.22-2.13c0-4.13,0-8.24,0-12.36,0-.77-.26-1.64.48-2.28Z"/><path class="cls-31" d="M68.71,104.27c0,4.7.15,9.41,0,14.11a68.33,68.33,0,0,1-2.26,14.28,61.78,61.78,0,0,1-2,9.41,85.77,85.77,0,0,1-14.18,24,1.74,1.74,0,0,1-1.49.57,36.08,36.08,0,0,1-5.38-3.89,72.27,72.27,0,0,0,13.75-18A63,63,0,0,0,63.94,127a75.93,75.93,0,0,0,2.34-19.16c0-.84.32-1.89-1-2.1A8.22,8.22,0,0,1,68.71,104.27Z"/><path class="cls-32" d="M170.1,51.66a41.41,41.41,0,0,0-1.4,10c-.83,6.15-1.36,12.33-1.94,18.51-.56,5.94-1,11.89-1.53,17.83-.94,6.86-1.76,13.74-2.92,20.57a229.34,229.34,0,0,1-5,23.93,88.21,88.21,0,0,1-6.53,17.22,53.65,53.65,0,0,1-18.12,20.51,165.15,165.15,0,0,1-27,13.45c-1,.4-1.85,1-2.83,1.32l-5.78,2.92a.27.27,0,0,1-.12-.32c-.53-1.45.44-2.08,1.49-2.63,5.52-2.91,11.19-5.5,16.84-8.16a68.43,68.43,0,0,0,25.45-19.13A60.58,60.58,0,0,0,149,154.33c1.44-3.34,2.86-6.68,4.18-10.07.81-2.08,1-4.26,1.62-6.35a136.53,136.53,0,0,0,4.28-17.75c1.84-7.4,2.66-15,3.8-22.51,1.06-6.88,1.76-13.82,2.59-20.72,1-8.13,2.1-16.22,3.23-24.33.24-1.77.55-3.51.71-5.29,0-.46-.2-1.32.84-.91A16.58,16.58,0,0,1,170.1,51.66Z"/><path class="cls-33" d="M1,132.59c.54-.7,1.32-.52,2-.49a40,40,0,0,0,25.06-8,25.09,25.09,0,0,0,5.58-5.64,67.27,67.27,0,0,1,9.76-3.89c1.14.75.74,1.61.17,2.49a48.39,48.39,0,0,1-18.39,17.84c-2.93,1.54-5.89,3-9,4.22a28.4,28.4,0,0,1-5,.81Z"/><path class="cls-34" d="M170.59,29.25a61.56,61.56,0,0,0-2.81,11.43c-1.91,8.07-3.45,16.22-5.11,24.35a105.13,105.13,0,0,1-2.8,11.49c-1.39,4.48-2.49,9-3.46,13.64a74.21,74.21,0,0,1-2.21,7.6,25.67,25.67,0,0,0-1.16,3.93,51.61,51.61,0,0,1-2.26,7.9c-2.71,6.38-4.62,13.08-7.43,19.43q-2.62,6-5.58,11.87a98.6,98.6,0,0,1-12,18.77,113.74,113.74,0,0,1-8.5,9.59q-5.66,5.34-11.65,10.24c-3.9,3.18-8.55,5.26-12.44,8.46a1,1,0,0,1-.92.17.34.34,0,0,1-.15-.36c.28-3.39,3.44-4.06,5.58-5.44A144.89,144.89,0,0,0,110,173a85.19,85.19,0,0,0,14.79-15.62,139.39,139.39,0,0,0,10.28-16c3.79-6.92,6.35-14.34,9.44-21.54a294,294,0,0,0,10.26-30.43c3.48-11.46,6-23.17,8.95-34.76a7.91,7.91,0,0,0,.1-1.46c1.7-5,2.54-10.25,3.84-15.37,1.52-6,2.86-12,4.33-18.06.95-3.9,1.94-7.8,3-11.67A15.24,15.24,0,0,1,178.85.63c.69,0,.93.7,1.47.9-2.94,1.52-3.58,4.61-4.51,7.26a184.55,184.55,0,0,0-5.22,20.45Z"/><path class="cls-35" d="M93.57,190.57c5.58-3.8,11.44-7.16,16.93-11.1A100.38,100.38,0,0,0,131.62,159a88.19,88.19,0,0,0,7.85-13.1,224.38,224.38,0,0,0,9.78-23.32c2.31-6,3.67-12.21,5.43-18.34,1-3.57,2-7.22,3-10.8,1-4,1.91-8.12,2.69-12.22q2.43-12.8,5.14-25.54a62.53,62.53,0,0,1,2.19-10.32,87.77,87.77,0,0,1-2.21,13.58c-.75,3.62-1,7.33-1.73,11-.66,3.37-1.45,6.73-2.1,10.12Q159.08,92.91,156,105.7c-1.69,7.09-3.95,14-6.19,21A168.81,168.81,0,0,1,142,146.31a74.62,74.62,0,0,1-8.73,14.4c-3,3.89-6.43,7.45-9.69,11.13a41.06,41.06,0,0,1-6.43,5.1,173.14,173.14,0,0,1-20.65,13.34A20.78,20.78,0,0,0,94.2,192Z"/><path class="cls-36" d="M172.55,61.41c.16,7.12,0,14.25.55,21.36.58,8.37,1,16.74,1.45,25.11.45,7.71.92,15.4,1.48,23.09a52.71,52.71,0,0,1,0,11.09,43.23,43.23,0,0,0,.39,8.2A61.2,61.2,0,0,1,175,164.67c-1.34,7.41-2.9,14.77-4.38,22.15-.28,1.4-1.69,2.78,0,4.19l-4.87,5.8a1.88,1.88,0,0,1-1.12-1.49c-.22-1.53-1.31-2.1-2.57-2.6-2.75-1.11-2.9-1.85-1-4.22q3.14-4,6.05-8.14a17.63,17.63,0,0,0,1.67-4.27A11.7,11.7,0,0,1,170.1,173a41.79,41.79,0,0,0,2.61-10.14,31.07,31.07,0,0,0,.91-9,23.18,23.18,0,0,1,.39-4.55,203.43,203.43,0,0,0,.3-28.15c-.09-3.74-.57-7.62-.54-11.32,0-5.37-.86-10.64-.87-16,0-5.93-.08-11.89-.46-17.8q-.34-6.18-.37-12.36c0-.78-.27-1.64.47-2.27Z"/><path class="cls-37" d="M222.25,163.75l-3.93-1.35a26.61,26.61,0,0,1-1.69-6.56,74.53,74.53,0,0,0-2.84-12.07c-2.26-8.05-4.13-16.19-6-24.31-1.66-7-3.24-14.06-4.36-21.19-2-12.89-4.86-25.62-7.27-38.43-1.28-6.75-2.69-13.51-4.49-20.15-1.49-5.77-3.11-11.5-4.62-17.27a1.33,1.33,0,0,1,.06-1.47c1.65.15,1.55,1.7,1.87,2.66,1.42,4.16,2.83,8.32,3.93,12.59a3.21,3.21,0,0,1,.27.73c3.31,13,6.46,26.13,8.94,39.37.16.87.5,1.7.73,2.56,1,7.8,3.07,15.37,4.59,23.06,1.93,9.77,4.51,19.38,7.07,29a37.16,37.16,0,0,1,1.32,4.67,7.77,7.77,0,0,0,.88,3.11,3.33,3.33,0,0,1,.29.7c.88,4,2.25,7.88,3.4,11.81a42.67,42.67,0,0,1,1.91,12.55Z"/><path class="cls-38" d="M187.17,22.42A104.82,104.82,0,0,1,191,35c.4,1.47.67,3,1,4.45,3.38,15.29,6.34,30.65,9,46.07,2.21,12.59,4.11,25.25,7,37.73,1.9,8.28,3.7,16.6,6.09,24.76,1.15,3.9,1.4,8,2.15,12a2.06,2.06,0,0,1-.36,1.84l-2.46-.16-.47-.39c-.77-.36-.9-1.07-1-1.81-1.46-8.71-3.75-17.25-5.55-25.89q-3.16-14.82-5.47-29.81c-2.23-14.93-4.36-29.89-6.72-44.8-.91-5.71-2-11.39-3.17-17.06-.86-5.79-2.59-11.38-3.9-17.06-.44-.68-.17-1.42-.21-2.14Z"/><path class="cls-39" d="M190.57,47.27a54.39,54.39,0,0,1,1.91,11.11q1.88,13.87,3.4,27.79c.67,6.26.72,12.58,1.61,18.79.77,5.42,1.21,10.87,2,16.28.62,4,1.32,7.94,1.66,11.94.41,4.86,2,9.47,2.65,14.26a122.49,122.49,0,0,0,2,12.64c.35,1.4.74,1.74,1.91,1.76l-6.44,1.91c-.76,0-.61-.61-.64-1-.47-10-2.63-19.77-3.45-29.69-.52-6.12-1.08-12.25-1.47-18.39-.66-10.47-1.16-21-2.12-31.41-1-11.1-2.24-22.17-3.58-33.22A3,3,0,0,1,190.57,47.27Z"/><path class="cls-40" d="M170.1,63.36V61.89a.45.45,0,0,1,.62.11.44.44,0,0,1,.07.19c.19,7.85-.38,15.7-.22,23.56a88.17,88.17,0,0,0-.7,10.65c0,6.74-.22,13.47-.71,20.16a153.55,153.55,0,0,1-2,22.14c-1.15,5.21-1.13,10.59-2.64,15.74a53,53,0,0,1-18,30.08,35.42,35.42,0,0,1-6.58,3.62,140.72,140.72,0,0,1-20.8,6.68,110,110,0,0,0-15.53,4.63c-1.63.71-2.9,2.52-5,1.84l-.44-1,10.1-4.38c6.13-1.76,12.12-4,18.21-5.87A45.86,45.86,0,0,0,157,165.13a116.31,116.31,0,0,0,7.7-29.71c1-6.4,1.69-12.83,2.27-19.27.52-5.72.85-11.46,1.12-17.19.29-6,.61-12,.92-17.95a63.61,63.61,0,0,1,.57-9.85C170.34,68.59,169.41,65.92,170.1,63.36Z"/><path class="cls-41" d="M170.1,173a26.6,26.6,0,0,1-4.94,11.12,63.89,63.89,0,0,1-4.3,5.42c-.92.9-1,2,.22,2.21a5.11,5.11,0,0,1,4.62,5,102.92,102.92,0,0,1-9.29,10.82c-.94.51-1.46-.18-1.69-.81a9,9,0,0,0-9.38-5.8c-7.66-.27-15.3-1.13-23-1a31.22,31.22,0,0,0-3.86.31,3.15,3.15,0,0,1-3-.53,44.82,44.82,0,0,1,12.52-1.6,101.5,101.5,0,0,0,20.22-1.52,19.34,19.34,0,0,0,12-8.72,39.56,39.56,0,0,1,3.42-4.32,25.43,25.43,0,0,0,4.77-8.31,3.45,3.45,0,0,1,1.62-2.34Z"/><path class="cls-42" d="M164.74,25.34a80.48,80.48,0,0,1-3.81,11.45c-2.06,6-4.09,12.08-6.5,18-2.64,6.47-4.94,13.09-7.92,19.44-2.6,5.53-4.68,11.31-7.2,16.89-3.12,6.9-6.16,13.87-9.77,20.52s-8,13-11.89,19.54a152.16,152.16,0,0,1-17.36,22.89,138.37,138.37,0,0,1-17.45,15.72c-.93.76-1.2,2.41-2.85,2.26l-1.08-.84c.24-2.46,2.49-3.35,3.81-5a98.72,98.72,0,0,0,14.87-12.82,152.18,152.18,0,0,0,15.86-20c3-3.94,5.3-8.35,8-12.52A294.74,294.74,0,0,0,138.69,88c5.7-12,10.69-24.37,15.4-36.82q4.47-11.83,8.75-23.75C163.17,26.52,163.27,25.28,164.74,25.34Z"/><path class="cls-43" d="M190.57,47.27c.52,5.22.79,10.48,1.64,15.64.7,4.24.67,8.51,1.25,12.75.68,5.12.63,10.33,1.19,15.44a21.74,21.74,0,0,0,1.09,8,13.54,13.54,0,0,1,.34,6.07c-.28,7.15,1,14.14,1.36,21.21.46,9.31,2,18.52,3.26,27.74a44.38,44.38,0,0,1,.58,9.63l-2.26,1a5.28,5.28,0,0,1-1.79-3.89c-.48-6.58-1.29-13.14-2-19.67-.44-4.21-.07-8.33-.25-12.48a43.83,43.83,0,0,1-.5-8.94,82.16,82.16,0,0,0-.11-15c-.2-9-.9-18-1.43-27,0-.28-.29-.55-.44-.82a6.86,6.86,0,0,1-1-4.39c-.18-6.64-1.19-13.19-1.66-19.8a46.86,46.86,0,0,0-.69-6,3.71,3.71,0,0,1,.18-2.6.74.74,0,0,1,.77-.34A9.13,9.13,0,0,0,190.57,47.27Z"/><path class="cls-44" d="M192,31.68a134.38,134.38,0,0,1,4.33,14.73c2.24,8.09,4.08,16.26,6,24.44,1.79,7.67,3.5,15.35,5.45,23,1.84,7.24,3.59,14.52,5.72,21.68,1.7,5.71,3,11.54,4.84,17.21a191.67,191.67,0,0,0,6.41,20.55,123.58,123.58,0,0,1,3.28,13.54,12.55,12.55,0,0,1-3.42-1.88,4.89,4.89,0,0,1-1.45-2.86,57,57,0,0,0-2.36-10.4c-1.42-3.35-1.75-7.07-3.36-10.37-2.48-8.58-4.36-17.35-7-25.88a9.52,9.52,0,0,1-.54-3.09,30.71,30.71,0,0,0-2-9,3.55,3.55,0,0,1-.22-.7,23.1,23.1,0,0,0-1.32-6.73,4,4,0,0,1-.18-.68,27.54,27.54,0,0,0-.81-3.34,5.17,5.17,0,0,1-.16-.68,20.06,20.06,0,0,0-1.27-6.12,3.28,3.28,0,0,1-.19-.68,10.09,10.09,0,0,0-.73-2.7,13.94,13.94,0,0,1-.52-2.94q-4.2-20.41-9.34-40.62a4.5,4.5,0,0,0-.63-1.56C192.42,34.92,191.25,33.4,192,31.68Z"/><path class="cls-45" d="M11.2,139.91a2.23,2.23,0,0,1,1.64-.95,40.28,40.28,0,0,0,18.93-9.17,55.38,55.38,0,0,0,11.67-13.41,1.71,1.71,0,0,0-.06-1.83,16.85,16.85,0,0,1,4.87-2,31.89,31.89,0,0,1-4.62,10.57,49.7,49.7,0,0,1-24,19.65c-.82.33-1.71.57-2.12,1.48Z"/><path class="cls-46" d="M98.55,201.29a133.65,133.65,0,0,1,27.51-8.88,64.48,64.48,0,0,0,19.34-7.92,38,38,0,0,0,12.25-14.13A97.18,97.18,0,0,0,162.26,159a64.77,64.77,0,0,0,3.54-17.58c.29-2.81,1.18-5.58,1.47-8.43.41-3.82.23-7.74.7-11.49.53-4.35.28-8.72.9-13a26.17,26.17,0,0,0,.23-5.08c-.27-5.28.58-10.51.52-15.77a1.46,1.46,0,0,1,.48-1.31c.79.82.49,1.85.47,2.79-.16,13-.45,26.07-1.3,39.08a156.09,156.09,0,0,1-1.8,18.81,75.58,75.58,0,0,1-9,27.57A33.25,33.25,0,0,1,148,185c-1,.61-1.88,1.29-2.81,1.94a44.33,44.33,0,0,1-20.24,7.61,2.29,2.29,0,0,0-1.12.45,44.93,44.93,0,0,0-11.23,2.41,35.62,35.62,0,0,0-12.13,4.45c-.48.3-.94.61-1.41.92Z"/><path class="cls-34" d="M92.22,188.12a60,60,0,0,1,7.83-5.52,69.14,69.14,0,0,0,11.81-9.41c1.79-1.91,4.09-3.28,5.86-5.31a72.61,72.61,0,0,0,6.16-7c1.84-2.72,4.25-5,6.05-7.82a115.57,115.57,0,0,0,7.83-13.5c2.18-4.63,4.48-9.19,6.31-13.95,1.44-3.75,2.79-7.57,4.17-11.34,1.51-4.12,3-8.24,4.32-12.44.44-.12.61,0,.48.48.87,1.91-.6,3.38-.94,5.06a81.34,81.34,0,0,1-4.6,14.11A258.33,258.33,0,0,1,137,145.18a96.15,96.15,0,0,1-18.13,24.53,94.79,94.79,0,0,1-20.43,15.36,58.38,58.38,0,0,0-5.74,4Z"/><path class="cls-47" d="M215.92,161.84c-.8-4.44-1.26-9-2.46-13.27-1.47-5.26-3-10.56-4.07-15.86-2.14-10.38-4.84-20.68-6.21-31.24-.88-6.86-2.2-13.66-3.43-20.48Q196.95,65.44,194,49.91A63.81,63.81,0,0,1,192,39.48a69.76,69.76,0,0,1,2.89,11.9c2,9.3,3.95,18.6,5.73,27.93,1.65,8.62,3,17.3,4.58,25.93,1,5.29,2.28,10.53,3.5,15.78,1.56,6.73,2.9,13.52,4.9,20.12a102.74,102.74,0,0,1,3.38,13,24.39,24.39,0,0,1,1.3,8.22,4.65,4.65,0,0,1-2.4-.56Z"/><path class="cls-48" d="M150.61,72.63a85.68,85.68,0,0,1-4.78,13.89c-1.64,4.18-3.39,8.31-5,12.5-1.24,3.12-2.81,6-4.32,9-.93,1.84-1.83,3.77-2.57,5.65a116.25,116.25,0,0,1-7.53,13.94,139.15,139.15,0,0,1-12.54,19.14c-3.41,4.27-6.73,8.63-10.42,12.65a120.51,120.51,0,0,1-14.23,12.67c-1.7,1.35-4.07,2.23-4.39,4.87l-2-2.46a4.75,4.75,0,0,1,2.45-2.9,58.74,58.74,0,0,0,13.93-11.54,238.34,238.34,0,0,0,15.62-18.26c1.49-1.79,2.34-4.07,3.89-5.86a10.25,10.25,0,0,0,2.39-3.33c2.57-4.21,5-8.5,7.51-12.75a400.23,400.23,0,0,0,17.88-38.66c1-2.2,1.57-4.58,2.58-6.79C149.38,73.68,149.36,72.6,150.61,72.63Z"/><path class="cls-49" d="M115.52,199.83c3.3-.05,6.56-.63,9.88-.52,5.48.18,10.94.45,16.39.94,2.06.18,4.16.36,6.2.41a7.36,7.36,0,0,1,7.13,5.69c.23.6.48,1.24,1.29,1.28a14.46,14.46,0,0,1-3.37,3.9,1.35,1.35,0,0,1-1.9-.17,1.44,1.44,0,0,1-.27-.52,10.92,10.92,0,0,0-9.61-6.39c-5.24-.48-10.3-2.13-15.5-2.51a51.9,51.9,0,0,0-14.44,1.1,49.59,49.59,0,0,0-9.48,2.79,1.31,1.31,0,0,1-1.38-.15l-.45-1a9.16,9.16,0,0,1,4.29-1.93,27.65,27.65,0,0,1,2.93-1.47h.49a23.55,23.55,0,0,1,5.85-1.46Z"/><path class="cls-50" d="M100.46,205.68c1.43-.56,2.84-1.15,4.28-1.68a63.12,63.12,0,0,1,15.66-2.79,46.48,46.48,0,0,1,14.41,1.71c2.67.57,5.42.39,8.11,1.12a22.27,22.27,0,0,1,4.57,1.9,7.61,7.61,0,0,1,3.77,4.48c.39,1.13,1,1.06,1.78,1.11-.78,1.51-2.34,2.22-3.46,3.41-.67.47-1.06,0-1.37-.47a17.35,17.35,0,0,0-14.48-8.06,20.71,20.71,0,0,1-5.11-1.51,40.06,40.06,0,0,0-13.51-.35,28.43,28.43,0,0,0-12.73,2.76,1.18,1.18,0,0,1-1.36-.17Z"/><path class="cls-51" d="M118.93,136.47a143.32,143.32,0,0,1-16.54,21.31,79.12,79.12,0,0,1-11.69,11,36.36,36.36,0,0,0-7.92,5.73l-1-.88A82.79,82.79,0,0,1,91.91,165a101.74,101.74,0,0,0,13-13.12,152.91,152.91,0,0,0,16-22.11c3.57-6,7.49-11.9,10.5-18.2,2.26-4.7,4.66-9.37,6.69-14.2a6.72,6.72,0,0,1,2.23-3.33c.56,1.66-.43,3-1,4.31-2.52,5.38-5,10.78-7.53,16.15-1.27,2.72-3.12,5.1-4.55,7.72Q123.31,129.48,118.93,136.47Z"/><path class="cls-52" d="M101,207.14a24.86,24.86,0,0,1,10.5-3.06,45.57,45.57,0,0,1,17.57.3,75,75,0,0,1,13.8,3.79,16.18,16.18,0,0,1,5.74,5.85c.25.46.4.85,1,.92-.44,1.54-2.14,1.78-3,2.92-1,.55-1.29-.34-1.59-.92a12.44,12.44,0,0,0-7-5.63,61.45,61.45,0,0,0-13.41-4.22,37.55,37.55,0,0,0-19.14.86c-1.17.44-2.34,1.21-3.72.71Z"/><path class="cls-53" d="M136.08,226.69a20.06,20.06,0,0,0-7.7-7,46.3,46.3,0,0,0-13.81-3.73,55.79,55.79,0,0,0-9.49.54l-.89-2a7.94,7.94,0,0,1,7-2.46,16.22,16.22,0,0,0,5.56,0,5.62,5.62,0,0,1,2.64.16,65.67,65.67,0,0,1,12.2,4.06,13,13,0,0,1,7,8.53,6.59,6.59,0,0,1-2.5,1.91Z"/><path class="cls-54" d="M143.34,220.91a9.65,9.65,0,0,1-2.86,2.38c-.94.21-1.06-.59-1.25-1.14a11.94,11.94,0,0,0-7-6.94A39.16,39.16,0,0,0,108,211.64c-1.52.3-2.85,1.74-4.58.86l-.9-2a1.73,1.73,0,0,1,1.39-1.72,33,33,0,0,1,17.69-1,52.79,52.79,0,0,1,14.36,4.37,16.18,16.18,0,0,1,7,6.21C143.29,219.2,143.87,220,143.34,220.91Z"/><path class="cls-55" d="M143.34,220.91a13.23,13.23,0,0,0-5.09-6.56,44,44,0,0,0-16-5.74,30.91,30.91,0,0,0-15.17,0c-1.54.43-3.48.21-4.55,1.87a2.62,2.62,0,0,1-.74-1.86,40,40,0,0,1,17.58-2.8,50.44,50.44,0,0,1,12.62,2.5A30.28,30.28,0,0,1,144,214c1.27,1.1,1.06,3.07,2.64,3.85A9.11,9.11,0,0,1,143.34,220.91Z"/><path class="cls-56" d="M155,138.42a41.83,41.83,0,0,1-4.43,14.16,73.83,73.83,0,0,1-8.48,14.59,51.43,51.43,0,0,1-10.31,10.16,84.77,84.77,0,0,1-20.84,12c-4.36,1.82-8.5,4.17-12.73,6.3a2.25,2.25,0,0,0-1.27,1.94,3.62,3.62,0,0,1-1-2.11,26.44,26.44,0,0,1,6.85-3.9,118.86,118.86,0,0,1,11.19-6,35.21,35.21,0,0,1,7.18-3.85,4.44,4.44,0,0,0,2.23-.88,77.73,77.73,0,0,0,16.7-14.31,72.69,72.69,0,0,0,10.26-17.82c1.29-3.05,2-6.3,3.5-9.27C154.13,139,154.18,138.28,155,138.42Z"/><path class="cls-57" d="M103.37,212.5a31.16,31.16,0,0,1,21.45-.78A26,26,0,0,1,138,218.4c1.27,1.45,1.46,3.37,2.48,4.89a4,4,0,0,1-1.89,1.49c-1.55-1.28-1.86-3.33-3.13-4.81a21.8,21.8,0,0,0-10-5.48,47.3,47.3,0,0,0-4.66-1.29,7.58,7.58,0,0,0-5-.3,3.75,3.75,0,0,1-2.41,0,12.39,12.39,0,0,0-9.19,1.54A3.56,3.56,0,0,1,103.37,212.5Z"/><path class="cls-58" d="M82.86,166.69l-4,4.51c-.38-.08-.81-.06-1-.55-.68-1.44.56-2.06,1.27-2.83,5.94-6.53,11.81-13.12,17.15-20.15a47.48,47.48,0,0,0,3.51-4.94,15.57,15.57,0,0,1,1.49-2.64c.88-1.25,1.68-2.55,2.59-3.78a18.18,18.18,0,0,0,1.82-2.61,6,6,0,0,1,.36-.52,10,10,0,0,0,1.73-2.56,6.78,6.78,0,0,1,.54-.78,7.08,7.08,0,0,1,1.2-1.48,3.28,3.28,0,0,0,1.47-2.38,15.37,15.37,0,0,1,2.62-4.41,90.88,90.88,0,0,0,9.14-14.65c.69-.54.77-1.82,2-1.69.77,1.22,0,2.21-.53,3.16-6.52,11.22-13.08,22.42-20.69,33a267.25,267.25,0,0,1-17.76,22.51,18.35,18.35,0,0,1-3,2.83Z"/><path class="cls-59" d="M85.24,177.43c2.73-.7,4.19-3.14,6.29-4.71a86.29,86.29,0,0,0,12.74-11.26c2.7-3,5.65-5.77,8.15-9a139.15,139.15,0,0,1,10.41-13.52,3.19,3.19,0,0,1-.42,2.09c-3.82,4.74-7,9.93-10.9,14.66-4.93,5.94-11.05,10.55-16.11,16.28A6.09,6.09,0,0,1,93,173.5c-.74.29-1.74.59-2.06,1.18a8,8,0,0,1-4.84,3.79Z"/><path class="cls-60" d="M73.62,168.59a24.73,24.73,0,0,0-6.37-.46c.19-1.62,1.62-1.88,2.72-2.5a16.22,16.22,0,0,0,5-3.35c4.21-3.4,8.13-7.12,12.14-10.75.48-.43,1-1,1.62-.36s.08,1.2-.31,1.71a66.73,66.73,0,0,0-4.56,5.63A58.44,58.44,0,0,1,73.62,168.59Z"/><path class="cls-61" d="M108.71,130.14l-.49.5c-.68,1-1.22,2-2,2.91a17.92,17.92,0,0,0-1.94,2.93l-2.46,3.87a6,6,0,0,0-2.17,3.09c-1,1.16-1.88,2.44-2.93,3.58-2.09,2.17-3.83,4.63-5.71,7a6.44,6.44,0,0,1-.61.77,18.17,18.17,0,0,0-2.75,3.06,3.75,3.75,0,0,1-.38.51,25.76,25.76,0,0,0-3.18,3.58,6,6,0,0,1-.63.78,47.92,47.92,0,0,1-7.45,6.85l-1-.47c-.25-.76.25-1.24.69-1.68a211.58,211.58,0,0,0,21.91-24.91c2.69-3.3,5.14-6.77,7.5-10.31.66-1,1.2-2.13,2.55-2.4A1.16,1.16,0,0,1,108.71,130.14Z"/><path class="cls-62" d="M217.87,141.35a16.31,16.31,0,0,1,2.49,6.91,11.42,11.42,0,0,0,1.23,3.85,40.1,40.1,0,0,1,2.2,10.84,8.79,8.79,0,0,0,.84,2,6.1,6.1,0,0,1-2.38-1.17,21.36,21.36,0,0,1-1.62-8.16c-.44-4.19-2.67-7.7-3.32-11.72a34.86,34.86,0,0,1-.9-5c1.61.13.69,1.79,1.47,2.44Z"/><path class="cls-63" d="M98,142.81A177.54,177.54,0,0,1,76.86,167.1c-.63.62-1.19,1.31-1.78,2l-1.46-.48,9.73-10.18c4.48-5,8.64-10.26,12.78-15.54.47-.61.92-1.41,2-1a.79.79,0,0,1-.11,1Z"/><path class="cls-64" d="M83.34,162.3l.49-.49c1-1.45,2.49-2.41,3.42-3.89.8-1.29,2.14-2.11,2.92-3.42l.48-.49c2.09-2.33,3.95-4.83,5.86-7.31l2.91-3.41c.28-.26.42-.79,1-.48a70.51,70.51,0,0,1-7.23,9.86q-6.92,8.54-14.5,16.49a2.23,2.23,0,0,0-.72,1.49L77,170c-.66-1,.36-1.43.84-2C79.63,166.09,81.76,164.46,83.34,162.3Z"/><path class="cls-65" d="M176.93,9.26a9.8,9.8,0,0,1,4.38-5.75c.38-.27.89-.32,1-.9a10.11,10.11,0,0,1,4,4.19,12.74,12.74,0,0,0-5.63,0c-.74.14-1.4.24-1.76,1a1.45,1.45,0,0,1-.38.83C178,9,177.68,9.6,176.93,9.26Z"/><path class="cls-66" d="M83.34,162.3c-.37,1.84-2.13,2.55-3.14,3.88S77.47,168.25,77,170l-1-.5A74.36,74.36,0,0,1,83.34,162.3Z"/><path class="cls-67" d="M70.15,166.19a5.44,5.44,0,0,0-2.9,1.94.61.61,0,0,1-.4.07c-.38-.07-1,0-1.1-.26-.24-.43.27-.63.6-.81a5,5,0,0,0,2.41-1.89.87.87,0,0,1,.95-.69,1.73,1.73,0,0,1,1.08.66C70.92,165.76,70.5,166,70.15,166.19Z"/><path class="cls-68" d="M170.56,2.9a108.69,108.69,0,0,0-8.66,17.25,16.11,16.11,0,0,0-2.5,6.21l-1.5,3.84c-.59.93-.69,2.11-1.41,3,0,.38,0,.76-.41,1-.67.55-.44,1.44-.75,2.13-.74,1.17-.82,2.64-1.77,3.71L153,41.89c-1.4,2.17-2,4.72-3.36,6.91l-.05.9c-2.52,4.94-4.4,10.19-6.88,15.16a15.66,15.66,0,0,0-1.88,4.39,9.4,9.4,0,0,1-1.89,4,4.67,4.67,0,0,1-.51.36,2.66,2.66,0,0,0-1.09,1.4,5.85,5.85,0,0,1-.28.56,48.31,48.31,0,0,0-2.62,5.6,3.92,3.92,0,0,1-.29.58,57.58,57.58,0,0,0-3.25,6.17c-.25.4-.49.81-1,.92-1.38-1-.39-2,0-3a63.19,63.19,0,0,0,4-8.81,3.28,3.28,0,0,1,.61-1.26,5.27,5.27,0,0,0,1.37-3,16.12,16.12,0,0,1,1.69-4.28c3.64-7.67,7.09-15.42,10-23.42,1.37-3.84,3.05-7.58,4.46-11.41a60.33,60.33,0,0,0,3.07-8.13c1.15-3.28,2.47-6.48,3.75-9.69A39.92,39.92,0,0,1,170.62,1.62a.88.88,0,0,1,0,1.24l-.05.05Z"/><path class="cls-69" d="M139.84,45.2c2.62-3.77,5.17-7.59,7.94-11.25.44-.58.44-1.51,1.26-1.82,1.91-.39,1.55.91,1.27,1.87a30.77,30.77,0,0,0-1.1,4.45,5.33,5.33,0,0,1-.22.71A19.48,19.48,0,0,0,147.32,45a37.62,37.62,0,0,1-3,8.74,17.83,17.83,0,0,1-6.78,6.09,106.08,106.08,0,0,0-13.68,10.47,146,146,0,0,1-12.7,10.16,5.72,5.72,0,0,1-.57.39c-3.08,1.5-5.72,3.74-8.86,5.14a2.44,2.44,0,0,1-.7.2c-.5,0-1,0-1.24-.54.14-1.2,1.2-1.47,2-1.89a67.83,67.83,0,0,0,9-5.84c.88-.65,1.9-1.23,2.14-2.5-.87-.6-1.56,0-2.28.25a40.48,40.48,0,0,1-10.23,1.93c-.91,0-2.21.47-2.49-1.1,3.43-1,7-1.16,10.41-2.32a42,42,0,0,0,12.4-7,125,125,0,0,0,12.2-12.48c.29-.29.52-.62,1-.66,1,1,.32,1.76-.27,2.52-1,1.28-1.84,2.64-3.1,4a26.66,26.66,0,0,0,16-21.85,63.64,63.64,0,0,0-5.18,7.14c-.51.69-.82,1.89-2.15,1.36C138.89,46.34,139.69,45.87,139.84,45.2Z"/><path class="cls-70" d="M77.41,98.9a2.73,2.73,0,0,1,1.08-1.42A72.45,72.45,0,0,1,87,97a105.77,105.77,0,0,0,28.57-7.49,38.29,38.29,0,0,1,10.5-3.6c1.31-.08,2.68-.22,3.06,1.57-.31,1.55-.53,3.15-2.23,3.91A64.85,64.85,0,0,0,108.32,96,76.47,76.47,0,0,1,92,99.58a66.92,66.92,0,0,1-10.3.47c1.6,2.61,3.37,4.66,4.91,6.89s4,4,4.76,6.87c-.46.77-1.09.34-1.67.22a2.72,2.72,0,0,1-.89-.61A127.39,127.39,0,0,1,78.5,101a3.76,3.76,0,0,1-1.09-2.09Z"/><path class="cls-71" d="M128.68,87.74c0-1.36-1-1.37-1.84-1.3a25.78,25.78,0,0,0-9.52,3.07A39.35,39.35,0,0,1,110.8,92a91.31,91.31,0,0,1-23.19,5.53,26.6,26.6,0,0,1-9.12-.07l1.07-1.43c4.57-.47,9.18-.64,13.7-1.55A81.92,81.92,0,0,0,114,87.28a88.57,88.57,0,0,1,11.56-5.06c1.84-.61,4-1.86,5.78.39a8,8,0,0,1-2.69,5.14Z"/><path class="cls-72" d="M143.79,53.62a27.54,27.54,0,0,0,2.92-8.78c.4-.29.11-1.23,1-1.05.48.41,0,1.11.44,1.52A215.61,215.61,0,0,1,138,68.78a39.27,39.27,0,0,0-18.79,10A74.07,74.07,0,0,1,90.06,92c-2.38.4-4.85,1.6-7.29.07.31-.52.44-1.16,1-1.48a52.62,52.62,0,0,0,26.07-8.87A175.46,175.46,0,0,0,126.45,69.9a74,74,0,0,1,8-5.33,4.12,4.12,0,0,1,2.28-.73,3.32,3.32,0,0,0,3.46-2.74C141.15,58.48,142.63,56.13,143.79,53.62Z"/><path class="cls-73" d="M134.94,76a1,1,0,0,0-.44.94.53.53,0,0,1-.63.11c-1.84-1.6-3.67-.51-5.39.16a96.6,96.6,0,0,0-12.57,7.11,84.57,84.57,0,0,1-21.43,9,87.47,87.47,0,0,1-11,1.64,1.88,1.88,0,0,1-2.23-1l.71-.88c3.7-.74,7.46-1,11.15-1.83a67.84,67.84,0,0,0,18.52-7.62c5.09-2.88,9.87-6.24,14.7-9.49a17.43,17.43,0,0,1,7.14-3c1.36-.2,2.69-.13,2.79,1.76A16.09,16.09,0,0,1,134.94,76Z"/><path class="cls-74" d="M131.14,82.9c-2.17-2-4.39-.51-6.28.26-5.27,2.17-10.31,4.91-15.59,7A68.42,68.42,0,0,1,86.7,96c-2.38.11-4.75,1.15-7.14,0a1.54,1.54,0,0,1,.83-1,68.17,68.17,0,0,0,26.23-5.85c5.9-2.64,11.53-5.85,17.31-8.76a18,18,0,0,1,6.6-2.24,2,2,0,0,1,2.35,1.23A3.63,3.63,0,0,1,131.14,82.9Z"/><path class="cls-75" d="M136,73.11c-.2-1.67-1.4-1.59-2.54-1.35A20.19,20.19,0,0,0,126,75.08a154.48,154.48,0,0,1-16.08,10.18,63.42,63.42,0,0,1-25.62,7.9c-.79,0-1.59,0-2.38-.06a1.55,1.55,0,0,1,.85-1,48.77,48.77,0,0,0,18.13-3.84,107.7,107.7,0,0,0,22.57-13.38,39.91,39.91,0,0,1,10.15-6,12.34,12.34,0,0,1,4.37-.06c-.25,1.53-1.56,2.66-1.54,4.27C136.33,73.32,136.17,73.34,136,73.11Z"/><path class="cls-76" d="M97.92,76.48a6.19,6.19,0,0,0,4.68.34,48.83,48.83,0,0,0,9.54-2.32c.57-.21,1.28-.74,1.73,0s0,1.4-.52,1.95a55.45,55.45,0,0,1-9.39,6.8,14.88,14.88,0,0,0-4,2.49,4.89,4.89,0,0,1-3,1.88,49.46,49.46,0,0,1-9,2.39c-1.06.12-2.1.34-2.69-.9l.71-.91a12,12,0,0,1,3.92-1.11,42.88,42.88,0,0,0,13.4-5.95,5.15,5.15,0,0,0,1.07-1c.38-.41.88-.83.59-1.45s-.94-.61-1.5-.54a12.08,12.08,0,0,1-4.79.16C98,78.08,97.1,78.1,97,77.11Z"/><path class="cls-77" d="M132.57,79.45c-1.2-1.27-2.56-.76-3.88-.32a96.76,96.76,0,0,0-13.88,6.77,77.19,77.19,0,0,1-26.32,9,21.28,21.28,0,0,1-8.11.14l.83-1c2.21,1.14,4.46.13,6.61-.1a70.28,70.28,0,0,0,26.82-9.58,7.55,7.55,0,0,1,1.36-.47,121.41,121.41,0,0,1,12.82-6.63,7.82,7.82,0,0,1,2.82-.55c1.45,0,2.13.59,1.76,2.1A1.1,1.1,0,0,1,132.57,79.45Z"/><path class="cls-78" d="M134,54.1a95.55,95.55,0,0,1-13.66,14.2,35.58,35.58,0,0,1-22.46,8.19,4,4,0,0,1,2-1.39,38.65,38.65,0,0,0,21.15-9.54,21.56,21.56,0,0,0,5.16-4.74A161.62,161.62,0,0,0,139.84,45.2l-.44,2.07A11.72,11.72,0,0,1,134,54.1Z"/><path class="cls-79" d="M87.21,87.23A39.69,39.69,0,0,1,96,78a5.5,5.5,0,0,1,1.76.1,3.74,3.74,0,0,0,1.61.39c.91,0,1.79.1,2.2,1.06s-.14,1.83-.8,2.56a8.64,8.64,0,0,1-.69.66,2.87,2.87,0,0,1-.57.39,12.75,12.75,0,0,0-3.43,2,4.13,4.13,0,0,1-1.26.58c-2.13.43-4.17,1.18-6.25,1.78a1.17,1.17,0,0,1-1.38-.3Z"/><path class="cls-80" d="M126.73,70.19a73.53,73.53,0,0,1-11.9,9.1A65.35,65.35,0,0,1,93.2,89.87,43.67,43.67,0,0,1,87.52,91c-1.21.15-2.59.59-3.71-.44l.48-.46a40.21,40.21,0,0,0,14.82-3.59,12.14,12.14,0,0,0,2.27-.77,48.47,48.47,0,0,0,9.26-5.35,93.25,93.25,0,0,0,11.45-8.5c1.14-.88,2.09-2.07,3.67-2.2A1.29,1.29,0,0,1,126.73,70.19Z"/><path class="cls-72" d="M158.84,15.89a57.71,57.71,0,0,1-3.73,11.46,25.49,25.49,0,0,1-2.59,6.71c-.9-2.15,1.08-3.72,1.16-5.61.08-.37-.52-.19-.19-.16.14,0,.22.06.19.14C152.13,32.6,151,36.91,149.29,41c-.22.51,0,1.66-1.24,1.37a4.68,4.68,0,0,1,.61-3.37c1.05-3.92,2.34-7.78,3.42-11.68,2.28-3.8,4.2-7.81,6.76-11.44Z"/><path class="cls-81" d="M126.23,60.82c-.9,3-3.7,4.2-5.77,5.91a37.29,37.29,0,0,1-17.79,8.64c-.94.15-1.9.48-2.75-.27a6.36,6.36,0,0,1,2.45-1.42A47.31,47.31,0,0,0,113,70,76,76,0,0,0,126.23,60.82Z"/><path class="cls-82" d="M77.41,98.9c4.07,4.62,7.46,9.78,11.77,14.2a1.11,1.11,0,0,1-1.55-.16,45,45,0,0,1-8.17-7.54,30.44,30.44,0,0,1-3.57-4.58,4.31,4.31,0,0,1,1.52-1.91Z"/><path class="cls-83" d="M87.21,87.23l1.5,0c2.1-.69,4.23-1.28,6.34-2l1-.48c1.1-.74,2.29-1.29,3.41-2,1.11-.87,3-1.52,2.8-3-.31-1.89-2.71-.59-3.86-1.55l.09-.33a16.32,16.32,0,0,0,4.57-.39,2.29,2.29,0,0,1,2.84.81c.75,1.26-.53,1.81-1.18,2.3a34.57,34.57,0,0,1-18.77,7.54C86.13,87.61,86.44,87.12,87.21,87.23Z"/><path class="cls-84" d="M75.89,100.82a10.05,10.05,0,0,1,3.08,3,36.44,36.44,0,0,0,10.21,9.27l.49.48c.86.85,2.61,1.06,2.07,2.91-.74.36-1.22-.17-1.71-.56-2.8-2.3-5.65-4.54-8.41-6.9-1.55-1.85-3.74-3-5.29-4.86-.66-.77-1.58-1.44-1.22-2.67Z"/><path class="cls-85" d="M101.38,85.78a34,34,0,0,1-12.9,4.36c-1.37.31-2.8,1-4.19,0l.92-1A7.73,7.73,0,0,0,91,88.74c3-.8,5.93-2,8.89-3Z"/><path class="cls-86" d="M76.53,106.73c-1-2-3.77-1.83-4.84-3.77l2.43-1c2.42,2.27,4.82,4.57,7.41,6.66.28.55,1.28.76.81,1.68-1.33.39-2.17-.54-3.14-1.12-.73-1-2-1.36-2.67-2.42Z"/><path class="cls-87" d="M152.08,27.32a2,2,0,0,1,.11,1.81A88.47,88.47,0,0,1,148.66,39a11.26,11.26,0,0,1,1.1-5.14c.39-.86.53-1.56-.72-1.73A28.27,28.27,0,0,1,152.08,27.32Z"/><path class="cls-88" d="M113,70a16.35,16.35,0,0,1-10.67,3.7A39.6,39.6,0,0,1,113,70Z"/><path class="cls-89" d="M81.39,108.7A24.53,24.53,0,0,1,74.12,102l1-.45a15.2,15.2,0,0,0,4.66,5,20.09,20.09,0,0,1,2.13,2.2.28.28,0,0,1-.39.13A.25.25,0,0,1,81.39,108.7Z"/><path class="cls-83" d="M97.48,78.47c-.53,0-1.11.09-1.46-.49l1-.87,1.42.87C98.24,78.37,97.75,78.19,97.48,78.47Z"/><path class="cls-1" d="M170.56,2.9l.06-1.28L172,.83c-.27.84-.5,1.69-1.43,2.08Z"/><path class="cls-90" d="M82.86,166.69q9.42-10.75,18-22.24a230.33,230.33,0,0,0,14-21.23c2.84-4.8,5.71-9.58,8.56-14.38a6.45,6.45,0,0,0,1.39-3.56c-.38-.74.12-1.2.48-1.71a5.37,5.37,0,0,0,1-1.49,3.36,3.36,0,0,1,.32-.51,6.15,6.15,0,0,0,.79-1.63,4.63,4.63,0,0,1,.31-.58,105.8,105.8,0,0,0,4.89-9.54,5,5,0,0,1,.34-.59,66.65,66.65,0,0,0,4.56-10c3.2-6.46,5.72-13.23,9.24-19.52.39-.7.64-1.47,1-2.21.6-1.49,1.4-2.87,1.95-4.39.49-1.13,1-2.25,1.47-3.4,1.25-2.55,2.33-5.18,3.41-7.8A62.22,62.22,0,0,0,157,36.07Q162.4,22.84,168.6,9.94a21.13,21.13,0,0,1,4-6c-3.23,6.92-5.17,14.3-7.81,21.43-1.57,1.16-1.68,3.11-2.24,4.7-4.05,11.4-8.22,22.75-12.74,34-3.23,8-6.52,16-10.26,23.74-2.67,5.54-5.08,11.21-8,16.63a194.87,194.87,0,0,1-10.19,17.89c-3.35,4.91-6.12,10.25-9.8,14.93-4,5-7.49,10.45-12,15.17-3.82,4-8.26,7.34-12,11.39a21,21,0,0,1-4.66,2.92Z"/><path class="cls-91" d="M125.75,103.81l-1,1.47-1.47,1.94a1.46,1.46,0,0,1-.44-.93c0-1.36,1-2.3,1.53-3.45a4.53,4.53,0,0,0,.6-2.52,2.23,2.23,0,0,1,1-1.73c1.76-.91,2-2.79,2.83-4.34,3.7-6.89,6.88-14,10.4-21,1.48-2.94,2.67-6,4.08-9,.63-1.35.88-3,2.44-3.75l1.94-2.92a67,67,0,0,1-4.4,10.63c-1.59,3.85-3.55,7.55-5.35,11.3-1.45,3.5-3.41,6.76-4.87,10.24-1.88,3.36-3.45,6.89-5.36,10.23a10.21,10.21,0,0,1-1,2A6.69,6.69,0,0,0,125.75,103.81Z"/><path class="cls-92" d="M145.74,60.44,131.69,89.92c-.75,1.58-1.68,3.09-2.52,4.64a.49.49,0,0,1-.64,0c-.6-1,.12-1.84.54-2.68,2.53-4.94,5.12-9.85,7.4-14.92a2.5,2.5,0,0,1,.27-.63c.91-.86.88-2.24,1.73-3.15a17.39,17.39,0,0,0,1.94-3.91,18,18,0,0,1,1.77-3.67c.88-1.69,1.58-3.46,2.45-5.15.24-.46.28-1.16,1.09-1Z"/><path class="cls-93" d="M145.72,59.46c-1.64,1.84-1.95,4.4-3.38,6.35a.68.68,0,0,1,0-1l0,0c2.14-4.77,4.28-9.56,6.45-14.32.15-.33.57-.54.85-.8A64.7,64.7,0,0,1,145.72,59.46Zm4-10.66A12,12,0,0,1,153,41.9,12.4,12.4,0,0,1,149.68,48.8Z"/><path class="cls-91" d="M154.51,41.92a20.33,20.33,0,0,1-3.42,7.79A26.09,26.09,0,0,1,154.51,41.92Z"/><path class="cls-93" d="M153.56,40A10.48,10.48,0,0,1,155,36.07c.25-.27.38-.77.93-.5C155.23,37.1,155.39,39.09,153.56,40Z"/><path class="cls-91" d="M157,36.07a11.49,11.49,0,0,1-2.44,5.85A15.73,15.73,0,0,1,157,36.07Z"/><path class="cls-93" d="M156.49,33.18a3,3,0,0,1,1.41-3C158,31.44,158,32.68,156.49,33.18Z"/><path class="cls-91" d="M149.63,53.12a7.73,7.73,0,0,1-1.95,4.39A7.86,7.86,0,0,1,149.63,53.12Zm1.46-3.41a4.86,4.86,0,0,1-1.46,3.41,5,5,0,0,1,1.47-3.41Z"/><path class="cls-94" d="M155.94,35.57l-.93.5a2.1,2.1,0,0,1,1.07-1.9Z"/><path class="cls-95" d="M189.6,43.87c.62,5.83,1.22,11.65,1.86,17.48.23,2.16.3,4.35.44,6.5.19,3.05.65,6.09.62,9.16.09,4.19.1,8.36.39,12.56a92.46,92.46,0,0,1-.39,12.23c-.15,2.24.71,4.3.61,6.58-.23,5.82.05,11.67-.52,17.5a61,61,0,0,1-.56,9c-.12.46,0,1-.21,1.41-.7,1.22-1.17,3.39-2.42,3.23s-2.17-2-2.66-3.49c-2.38-7.09-4.26-14.31-6-21.58a83.56,83.56,0,0,1-2.48-13c-.33-4.13-1.42-8.13-1.72-12.28-.39-5.43-1.31-10.92-1.95-16.38-.2-1.66.47-3.41-.55-5,.08-8-.84-15.91-.5-23.88-.11-1.52-.9-3.1.44-4.48.88.74.75,1.76.71,2.72A185.15,185.15,0,0,0,175.29,64a175.07,175.07,0,0,0,6.24,37.56,28.94,28.94,0,0,0,2.31,7.14,9.2,9.2,0,0,0,1,1.63c1.49,1.57,2.59,1.41,3.46-.6a19.83,19.83,0,0,0,1.43-6.39,184.46,184.46,0,0,0,1.06-24.76c-.51-9-.65-18.09-1.75-27.09a22,22,0,0,1-.44-7,1.46,1.46,0,0,1,.53-.67Z"/><path class="cls-96" d="M192,31.68l.48,4.87c-1.29-4.2-2.62-8.39-3.86-12.61a6.62,6.62,0,0,0-1.5-3c-1-.33-1.12-1.24-1.47-2a36.78,36.78,0,0,0-3.52-6.54c-.86-1.22-1.92-2-3.47-1.16-.68.23-1,1.52-2,.74.2-2.45,1.52-3.59,3.66-3.18,4.11,2.1,5.34,6.3,7.12,10A83.24,83.24,0,0,1,192,31.68Z"/><path class="cls-97" d="M180.34,8.77a3.48,3.48,0,0,0-3.41,3.41,32.76,32.76,0,0,1-2.28,9.24.67.67,0,0,1-.73.07A1.58,1.58,0,0,1,174,20a25.71,25.71,0,0,1,2.94-10.71l1.47-1a1.92,1.92,0,0,1,1.94,0Z"/><path class="cls-2" d="M180.34,8.29h-2l.48-.5c.82.13,1.76-.32,2.44.5Z"/><path class="cls-98" d="M123.8,195c1.45-1.69,3.67-1.33,5.49-1.83a60.4,60.4,0,0,0,17.28-7.85,96.13,96.13,0,0,0,8.42-6.79,26,26,0,0,0,4.83-7.71,56.55,56.55,0,0,0,5.83-18c.77-3.82,1.29-7.78,1.74-11.7.68-5.92,1-11.87,1.52-17.8q.57-6.5.62-13a111.57,111.57,0,0,1,.4-12.8,92.67,92.67,0,0,0,.17-11.18c-.36-8.13.67-16.24.49-24.37a6.81,6.81,0,0,1,0-3.9c.24-6.68,1.44-13.29,1.47-20l-.06-.35c-.09-.92,0-1.85-.05-2.77a7.22,7.22,0,0,1,.19-1.47c.31-2.47.66-4.94,1.19-7.37a2.57,2.57,0,0,1,.74-1.71.52.52,0,0,1,.7.24,5.25,5.25,0,0,1,.18,3.32c-.5,3.1-.77,6.22-1.23,9.32-.12.8,0,1.63-.69,2.25a23.4,23.4,0,0,0-.81,8.24c-.24,4.55-.83,9.11-.65,13.69-.84.81-.47,1.84-.47,2.77,0,10.65,0,21.28,0,31.92q-.06,11.36-.5,22.72c-.33,7.58-.69,15.17-1.5,22.71a106.31,106.31,0,0,1-6.41,28.7,33.49,33.49,0,0,1-12.89,16,54.27,54.27,0,0,1-10.48,6A33.62,33.62,0,0,1,123.8,195Z"/><path class="cls-30" d="M173,39.48a58.44,58.44,0,0,1,1.46-11.71,1.64,1.64,0,0,1,.51.73,30.37,30.37,0,0,1-1,11c-1,1.37-.26,2.94-.49,4.39H173Z"/><path class="cls-41" d="M113.57,199.83a19.8,19.8,0,0,1-5.85,1.47c1.62-1.77,3.78-1.42,5.85-1.47Zm-6.35,1.46c-.77.89-1.57,1.72-2.92,1.47a2.57,2.57,0,0,1,2.93-1.47Z"/><path class="cls-99" d="M174,20l0,1.48c1.29,1.79-.52,3.31-.49,5a19,19,0,0,1-.81,4.22c-.34,4.66-1.79,9.16-2,13.84a2.27,2.27,0,0,1-.66,1.78A48.65,48.65,0,0,0,168.67,56c-.86,6.12-1.59,12.27-2.33,18.41-.57,4.79-1,9.6-1.61,14.39-.64,5.1-1.37,10.2-2.11,15.29-.54,3.73-1,7.48-1.81,11.17-1.6,7.38-2.84,14.83-4.89,22.12a1.61,1.61,0,0,1-.92,1c-2.34,5.59-4.08,11.42-6.84,16.84a58.8,58.8,0,0,1-18.9,22.11c-1.92,1.33-3.81,2.71-5.7,4.08a3,3,0,0,1-2.2.84c-.13-1.47,1.14-1.87,2-2.49a73.47,73.47,0,0,0,10.5-8.27A73.83,73.83,0,0,0,147.62,151a150.52,150.52,0,0,0,8.83-27c2.57-9.94,4.27-20,5.93-30.17,1.25-7.66,2.35-15.34,3.47-23,.66-4.59,1.51-9.18,1.82-13.82L171,34.84a17.79,17.79,0,0,0,.05-2.19A75.64,75.64,0,0,1,174,20Z"/><path class="cls-100" d="M76.53,106.73a4.92,4.92,0,0,1,2.91,2A101.2,101.2,0,0,1,77,159a1.94,1.94,0,0,1-.67.86c-1.4-.27-1.44.94-1.88,1.72a8,8,0,0,1-4.75,3.22l-1,.44c-.8-1-.11-2.07.25-2.89a94.91,94.91,0,0,0,6.75-22.16,26.89,26.89,0,0,0,.53-9.83,28.51,28.51,0,0,1,.68-5.44,76,76,0,0,0-.83-16.16C76,108.05,75.84,107.3,76.53,106.73Z"/><path class="cls-101" d="M167.67,57a119.55,119.55,0,0,1-1.75,15.1q-.87,8.28-2.17,16.51c-.78,5.17-1.85,10.3-2.56,15.49-.78,5.81-2.13,11.52-3.35,17.24-1.1,5.19-2.81,10.24-4.16,15.37a89.87,89.87,0,0,1-9.11,21.77,55.8,55.8,0,0,1-19.25,20.65,14.13,14.13,0,0,0-4,3.13,63.62,63.62,0,0,0-8.4,4.45c-3.39,1.53-6.62,3.44-10.12,4.81.11-1.09,1.06-1.43,1.8-1.8a154.62,154.62,0,0,0,17.93-10.3,61.82,61.82,0,0,0,15.33-14.06,81.66,81.66,0,0,0,8.85-14.93,136.82,136.82,0,0,0,6.79-19.17c1.32-4.87,3.2-9.63,4.12-14.57,1.43-7.59,3.3-15.1,4.23-22.79s2.38-15.12,3.54-22.68c.64-4.21,1.17-8.45,1.74-12.67C167.25,58,167.13,57.42,167.67,57Z"/><path class="cls-102" d="M191.06,41.92a96,96,0,0,1,2.88,13.63c1.3,7.22,2.31,14.48,3.47,21.71,1,6.43,2.33,12.84,3.11,19.3.83,6.73,2.18,13.36,3.26,20,1,6.19,2.37,12.34,3.65,18.49a244.68,244.68,0,0,1,5.1,24.84,7.36,7.36,0,0,0,.46,1.37c-2.19-.41-2-2.48-2.27-3.84-2.41-12-5.46-24-7.37-36.11-1.7-10.81-3.63-21.58-5.06-32.43q-1.84-13.75-4.1-27.45C193.14,55,191.55,48.51,191.06,41.92Z"/><path class="cls-103" d="M174.49,28.28V24.37a35.13,35.13,0,0,1,2.32-10.8,3.66,3.66,0,0,1,2.77-2.77,2,2,0,0,1,.73.11,10.09,10.09,0,0,1,2.38,2.18c.64,1.44,2.21,2.57,1.55,4.46-.05,1.69,1.22,3.13,1,4.87l-.33.07c-1.12-.76-1.13-2.08-1.56-3.17a18.89,18.89,0,0,0-1.89-3.92c-.49-.74-1-1.54-2.06-1.45s-1.22,1.14-1.61,1.9a5.32,5.32,0,0,0-.27,1.43c-.34,1.5-.75,3-1.08,4.48a13.14,13.14,0,0,0-.47,2.78,4.27,4.27,0,0,1-.15.71C175.26,26.22,176.21,27.82,174.49,28.28Zm15.6,15.59h-.49c-1.23-1.42-.89-3.3-1.49-4.91-1.28-4.71-1.91-9.57-3.22-14.28a2.18,2.18,0,0,1,.32-2.26,28.44,28.44,0,0,1,2.6,8.68A69.07,69.07,0,0,1,190.09,43.87Z"/><path class="cls-38" d="M184.24,17.55a22.68,22.68,0,0,0-2-4.39,5.6,5.6,0,0,0-1.95-1.95c-.54-.59-1.41.11-2-.49,1.88-1.22,3.17-.29,4.24,1.21a52.59,52.59,0,0,1,4.53,9v1.46c-.16.23-.33.23-.49,0C185.22,21.12,185.69,18.85,184.24,17.55Z"/><path class="cls-98" d="M186.67,22.42h.49v2.44C186.35,24.18,186.79,23.24,186.67,22.42Z"/><path class="cls-104" d="M118.93,136.47a56.51,56.51,0,0,1,4.47-8.42c2.69-5.71,6.69-10.67,9.17-16.5a177.45,177.45,0,0,0,7.8-17.49c2-6.8,5.63-12.92,7.95-19.6,2.68-7.74,5.85-15.3,8.59-23,3.31-9.34,6.38-18.77,9.59-28.15,1.32-3.88,2.73-7.73,4.09-11.6A72.49,72.49,0,0,1,166.85,25q-3.15,10.17-6.56,20.25c-2,5.84-4.1,11.64-6.17,17.45a71.9,71.9,0,0,1-3.51,10,11.15,11.15,0,0,0-2.13,4.52c-3.11,8.89-7.16,17.39-10.79,26.06A125.93,125.93,0,0,1,131.6,116c-3.73,6.68-7.78,13.17-11.73,19.73-.19.32-.62.49-.94.73Z"/><path class="cls-105" d="M169.61,71.16c-.32,9.46-.39,18.93-1.06,28.36-.53,7.49-.63,15-1.44,22.47-.8,7.27-1.68,14.53-3.14,21.75-1,4.79-1.78,9.61-3.19,14.3a58.05,58.05,0,0,1-5.65,12.08,40.41,40.41,0,0,1-21.21,17.72c-7.73,3-15.71,5.18-23.58,7.76a12.75,12.75,0,0,1-2.13.33,1.85,1.85,0,0,1,1.28-1c5.68-1.77,11.48-3.25,17-5.45a60.34,60.34,0,0,0,18.84-10.07,39.07,39.07,0,0,0,8.91-11.74,69.87,69.87,0,0,0,5.69-13.43,171.64,171.64,0,0,0,4.21-19.44c1.13-8.19,1.73-16.44,3-24.62a73,73,0,0,0,.46-8c.29-7.1.91-14.19,1.24-21.28a30.91,30.91,0,0,1,.81-9.77Z"/><path class="cls-27" d="M170.1,46.31c.66-4.94,1.32-9.86,2-14.79a3,3,0,0,1,.44-.82,4,4,0,0,1,0,2.94v1.45c-.63.9.12,2-.49,2.93a26.13,26.13,0,0,0-1,6.58,29,29,0,0,1-.95,7.06Z"/><path class="cls-105" d="M170.1,63.36a26.53,26.53,0,0,1-.48,7.8A26.53,26.53,0,0,1,170.1,63.36Zm.49-5.36v3.9h-.49C170.32,60.6,169.62,59.2,170.59,58Z"/><path class="cls-106" d="M102.84,195a52,52,0,0,1,10.38-5c2.64-1.19,5.17-2.65,7.79-3.82a96.6,96.6,0,0,0,12-7,39.93,39.93,0,0,0,12.68-12.63,37.91,37.91,0,0,0,4.77-7.26c1.49-4.33,3.22-8.59,4.9-12.83a87.92,87.92,0,0,0,3.8-14.17c1.51-7,2.85-14,3.8-21.09A62.4,62.4,0,0,1,165.23,98a156.13,156.13,0,0,1-2.63,22.3c-.95,5.45-1.72,10.94-2.79,16.36a45.75,45.75,0,0,1-2.1,7.62c-1.58,4.05-2.49,8.3-4.36,12.27a56.15,56.15,0,0,1-19.09,24.21,78.65,78.65,0,0,1-13.75,7c-5.16,2.13-10.27,4.41-15.36,6.71A5.28,5.28,0,0,1,102.84,195Z"/><path class="cls-107" d="M153,102.35l-.48-.48a6.76,6.76,0,0,1,.27-2.37,133.31,133.31,0,0,0,4.29-14.64c1.08-2.75,0-6.2,2.75-8.34-.77,3.58-1.39,7.18-2.3,10.74-1,4-2.35,8-3.12,12.08-.2,1,.19,2.55-1.4,3Z"/><path class="cls-62" d="M217.87,141.35c-.93-.55-.68-1.8-1.47-2.44-.68-.86-.37-2-1-2.93q-3.75-12-6.46-24.36c-.95-4.26-1.94-8.54-2.86-12.82A155.44,155.44,0,0,1,202.27,79c.16-.23.33-.23.49,0a8.82,8.82,0,0,1,.49,2.92c.67.68.61,1.64,1,2.44v.49c1.21,2.12.52,4.64,1.46,6.82.46,1.11.11,2.43,1,3.41v.49c.64,2.4.84,4.9,1.46,7.31.95,3.06,1.5,6.2,2.44,9.26a31.57,31.57,0,0,0,2.29,8.75c1.27,6,3.08,11.94,4.72,17.88A10.43,10.43,0,0,1,217.87,141.35Z"/><path class="cls-96" d="M202.76,79h-.49a56.87,56.87,0,0,1-2.14-9.66c-2-8.48-3.94-17-5.9-25.45l-1.71-7.3a37.32,37.32,0,0,1,3.24,10.57c2.31,9.23,4.35,18.51,6.58,27.75A16.53,16.53,0,0,1,202.76,79Z"/><path class="cls-62" d="M215.43,136a3.24,3.24,0,0,1,1,2.93C215.06,138.28,215.53,137,215.43,136Z"/><path class="cls-96" d="M210.56,112.1a25.74,25.74,0,0,1-2.44-9.26A23.54,23.54,0,0,1,210.56,112.1Zm-2.44-9.26a14.21,14.21,0,0,1-1.47-7.31A12.73,12.73,0,0,1,208.12,102.84Zm-2.44-11.21c-1.79-2-.51-4.65-1.46-6.82A11.21,11.21,0,0,1,205.68,91.63Z"/><path class="cls-96" d="M206.66,95c-1.53-.79-.81-2.23-1-3.41A7.31,7.31,0,0,1,206.66,95Zm-2.44-10.72a4.83,4.83,0,0,1-1-2.44C204.39,82.37,204.22,83.38,204.22,84.32Z"/><path class="cls-108" d="M125.34,100.37c1,1.32-.41,2.13-.68,3.17s-1.27,1.61-1.36,2.7a158,158,0,0,1-9.22,15.62c-.57,1.59-2.3,2.53-2.49,4.34-.81.7-1.11,1.77-1.91,2.48l-1,1.46-1,0c-.65-1.13.3-1.81.75-2.6,2.58-4.59,5.69-8.85,8.42-13.35a11.14,11.14,0,0,0,1.07-2.16c1.51-3,3.21-5.83,5-8.66a22.55,22.55,0,0,0,1.6-2.5A1.2,1.2,0,0,1,125.34,100.37Z"/><path class="cls-109" d="M114.08,121.86c.18-2.63,2.38-4.1,3.6-6.13a49.31,49.31,0,0,1,5.62-9.49v1A73.51,73.51,0,0,1,114.08,121.86Z"/><path class="cls-64" d="M109.69,128.68c.19-1.17.46-2.27,1.91-2.48C111.39,127.36,111.14,128.48,109.69,128.68Z"/><path class="cls-110" d="M100.4,142.81l-1,.48c.47-1.26.86-2.59,2.44-2.94Z"/><path class="cls-109" d="M106.27,133.55a4.73,4.73,0,0,1,2-2.91,3.8,3.8,0,0,1-2,2.91Zm-2,2.93a3.68,3.68,0,0,1,1.94-2.93A5,5,0,0,1,104.32,136.48Z"/><path class="cls-111" d="M125.34,100.37l-.56.53c-.63.72-.89,1.67-1.45,2.44l-4.89,8.76c-6.16,9.54-12.09,19.22-19,28.28-.42.55-.64,1.33-1.5,1.45-2.78,2.69-4.72,6.07-7.37,8.86a60.85,60.85,0,0,1-7.25,7.72c.82-2.19,2.88-3.42,4.08-5.31.35-.55,1.28-.78.93-1.88-5.11,4.54-9.94,9.24-15.31,13.32a6,6,0,0,1-2.9,1.65l.52-.95a65.42,65.42,0,0,1,6.5-5.84A87.51,87.51,0,0,0,89.84,147c1.6-1.69,3-3.5,4.47-5.3a59.77,59.77,0,0,0,5.14-6.51c1.69-2.32,3.41-4.61,5-7a12.24,12.24,0,0,0,1.81-3,5.09,5.09,0,0,1,.25-.6c.45-.88,1-1.69,1.51-2.54a80.56,80.56,0,0,0,8-12.63,10.77,10.77,0,0,0,2.13-3.32c1.2-1.9,2.3-3.85,3.34-5.83a17.81,17.81,0,0,1,2.25-3.84c1.77.5.79,1.69.44,2.45-.78,1.75-1.9,3.33-2.66,5.09.92-2.09,2.27-3.94,3.18-6,.3-.66.54-1.36,1.38-1.54a1.38,1.38,0,0,1,.83,1,1.53,1.53,0,0,1-.73,1.48Z"/><path class="cls-112" d="M98,141.84c5.46-7.37,10.41-15.09,15.56-22.67a34.2,34.2,0,0,1,4.9-7.07,46.37,46.37,0,0,1-5.58,9.29l-5.19,8.73c-3,3.3-5.14,7.29-8,10.77-.55.68-.89,1.53-1.75,1.92Z"/><path class="cls-66" d="M96.51,146.7A21,21,0,0,1,90.65,154,29.78,29.78,0,0,1,96.51,146.7Zm-9.26,11.21c-.53,1.84-2.08,2.78-3.42,3.89C84.37,160,85.92,159,87.25,157.91Zm2.92-3.41c-.36,1.67-1.74,2.46-2.92,3.42C87.61,156.26,89,155.47,90.17,154.5Z"/><path class="cls-113" d="M77.5,159.85l-6.83,5.39c-.36,0-.73-.06-.93-.44l4.35-3.45A3.84,3.84,0,0,1,76,159.83l.55-.51a.8.8,0,0,1,.6-.18c.31.14.55.31.37.71Z"/><path class="cls-114" d="M126.25,96.51l-5.35,9-.49-.26,2.8-5.48c.51-1,1.43-2,.76-3.31-.39-.3-.15-.58,0-.87,1.16-1.32,1.26-3.32,2.86-4.36,1-1,1.2-2.37,1.86-3.52a16.88,16.88,0,0,0,2.46-4.84,5.53,5.53,0,0,0,1.43-3.45l.49-.53c.53-.53-.07-1.64,1-1.91l.47-.05a49.62,49.62,0,0,1-4.16,9.4c-.31.74-1.22,1.47-.22,2.35.42.43.24.88,0,1.33-.8,1.91-2,3.63-2.66,5.62a1.06,1.06,0,0,1-1.24.85Z"/><path class="cls-63" d="M126.25,96.51a31.61,31.61,0,0,0,3.89-7.8,1.06,1.06,0,0,1,.48-1c1.37-2,2.1-4.32,3.42-6.33,1-1.6,1-3.8,2.93-4.87a6.65,6.65,0,0,1-1.23,3.38c-2.35,4.88-4.74,9.74-7.12,14.61-.43,1.14-.64,2.44-2,3Z"/><path class="cls-115" d="M148.16,42.39l4.92-13.07c.16-.4.19-.92.88-1.11-.2,2.07-1.52,3.8-1.44,5.85l-4.36,11.25c-.58-.35-.44-.92-.47-1.44-.36-.66-.63-1.29.47-1.48Z"/><path class="cls-114" d="M134,81.4a16.64,16.64,0,0,1-3.42,6.32A16.64,16.64,0,0,1,134,81.4ZM137,76.53c-1.4,1.36-1.55,3.48-2.93,4.86A15.16,15.16,0,0,1,137,75.08,1.09,1.09,0,0,1,137,76.53Z"/><path class="cls-63" d="M142.32,64.82l0,1-1.93,3.43A7.57,7.57,0,0,1,142.32,64.82ZM137,76.53V75.07c.54-.55.62-1.32,1-1.95l.52,0A3.58,3.58,0,0,1,137,76.52Z"/><path class="cls-114" d="M136,73.11l.46,0a4.43,4.43,0,0,1-1.51,3A7.78,7.78,0,0,1,136,73.11Zm2,0a1.8,1.8,0,0,1-1,1.95A2.49,2.49,0,0,1,138,73.12Z"/><path class="cls-116" d="M134,54.1l5.36-6.83c2.67-2.7,4-6.37,6.72-9.08.31-.32.37-1,1-.77s.37.74.26,1.24A55.6,55.6,0,0,1,143,51.58c-1.7,3.44-5.32,5-8.23,7.27q-1.72,1.32-3.56,2.5c-.36.24-.84.67-1.29.18s-.12-1,.16-1.33c1-1.36,2-2.67,3.1-4A2.7,2.7,0,0,0,134,54.1Z"/><path class="cls-85" d="M125.75,70.18a76.4,76.4,0,0,0-8.07,5.89c-2.34,1.47-4.14,3.78-7,4.35l9.82-8c4.23-3.45,8.56-6.79,12.67-10.38,2.4-2.09,5.43-3.08,7.85-5.14,1.14-1,1.7-2.33,2.81-3.24a68.24,68.24,0,0,1-2.94,7.78A35.83,35.83,0,0,0,127.53,69C126.94,69.36,126.33,69.76,125.75,70.18ZM110.64,80.42a18.75,18.75,0,0,1-9.26,5.36A65.71,65.71,0,0,1,110.64,80.42Z"/><path class="cls-87" d="M148.16,42.39c-.56.36-.46.94-.47,1.48l-1,1A12.2,12.2,0,0,1,148.66,39Z"/><path class="cls-117" d="M126.82,91.26a13.6,13.6,0,0,1-2.55,4.64,28.65,28.65,0,0,0-9,1.29c-6.81,1.51-13.58,3.11-20.48,4.08a79.56,79.56,0,0,0-9.62,1.1c2.4,3.31,4.58,6.5,6.95,9.55a14.76,14.76,0,0,1,3.58,5.4c-2,.38-3.38-.64-4.51-3.26-.47-1.92-2.18-2.94-3.26-4.42-2.39-3.3-5-6.43-7.41-10.23a71.17,71.17,0,0,0,14.8-1A73.32,73.32,0,0,0,109,95a67.21,67.21,0,0,1,16.85-4.3,1,1,0,0,1,1,.55Z"/><path class="cls-118" d="M91.14,114.06a10.25,10.25,0,0,0,4.39,3.42,5.79,5.79,0,0,1,3.63,1.67c1.59,1.36,3.23,2.64,4.85,3.95.68.55,1.45,1.06,1.38,2.11a1,1,0,0,1-.6.32,13.48,13.48,0,0,1-4.85-3.12A26.81,26.81,0,0,0,93,118c-.66-.32-1.27-.68-1.36-1.51-.09-1.36-1.53-1.77-2-2.86Z"/><path class="cls-80" d="M125.75,70.18a40.58,40.58,0,0,1,12.57-8.81,2.34,2.34,0,0,1,2.53,0c-.66,2-1.93,2.7-4.19,3.16a24.38,24.38,0,0,0-8.73,4.92c-.39.27-.66.69-1.2.71Z"/><path class="cls-119" d="M134,77l-1,1.91c.26-2.38-1.34-1.87-2.61-1.58a45.11,45.11,0,0,0-9.83,4.46,22.36,22.36,0,0,1-4.62,2,47.62,47.62,0,0,1,15.53-8.17C132.67,75.38,133.85,75.36,134,77Z"/><path class="cls-120" d="M97.48,78.47a1,1,0,0,1,1-.49c1,.92,2.18.34,3.27.49.69.09,1.28.23,1.5,1a1.38,1.38,0,0,1-.68,1.64,6.13,6.13,0,0,1-3.11,1.77c.18-.27.36-.53.55-.79.54-.72,1.72-1.19,1.2-2.36-.44-1-1.51-.65-2.35-.79A8.23,8.23,0,0,1,97.48,78.47ZM95,85.29a15.06,15.06,0,0,1-6.33,2,13.81,13.81,0,0,1,6.34-2Zm4.39-2.43a5.31,5.31,0,0,1-3.41,2A4.25,4.25,0,0,1,99.43,82.86Z"/><path class="cls-121" d="M91.66,116.44l1.44,1a.45.45,0,0,1-.06.62c-2.43,0-3.79-2-5.66-3-.81-1-2.13-1.19-2.94-2.13-.51-1.05-2.19-1.24-2.07-2.77l-1-1.47h.51Z"/><path class="cls-122" d="M82.37,110.16c.52,1.11,2,1.2,2.44,2.43a23,23,0,0,0,.86,8.13c.81,4.18.31,8.38.78,12.54a25.5,25.5,0,0,1-.32,7.5A2.73,2.73,0,0,0,86,142a16,16,0,0,1,0,8.51,1.27,1.27,0,0,1-.26,1.14A46.26,46.26,0,0,1,77,159.38l-.49-.06c.88-3.83,1.87-7.63,2.59-11.49s1.1-7.48,1.39-11.25c.37-4.24.15-8.48.28-12.72a42.72,42.72,0,0,0-1.73-13.72c-.13-.45-.86-1.29.39-1.45Z"/><path class="cls-58" d="M127.7,99.91a42.14,42.14,0,0,1,5.36-10.23A35.61,35.61,0,0,1,127.7,99.91Zm5.36-10.23a40.28,40.28,0,0,1,4.87-10.24A36.38,36.38,0,0,1,133.06,89.68Zm-6.33,12.19a2.63,2.63,0,0,1,1-2A1.73,1.73,0,0,1,126.73,101.87Zm-1,1.94a1.71,1.71,0,0,1,1-1.94A2.63,2.63,0,0,1,125.75,103.81Z"/><path class="cls-108" d="M126.64,97.51c.72-1,.86-2.3,2-3l.55,0c-.77,1.6-.76,3.73-3,4.34Z"/><path class="cls-123" d="M185.21,22.42l3.28,15.39c.08.38.09.78.14,1.19a20.38,20.38,0,0,1,.48,4.87L191,64.33c0,.41.07.81.08,1.21.27,7.2,1,14.4.69,21.58a135.08,135.08,0,0,1-2.19,21.62,10.54,10.54,0,0,1-1.26,2.85c-.31.56-.9,1.2-1.57.88a5.91,5.91,0,0,1-3.41-2.91A108.26,108.26,0,0,1,177.46,87,216.79,216.79,0,0,1,174.34,57c-.14-5.83-.15-11.65-.34-17.48l.49-11.2c1.09-.93-.12-2.5,1-3.43a3.65,3.65,0,0,1,.59,3.21c-.52,5.28-.83,10.56-.91,15.87,0,3,.78,5.91.53,8.89a124,124,0,0,0,3.09,26.66A54.73,54.73,0,0,0,183,93.1c.54,1,.88,2.59,2.4,2.32s2-1.66,2.22-2.93a75.38,75.38,0,0,0,1.21-10.37,130.49,130.49,0,0,0,.54-14.79c-.38-6-.51-12.1-1.27-18.12-.65-3.8-.77-7.68-1.4-11.48A81,81,0,0,0,182.09,19c-.19-.44-.29-.91-.48-1.35-1.18-2.75-2.22-2.88-4.07-.54a.51.51,0,0,1-.61-.06,4,4,0,0,1,.66-2.29c1-2,2.42-2.16,3.85-.37A17.93,17.93,0,0,1,184.19,20,5.41,5.41,0,0,0,185.21,22.42Z"/><path class="cls-43" d="M189.11,43.87a18.19,18.19,0,0,1-.48-4.87,15,15,0,0,1,1,4.87Z"/><path class="cls-98" d="M178.39,10.72c.67.08,1.44-.22,2,.49-2,0-2.8,1.42-3.34,3A33.3,33.3,0,0,0,175,23.31a3.33,3.33,0,0,1-.45,1.06h0a3.73,3.73,0,0,1,0-2.93,35.78,35.78,0,0,1,2.45-9.26Z"/><path class="cls-26" d="M174.48,21.44v2.93A38.76,38.76,0,0,0,173,31.6c-.08.7.2,1.48-.48,2V30.7L174,21.45ZM172.05,38c.15-1-.39-2.07.49-2.93C172.39,36.07,172.93,37.16,172.05,38Z"/><path class="cls-122" d="M76,159.83c-.28.94-1.19,1.08-1.88,1.52C74.57,160.66,74.13,158.84,76,159.83Z"/><path class="cls-124" d="M175,53.12a158.91,158.91,0,0,1,.48-28.27c.64-.89-.11-2,.48-2.92a22.4,22.4,0,0,1,1-4.87h.48a1.59,1.59,0,0,1,.55,1.13q-.66,5.64-1.54,11.26a105.53,105.53,0,0,0-.26,11.93,108.6,108.6,0,0,0,1,16.32,67.6,67.6,0,0,0,4.68,20.21c.34.91.86,1.92,2,1.91,1.3,0,1.58-1.25,1.93-2.2a31.76,31.76,0,0,0,1.59-9.06,147.43,147.43,0,0,0-.07-19.15,5.47,5.47,0,0,1-.2-1.2,20,20,0,0,0-.34-4.82,4.66,4.66,0,0,1-.15-.83c.11-1.69-.55-3.48.63-5,1,1.38.47,3.07.82,4.6a48.29,48.29,0,0,1,.64,7.1,50.29,50.29,0,0,1,.61,7.66,130.88,130.88,0,0,1-.4,24.24,19.26,19.26,0,0,1-1.71,5.81,2.6,2.6,0,0,1-3.28,1.65,2.56,2.56,0,0,1-1.12-.74,7.93,7.93,0,0,1-2.51-3.79,99.73,99.73,0,0,1-4.54-22.28C175.32,58.89,175.45,56,175,53.12Z"/><path class="cls-98" d="M180.34,11.21a2,2,0,0,1,1.95,1.95A5.14,5.14,0,0,1,180.34,11.21Z"/><path class="cls-123" d="M175.94,21.93c-.14,1,.4,2.07-.48,2.93.15-1-.37-2.07.48-2.94Z"/><path class="cls-125" d="M123.33,103.34a2.87,2.87,0,0,1,1.45-2.44A3.18,3.18,0,0,1,123.33,103.34Z"/><path class="cls-126" d="M116.49,109.65a59.25,59.25,0,0,1-8.17,12.73c-1.38.75-2.31.07-3.12-1A78.7,78.7,0,0,1,98,112c-.6-1.06-1.43-2-.71-3.34s1.87-1.14,3-1.15c4.13,0,8.26-.13,12.39,0C114.19,107.64,116.09,107.41,116.49,109.65Z"/><path class="cls-127" d="M121.9,100.48a26.21,26.21,0,0,1-3.4,5.92c-.65-1.54-1.68-1.86-3.42-1.76-5.41.29-10.78,1.2-16.22,1.31-1.83,0-4.42-.36-5.21,1s1.46,3,2.38,4.41a69.9,69.9,0,0,0,7.09,8.64c.71.81,1.71,1.6,1.12,2.94-1.61.23-2.1-1.32-3.12-2a42.37,42.37,0,0,1-10.81-11.64c-.74-1.07-1.5-2.12-2.29-3.15-1.58-2-1-3.43,1.57-3.89a3.63,3.63,0,0,1,.73-.08A169.51,169.51,0,0,0,115.63,99a19.32,19.32,0,0,1,4.36-.2C121,99,122,99.08,121.9,100.48Z"/><path class="cls-128" d="M121.9,100.48c-1.3-2-3.33-1.16-4.9-1-6.61.89-13.15,2.16-19.74,3.11a55,55,0,0,1-7,.2c-1,0-2.11.14-2.56,1s.59,1.53,1.1,2.22c2.57,3.38,4.94,6.92,7.69,10.15a28.71,28.71,0,0,0,7.84,6.59,4,4,0,0,1,2.47,2,.94.94,0,0,1,0,.47c-.48.68-1,.95-1.39,0a54.71,54.71,0,0,0-9.8-7.75L84.67,102.94c-.27-.36-.84-.66-.53-1.21s.86-.33,1.32-.35a106.26,106.26,0,0,0,22.45-3.13c4.83-1.2,9.79-1.77,14.54-3.26,1-.29,1.57-.11,1.82.91l-.31.59A12.63,12.63,0,0,1,121.9,100.48Z"/><path class="cls-129" d="M106.77,124.79a4.46,4.46,0,0,1-2.47-2,47.14,47.14,0,0,0-5.49-6.71c-2-2.74-4.08-5.41-6-8.17-.91-1.28-.88-2.08,1.14-2.23,7.39-.54,14.76-1.23,22.13-1.89,2.44-.22,2.81.14,2.47,2.56a6.51,6.51,0,0,1-2,3.26,4,4,0,0,0-3.64-1.44c-4.37,0-8.74,0-13.1,0-.81,0-1.7-.1-2.1.81s.07,1.5.6,2.19c1.17,1.53,1.93,3.72,3.22,4.71,2.55,1.94,3.13,5.9,6.85,6.47A5.73,5.73,0,0,1,106.77,124.79Z"/><path class="cls-130" d="M77,159.38c2.42-2.21,4.82-4.44,7.26-6.61a7.87,7.87,0,0,0,1.55-2.12,6.83,6.83,0,0,1,4.41-4,.4.4,0,0,1,.11.4c0,.13-.1.19-.15.19a72.64,72.64,0,0,1-12.7,12.63Z"/><path class="cls-131" d="M104.85,128.21a48,48,0,0,1-5,7.28.4.4,0,0,1-.56,0l0,0a13.09,13.09,0,0,1,4.93-7.48A.9.9,0,0,1,104.85,128.21Z"/><path class="cls-132" d="M99.38,135.48h.5a28.2,28.2,0,0,1-5.27,6.4l-.24-.24c-.26-.9.27-1.53.77-2.16C96.67,138.27,97.12,135.92,99.38,135.48ZM90.2,147.23l-.08-.61a.93.93,0,0,1-.15-1c1.33-1.49,2.34-3.38,4.53-3.86l.11.09a21.08,21.08,0,0,1-4.41,5.36Z"/><path class="cls-133" d="M104.85,128.21l-.61-.05a6,6,0,0,1,.54-2.89l.55,0a1.19,1.19,0,0,0,1.39,0A5.15,5.15,0,0,1,104.85,128.21Z"/><path class="cls-134" d="M104.78,125.27c.88,1.16-.12,2-.54,2.89a38.47,38.47,0,0,0-4.86,7.32l-3.86,4.36c-.84-3.35-.63-6.85-1.46-10.22-.66-2.74-.86-5.58-1.32-8.37a5,5,0,0,1,.36-3.3v-.48a30.55,30.55,0,0,1,9,5.83C103,123.92,103.88,124.61,104.78,125.27Z"/><path class="cls-135" d="M93.1,118c.52,6.49,2.05,12.84,2.76,19.31a10.68,10.68,0,0,1-.34,2.58,3.37,3.37,0,0,0-1,1.95l-4.3,4a5.6,5.6,0,0,1-1-4.14,114.11,114.11,0,0,0-2.06-23.83c-.16-1.07-1.26-2.48.57-3.28A22.83,22.83,0,0,0,93.1,118Z"/><path class="cls-136" d="M87.73,114.54c-1,1.18,0,2.36.16,3.41,1,5.08,1.21,10.24,1.91,15.34.59,4.19-.37,8.36.4,12.49l-.08.84-4.3,4c-.53-.39-2.09-.07-.64-1.62a3.6,3.6,0,0,0,.53-4.65,4.18,4.18,0,0,1-.33-3.3,21.61,21.61,0,0,0,.43-7.39c-.47-3.18.33-6.5-.22-9.59s-.77-6.49-1.56-9.67c-.2-.82-.46-1.65.78-1.85Z"/><path class="cls-137" d="M175,53.12a24.62,24.62,0,0,1,.88,7.34,105.82,105.82,0,0,0,5.4,24.47,6.1,6.1,0,0,0,2.48,2.9c1.47,1,2.4.08,2.93-1.34a32.75,32.75,0,0,0,1.92-8.68A152.49,152.49,0,0,0,189,57.2c-.11-2.65-.38-5.31-.39-8a17.94,17.94,0,0,1,.83,7.09,147.89,147.89,0,0,1,.61,18.94q-.62,8.43-1.48,16.85a6.82,6.82,0,0,1-2.19,4c-.89.94-1.57.91-2.39,0a19.56,19.56,0,0,1-3.6-7.26,109.89,109.89,0,0,1-4.52-22.63A101.56,101.56,0,0,1,175,53.12Z"/><path class="cls-138" d="M187.17,37.53v5.36c-1.4-.26-1.08-1.41-1.14-2.29a53.91,53.91,0,0,0-1.25-9.13c-1-3.65-1.44-7.44-2.74-11a2.27,2.27,0,0,1,0-1.66l.27-.3a32.11,32.11,0,0,1,3.79,12.37A24.65,24.65,0,0,1,187.17,37.53Z"/><path class="cls-138" d="M177.42,18v-1c.3-1.18.57-2.68,2.15-2.33a3.66,3.66,0,0,1,2.75,3.78l0,0-.23,0c-1.35-1.88-2.87-2.23-4.62-.54Z"/><path class="cls-139" d="M177.42,18c.23-.31.48-.61.7-.93,1.27-1.87,2-1.85,3.24.06.29.47.61.91.92,1.36a100.1,100.1,0,0,1,2.93,12.66,113.46,113.46,0,0,1,1.64,20.73,47.56,47.56,0,0,1-.9,7.71c-.38,1.91-.76,4-3.26,4.22-2.35.17-3.09-1.76-3.74-3.53a52.71,52.71,0,0,1-3-15.42,30.15,30.15,0,0,0-.1-3.16,2.89,2.89,0,0,1-.14-.88A115.55,115.55,0,0,1,176,29.24,95.87,95.87,0,0,1,177.42,18Z"/><path class="cls-140" d="M176,41.43c.68.55.44,1.32.49,2a57.76,57.76,0,0,0,3.47,17.45c.51,1.32,1.11,2.58,2.87,2.44s2.05-1.54,2.28-2.76a72.65,72.65,0,0,0,.73-21.68c-.28-2.57-.39-5.14-.58-7.72a33.49,33.49,0,0,1,1.46,8.94c.13.93-.35,2,.49,2.76v.49a18.9,18.9,0,0,1,.24,4.69,86,86,0,0,1-.62,19.31,6.66,6.66,0,0,1-.54,1.85,3.8,3.8,0,0,1-2.9,2.66c-1.51.17-2.22-1.08-3-2.16a32.52,32.52,0,0,1-2.77-7,3.52,3.52,0,0,1-.19-.84,128.85,128.85,0,0,1-1.71-18.39,3.78,3.78,0,0,1,.23-2.13Z"/><path class="cls-138" d="M187.65,49.23c.1.11.29.23.31.36a177.19,177.19,0,0,1,0,19.42c-.17,2.64-.8,5.24-1.23,7.86a2.8,2.8,0,0,1-.32,1.16c-.73,1-.58,2.9-2.51,2.86S181.41,79.23,181,78a102.59,102.59,0,0,1-4.05-15.42,17.94,17.94,0,0,1-.47-4.56c1.71,1,.78,3,1.46,4.39a49,49,0,0,0,2.6,8.3,3.68,3.68,0,0,1,.15.47c.56,1.38,1.28,3,2.78,3.06s1.85-1.84,2.24-3.11a54.35,54.35,0,0,0,1.74-12.94A74.1,74.1,0,0,1,187.65,49.23Z"/><path class="cls-141" d="M187.65,49.23a110.6,110.6,0,0,1-1,20.49,17.34,17.34,0,0,1-.41,1.87c-.48,1.65-1.24,3.85-2.71,3.94s-2.75-1.91-3.32-3.43a25.48,25.48,0,0,1-2.33-9.71c1.44,1.72,1.19,4.14,2.46,5.94.86,1.21,1.3,3.39,3,3,1.89-.4,2.58-2.4,2.85-4.36a114.26,114.26,0,0,0,1-18.76q.24-.33.48,0Z"/><path class="cls-141" d="M177.9,62.39c-1-1.3-.38-3.12-1.46-4.39a119.25,119.25,0,0,1-1-16.57c.16-.22.32-.23.49,0a78.28,78.28,0,0,0,1.78,18.32A15.54,15.54,0,0,1,177.9,62.39Z"/><path class="cls-140" d="M176,41.43h-.49c0-3.3,0-6.61,0-9.92,0-.77-.26-1.63.47-2.27Z"/><path class="cls-138" d="M187.65,48.26h-.48V43.38c1,1.54.26,3.26.48,4.87Z"/></g></g></svg>