<svg xmlns="http://www.w3.org/2000/svg" viewBox="0 0 67.17 67.17"><defs><style>.cls-1{fill:#fff;stroke-width:0.75px;}.cls-1,.cls-3,.cls-4,.cls-5,.cls-6,.cls-7,.cls-8,.cls-9{stroke:gray;}.cls-2{opacity:0.8;}.cls-3{fill:#44c;}.cls-3,.cls-4,.cls-5,.cls-6,.cls-7,.cls-8,.cls-9{stroke-width:0.38px;}.cls-4{fill:#bc3;}.cls-5{fill:#d93;}.cls-6{fill:#db3;}.cls-7{fill:#3bb;}.cls-8{fill:#3c9;}.cls-9{fill:#d73;}</style></defs><g id="Layer_2" data-name="Layer 2"><g id="Layer_1-2" data-name="Layer 1"><circle class="cls-1" cx="33.59" cy="33.59" r="33.21"/><circle class="cls-1" cx="33.59" cy="33.59" r="24.91"/><circle class="cls-1" cx="33.59" cy="33.59" r="16.6"/><circle class="cls-1" cx="33.59" cy="33.59" r="8.3"/><path class="cls-1" d="M33.59.38V66.8M57,57,10.19,10.19m46.79,0L10.19,57M66.8,33.59H.38"/><g class="cls-2"><path class="cls-3" d="M33.59,33.59h6.79a6.65,6.65,0,0,0,0-1.89Z"/><path class="cls-4" d="M33.59,33.59,46.42,17.36a21,21,0,0,0-5.66-3Z"/><path class="cls-5" d="M33.59,33.59l-6-27.17a27.93,27.93,0,0,0-11.7,5.66Z"/><path class="cls-6" d="M33.59,33.59,11.7,23A24.59,24.59,0,0,0,9.81,37.74Z"/><path class="cls-7" d="M33.59,33.59l-12.46,6a14.07,14.07,0,0,0,.76,1.89Z"/><path class="cls-8" d="M33.59,33.59l-3.78,17a17.29,17.29,0,0,0,6.8,0Z"/><path class="cls-9" d="M33.59,33.59,51,55.47A28.42,28.42,0,0,0,55.47,51Z"/></g></g></g></svg>