<svg xmlns="http://www.w3.org/2000/svg" xmlns:xlink="http://www.w3.org/1999/xlink" viewBox="0 0 165.54 144.78"><defs><style>.cls-1{fill:#fff;}.cls-2{fill:url(#linear-gradient);}.cls-3{fill:url(#linear-gradient-2);}.cls-4{fill:url(#linear-gradient-3);}.cls-5{fill:url(#linear-gradient-4);}</style><linearGradient id="linear-gradient" x1="-675.08" y1="5.13" x2="-675.08" y2="4.94" gradientTransform="matrix(1, 0, 0, -1, 758, 102.84)" gradientUnits="userSpaceOnUse"><stop offset="0" stop-color="#f29100"/><stop offset="1" stop-color="#ec670f"/></linearGradient><linearGradient id="linear-gradient-2" x1="-696.73" y1="3.86" x2="-696.73" y2="-41.43" xlink:href="#linear-gradient"/><linearGradient id="linear-gradient-3" x1="-675.23" y1="102.84" x2="-675.23" y2="-41.4" xlink:href="#linear-gradient"/><linearGradient id="linear-gradient-4" x1="-735.14" y1="10.73" x2="-735.14" y2="-40.4" xlink:href="#linear-gradient"/></defs><g id="Layer_2" data-name="Layer 2"><g id="Layer_3" data-name="Layer 3"><rect class="cls-1" x="0.11" y="36.78" width="165" height="108"/><path class="cls-2" d="M82.91,97.9l0-.06C82.9,97.69,82.89,97.65,82.91,97.9Z"/><path class="cls-3" d="M84,138.67c-.58-1.21-1.31-3.59-1.8-4.63a28.53,28.53,0,0,0-2.55-4.34c-1.52-1.78-1.87-1.91-2.32-4.16a74.38,74.38,0,0,0-5.26-15.9,24.78,24.78,0,0,0-5.24-6.48c-1.66-1.6-5.41-4.31-6.07-4.17-6.12,1.22-8,7.23-10.9,12a69.4,69.4,0,0,0-4.54,7.68c-1.16,2.57-1.06,5.42-3,7.63a21,21,0,0,0-4.36,7.62c-.19.56-.73,6.41-1.31,7.79h0l9.1-.64c8.48.57,6,3.82,19.27,3.12l20.91-.65h0C85.26,141.61,84.37,139.4,84,138.67Z"/><path class="cls-4" d="M144.69,0H20.86A20.86,20.86,0,0,0,0,20.86v45.5c3-1.08,7.28-7.42,8.62-9,2.36-2.7,2.78-6.14,4-8.31,2.66-4.94,3.12-8.34,9.19-8.34,2.83,0,3.95.65,5.86,3.22a56.32,56.32,0,0,1,4.71,7.29c1.24,2.54,3.27,6,4.16,6.68a7.67,7.67,0,0,0,1.92,1.13c1,.37,1.8-.31,2.46-.83.84-.67,1.2-2,2-3.85,1.13-2.62,2.35-5.77,3-6.86,1.21-1.9,1.62-4.15,2.91-5.24a9.92,9.92,0,0,1,5.11-1.86c3.85-.76,5.6,1.86,7.49,3.55a17.86,17.86,0,0,1,4.15,6.33c.94,2.34,2.13,4.5,2.63,5.85A53.42,53.42,0,0,1,70.57,62c.64,2.27,2.37,4,3,5.09,0,0,1,2.81,7.09,5.37,1.32.55,4,1.46,5.58,2,2.64,1,5.2.83,8.47.44,2.32,0,3.58-3.37,4.64-6.06.62-1.6,1.22-6.16,1.63-7.46s-.53-2.24.26-3.35c.92-1.29,1.47-1.36,2-3,1.14-3.6,7.73-3.79,11.44-3.79,3.09,0,2.7,3,7.94,2,3-.59,5.9.39,9.08,1.23,2.69.71,5.21,1.52,6.72,3.29,1,1.15,3.41,6.89.93,7.14.24.29.42.81.86,1.1-.55,2.16-2.95.62-4.28.34a7.21,7.21,0,0,0-4.82.84c-3,1.33-7.39,1.18-10,3.36-2.22,1.84-2.21,6-3.25,8.27,0,0-2.87,7.39-9.14,11.92a23,23,0,0,1-11.58,5,43,43,0,0,1-9.09.36c-1.54-.07-3-.15-4.53-.17-.91,0-4-.11-3.82.19l-.34.84c.06.28.17,1,.2,1.15a12.3,12.3,0,0,1,.18,1.86c0,1.29-.1,2.64,0,4,.14,2.71,1.15,5.18,1.27,7.92.14,3,1.65,6.26,3.11,8.75.55,1,1.39,1.06,1.76,2.22.43,1.34,0,2.75.23,4.18A55.17,55.17,0,0,0,91,143.27a.69.69,0,0,0,0,.13h0c3.07-.52,6.15-1.62,10.14-2.21,7.31-1.09,17.49-.53,24-1.14,16.53-1.55,25.51,6.78,40.35,3.37V20.86A20.85,20.85,0,0,0,144.69,0ZM82.91,97.9c0-.25,0-.21,0-.06Z"/><path class="cls-5" d="M38.17,117.05c1.15-2.51,1.82-5.38,2.77-8s2.35-6,4.79-7.2c-.3-.35-5.1-.51-6.38-.64a40.44,40.44,0,0,1-4.14-.59c-2.59-.52-5.42-1-8-1.64-1.55-.37-6.71-2.2-7.83-2.71C16.78,95.09,15,91.8,13,92.14a4.5,4.5,0,0,0-3.41,2c-.66,1.08-.89,2.93-1.35,4.17A27.33,27.33,0,0,1,6,102.47C4.46,105,1.79,107.28.63,109.74A15.16,15.16,0,0,0,0,111.4v28.11c1.35.23,2.75.52,4.33.94,11.63,3.1,14.47,3.36,25.88,2.06l1.07-.14h0c.87-1.82,1.54-8,2.11-9.92a29.92,29.92,0,0,0,1.28-4.14,16.1,16.1,0,0,0-.15-4.07C34.21,121,36.89,119.84,38.17,117.05Z"/></g></g></svg>