<svg xmlns="http://www.w3.org/2000/svg" viewBox="0 0 64 64"><defs><style>.cls-1{fill:#119dff;}.cls-2{fill:#25fefd;}.cls-3{fill:#fff;}</style></defs><g id="Layer_2" data-name="Layer 2"><g id="Layer_3" data-name="Layer 3"><g id="symbol"><rect id="rect616" class="cls-1" width="64" height="64" rx="2.91"/><circle id="circle618" class="cls-2" cx="37.82" cy="26.18" r="2.91"/><circle id="circle620" class="cls-2" cx="49.45" cy="14.55" r="2.91"/><circle id="circle622" class="cls-2" cx="37.82" cy="14.55" r="2.91"/><circle id="circle624" class="cls-2" cx="26.18" cy="14.55" r="2.91"/><circle id="circle626" class="cls-2" cx="14.55" cy="14.55" r="2.91"/><circle id="circle628" class="cls-2" cx="14.55" cy="26.18" r="2.91"/><path id="path630" class="cls-3" d="M14.55,34.91a2.91,2.91,0,0,0-2.91,2.91V49.45a2.91,2.91,0,1,0,5.81,0V37.82A2.9,2.9,0,0,0,14.55,34.91Z"/><path id="path632" class="cls-3" d="M37.82,34.91a2.91,2.91,0,0,0-2.91,2.91V49.45a2.91,2.91,0,1,0,5.82,0V37.82A2.91,2.91,0,0,0,37.82,34.91Z"/><path id="path634" class="cls-3" d="M26.18,23.27a2.92,2.92,0,0,0-2.91,2.91V49.45a2.91,2.91,0,0,0,5.82,0V26.18A2.91,2.91,0,0,0,26.18,23.27Z"/><path id="path636" class="cls-3" d="M49.45,23.27a2.91,2.91,0,0,0-2.9,2.91V49.45a2.91,2.91,0,1,0,5.81,0V26.18A2.91,2.91,0,0,0,49.45,23.27Z"/></g></g></g></svg>