<svg xmlns="http://www.w3.org/2000/svg" viewBox="0 0 275.88 275.88"><defs><style>.cls-1{fill:#ff6c37;}.cls-2{fill:#fff;}</style></defs><g id="Layer_2" data-name="Layer 2"><g id="Layer_1-2" data-name="Layer 1"><path class="cls-1" d="M247.11,53.63a137.94,137.94,0,1,0-24.86,193.48l0,0A138,138,0,0,0,247.11,53.63Z"/><path class="cls-2" d="M184.46,87.89,126.3,146.52l-16.43-16.9c57.24-57.24,63-52.07,74.6-41.73Z"/><path class="cls-1" d="M126.3,148.12a2.11,2.11,0,0,1-1.38-.57L108.37,131a2.07,2.07,0,0,1,0-2.87c56.44-56.44,64.14-53.8,77.47-41.73a1.83,1.83,0,0,1,.69,1.5,1.63,1.63,0,0,1-.57,1.5L127.8,147.55a2.13,2.13,0,0,1-1.5.57Zm-13.56-18.5,13.56,13.56L181.48,88a12.42,12.42,0,0,0-16.33-2.76C155.15,89.73,139.06,103.41,112.74,129.62Z"/><path class="cls-2" d="M143,162.72l-15.86-16.2L185.27,89c15.63,15.29-7.59,40.81-42.3,73.68Z"/><path class="cls-1" d="M143,164.79a2.43,2.43,0,0,1-1.38-.57l-16.2-15.86a2.35,2.35,0,0,1,0-1.84,2.15,2.15,0,0,1,0-1.5l58.16-58.16a2.17,2.17,0,0,1,3,0,17.85,17.85,0,0,1,5.75,13.68c0,15.51-17.7,35.05-47.82,63.56a2.36,2.36,0,0,1-1.49.69ZM130.1,146.52l13,13c23-21.72,44.95-44.14,45.06-59.31a13.07,13.07,0,0,0-3-8.85Z"/><path class="cls-2" d="M110.32,130l11.5,11.5a.68.68,0,0,1,.06,1,.17.17,0,0,1-.06.06l-24.25,5.18a2.3,2.3,0,0,1-2.07-3.91l14.13-14a1.16,1.16,0,0,1,.69.22Z"/><path class="cls-1" d="M97,150a4.48,4.48,0,0,1-3.79-2.19,4.36,4.36,0,0,1,.81-5.17l14-14.14a2.74,2.74,0,0,1,3.67,0L123.2,140a2.54,2.54,0,0,1,.69,2.53,2.68,2.68,0,0,1-2,1.85l-24.26,5.17Zm12.88-17.48-13,13,21.5-4.6Z"/><path class="cls-2" d="M215.39,55.59a22.3,22.3,0,1,0-4,35.18L195.73,75.13Z"/><path class="cls-1" d="M199.87,96.05a24.39,24.39,0,0,1-17.05-41.49,24.6,24.6,0,0,1,34.48,0,2,2,0,0,1,.69,1.49,2,2,0,0,1-.69,1.5L198.68,75.14l14.14,13.91a1.93,1.93,0,0,1,.57,1.72,2.07,2.07,0,0,1-.92,1.5,25,25,0,0,1-12.64,3.79Zm0-44.6a20.2,20.2,0,1,0,8,38.74L194.35,76.62a1.84,1.84,0,0,1-.29-2.58,2,2,0,0,1,.29-.29l17.93-18a20.63,20.63,0,0,0-12.41-4.26Z"/><path class="cls-2" d="M215.73,55.94,196.08,75.48l15.63,15.63a23.68,23.68,0,0,0,4.37-3.22,23,23,0,0,0-.35-31.95Z"/><path class="cls-1" d="M211.36,92.83a1.73,1.73,0,0,1-1.38-.57L194.35,76.63a1.84,1.84,0,0,1-.29-2.59,2,2,0,0,1,.29-.29l19.54-19.19a2.06,2.06,0,0,1,2.87-.58,2.13,2.13,0,0,1,.58.58,24.13,24.13,0,0,1,.34,34.13l-.34.35a21.45,21.45,0,0,1-4.6,3.68,1.88,1.88,0,0,1-1.38.11ZM198.72,75.14l13,13a21.76,21.76,0,0,0,2.53-2.07,20.35,20.35,0,0,0,6-14.36,19.77,19.77,0,0,0-4.95-13.11Z"/><path class="cls-2" d="M186.88,90.31a8.39,8.39,0,0,0-11.5,0l-52.06,51.95,8.62,8.74L187,102.72a8.52,8.52,0,0,0,.26-12l-.37-.37Z"/><path class="cls-1" d="M131.48,153.07a2.07,2.07,0,0,1-1.38-.57l-8.74-8.74a2.06,2.06,0,0,1,0-2.88L173.43,89a10.58,10.58,0,0,1,18,7.82,10.8,10.8,0,0,1-3.57,7.58l-55,48.28a1.94,1.94,0,0,1-1.38.34Zm-6.09-10.81,5.74,5.86,54-47a6.35,6.35,0,0,0,2.19-4.6,6.17,6.17,0,0,0-2-4.71,6.43,6.43,0,0,0-9.09,0Z"/><path class="cls-2" d="M83,201.46a1.17,1.17,0,0,0,0,1.38l2.3,10a3,3,0,0,1-1.43,3,2.79,2.79,0,0,1-3.29-.33L64.81,200.35l49.08-49.47h17l11.5,11.49A261.1,261.1,0,0,1,83,201.46Z"/><path class="cls-1" d="M81.94,218.35a4.83,4.83,0,0,1-3.45-1.49L63.43,201.8a1.84,1.84,0,0,1-.29-2.58,1.59,1.59,0,0,1,.29-.29l49.42-49.54a1.93,1.93,0,0,1,1-.58H131a2.17,2.17,0,0,1,1.38,0l11.5,11.5a2.22,2.22,0,0,1-.12,3.1l-.91.81a282.19,282.19,0,0,1-59,37.82l2.18,9.31a5,5,0,0,1-4.71,6.09Zm-14-18L81.47,214a.68.68,0,0,0,.92,0,.66.66,0,0,0,0-.8l-2.29-10a3.2,3.2,0,0,1,1.72-3.68,282.77,282.77,0,0,0,57.47-37l-9.43-9.43h-15.4Z"/><path class="cls-2" d="M53,212.15l11.5-11.5,17.7,17.7L54,216.4a2.3,2.3,0,0,1-2.12-2.47A2.33,2.33,0,0,1,53,212.15Z"/><path class="cls-1" d="M82.51,220.08l-28.05-2a4.47,4.47,0,0,1-3.68-2.82,4.38,4.38,0,0,1,.92-4.54l11.5-11.5a2.07,2.07,0,0,1,2.87,0l17.59,17.59a2,2,0,0,1,0,2.3,2.16,2.16,0,0,1-1.15.91Zm-28.05-6.44,23,1.5L64.81,203.3Z"/><path class="cls-2" d="M132.51,152.27l-23.22,3.56,13.45-13.33Z"/><path class="cls-1" d="M109.29,158a2.31,2.31,0,0,1-1.84-3.45l13.33-13.45a2.18,2.18,0,0,1,3,0l9.78,9.77a2,2,0,0,1,0,2.07,2,2,0,0,1-1.61,1.49L109,158Zm13.45-12.53L115.27,153,128.14,151Z"/><path class="cls-2" d="M132.51,152.26l-16.21,2.07a2.07,2.07,0,0,1-2-3.45l8.39-8.39Z"/><path class="cls-1" d="M115.84,156.52a4.25,4.25,0,0,1-3.67-2.19,4.12,4.12,0,0,1,.68-4.94l8.4-8.4a2.19,2.19,0,0,1,3,0l9.78,9.78a2.07,2.07,0,0,1,.08,2.92,2.12,2.12,0,0,1-1.35.64l-16.09,2.07Zm0-4.26L128,150.77l-5.4-5.4-6.9,6.89Zm100-83.1a1.71,1.71,0,0,0-2.18-.69,1.58,1.58,0,0,0-.8,1,1.6,1.6,0,0,0,.11,1.23,4.94,4.94,0,0,1-.57,5.17,1.46,1.46,0,0,0-.43,1.1A1.6,1.6,0,0,0,212.4,78a1.3,1.3,0,0,0,.91,0,1.51,1.51,0,0,0,1.5-.47,7.93,7.93,0,0,0,1-8.39Z"/></g></g></svg>