<svg xmlns="http://www.w3.org/2000/svg" xmlns:xlink="http://www.w3.org/1999/xlink" viewBox="0 0 98.05 99.48"><defs><style>.cls-1{fill:none;}.cls-2{clip-path:url(#clip-path);}.cls-3{fill:#212e4a;}.cls-4{clip-path:url(#clip-path-2);}.cls-5{clip-path:url(#clip-path-3);}</style><clipPath id="clip-path" transform="translate(0.06 -0.21)"><rect class="cls-1" width="21.94" height="23"/></clipPath><clipPath id="clip-path-2" transform="translate(0.06 -0.21)"><rect class="cls-1" y="38" width="21.94" height="24"/></clipPath><clipPath id="clip-path-3" transform="translate(0.06 -0.21)"><rect class="cls-1" y="77" width="21.94" height="23"/></clipPath></defs><g id="Layer_2" data-name="Layer 2"><g id="Layer_1-2" data-name="Layer 1"><g class="cls-2"><g id="g22"><path id="path24" class="cls-3" d="M21.78,11.49A11.11,11.11,0,0,1,10.86,22.78,11.11,11.11,0,0,1-.06,11.49,11.1,11.1,0,0,1,10.86.21,11.1,11.1,0,0,1,21.78,11.49" transform="translate(0.06 -0.21)"/></g></g><g class="cls-4"><g id="g26"><path id="path28" class="cls-3" d="M21.78,50A11.1,11.1,0,0,1,10.86,61.23a11.29,11.29,0,0,1,0-22.57A11.11,11.11,0,0,1,21.78,50" transform="translate(0.06 -0.21)"/></g></g><g class="cls-5"><g id="g30"><path id="path32" class="cls-3" d="M21.78,88.41A11.1,11.1,0,0,1,10.86,99.69a11.29,11.29,0,0,1,0-22.57A11.11,11.11,0,0,1,21.78,88.41" transform="translate(0.06 -0.21)"/></g></g><path id="path34" class="cls-3" d="M59.89,50A10.93,10.93,0,1,1,49,38.66,11.1,11.1,0,0,1,59.89,50" transform="translate(0.06 -0.21)"/><path id="path36" class="cls-3" d="M59.89,11.49a10.93,10.93,0,1,1-21.84,0,10.93,10.93,0,1,1,21.84,0" transform="translate(0.06 -0.21)"/><path id="path38" class="cls-3" d="M98,50A10.93,10.93,0,1,1,87.07,38.66,11.11,11.11,0,0,1,98,50" transform="translate(0.06 -0.21)"/><path id="path40" class="cls-3" d="M98,11.49a10.93,10.93,0,1,1-21.84,0,10.93,10.93,0,1,1,21.84,0" transform="translate(0.06 -0.21)"/><path id="path42" class="cls-3" d="M98,88.41A10.93,10.93,0,1,1,87.07,77.12,11.11,11.11,0,0,1,98,88.41" transform="translate(0.06 -0.21)"/><path id="path44" class="cls-3" d="M59.89,88.41A10.93,10.93,0,1,1,49,77.12,11.1,11.1,0,0,1,59.89,88.41" transform="translate(0.06 -0.21)"/></g></g></svg>