<svg xmlns="http://www.w3.org/2000/svg" xmlns:xlink="http://www.w3.org/1999/xlink" viewBox="0 0 386.05 102.11"><defs><style>.cls-1{fill:none;}.cls-2{clip-path:url(#clip-path);}.cls-3{fill:#212e4a;}.cls-4{clip-path:url(#clip-path-2);}.cls-5{clip-path:url(#clip-path-3);}.cls-6{clip-path:url(#clip-path-4);}.cls-7{clip-path:url(#clip-path-5);}</style><clipPath id="clip-path" transform="translate(0.06 0)"><rect class="cls-1" y="1.11" width="21.94" height="23"/></clipPath><clipPath id="clip-path-2" transform="translate(0.06 0)"><rect class="cls-1" y="39.11" width="21.94" height="24"/></clipPath><clipPath id="clip-path-3" transform="translate(0.06 0)"><rect class="cls-1" y="78.11" width="21.94" height="23"/></clipPath><clipPath id="clip-path-4" transform="translate(0.06 0)"><rect class="cls-1" x="219.94" width="82" height="102.05"/></clipPath><clipPath id="clip-path-5" transform="translate(0.06 0)"><rect class="cls-1" x="315.94" width="70.05" height="102.05"/></clipPath></defs><g id="Layer_2" data-name="Layer 2"><g id="Layer_1-2" data-name="Layer 1"><g id="surface839"><g class="cls-2"><g id="g22"><path id="path24" class="cls-3" d="M21.78,12.6A11.1,11.1,0,0,1,10.86,23.88,11.1,11.1,0,0,1-.06,12.6,11.11,11.11,0,0,1,10.86,1.31,11.11,11.11,0,0,1,21.78,12.6" transform="translate(0.06 0)"/></g></g><g class="cls-4"><g id="g26"><path id="path28" class="cls-3" d="M21.78,51.05A11.11,11.11,0,0,1,10.86,62.34a11.29,11.29,0,0,1,0-22.57A11.1,11.1,0,0,1,21.78,51.05" transform="translate(0.06 0)"/></g></g><g class="cls-5"><g id="g30"><path id="path32" class="cls-3" d="M21.78,89.51A11.11,11.11,0,0,1,10.86,100.8a11.29,11.29,0,0,1,0-22.57A11.1,11.1,0,0,1,21.78,89.51" transform="translate(0.06 0)"/></g></g><path id="path34" class="cls-3" d="M59.89,51.05A10.93,10.93,0,1,1,49,39.77,11.11,11.11,0,0,1,59.89,51.05" transform="translate(0.06 0)"/><path id="path36" class="cls-3" d="M59.89,12.6a10.93,10.93,0,1,1-21.84,0,10.93,10.93,0,1,1,21.84,0" transform="translate(0.06 0)"/><path id="path38" class="cls-3" d="M98,51.05A10.93,10.93,0,1,1,87.07,39.77,11.11,11.11,0,0,1,98,51.05" transform="translate(0.06 0)"/><path id="path40" class="cls-3" d="M98,12.6a10.93,10.93,0,1,1-21.84,0A10.93,10.93,0,1,1,98,12.6" transform="translate(0.06 0)"/><path id="path42" class="cls-3" d="M98,89.51A10.93,10.93,0,1,1,87.07,78.23,11.12,11.12,0,0,1,98,89.51" transform="translate(0.06 0)"/><path id="path44" class="cls-3" d="M59.89,89.51A10.93,10.93,0,1,1,49,78.23,11.11,11.11,0,0,1,59.89,89.51" transform="translate(0.06 0)"/><path id="path46" class="cls-3" d="M171.55,15.56H143.64V47.38h27.91c9.58,0,16.29-5.09,16.29-15.84C187.84,21.21,181.27,15.56,171.55,15.56Zm9.72,44.55,19.57,40.44H184.28l-19-39.17H143.64v39.17h-14.1v-99h42c16.7,0,30.79,9.2,30.79,29.56,0,15.84-8.07,25.6-21.07,29" transform="translate(0.06 0)"/><g class="cls-6"><g id="g48"><path id="path50" class="cls-3" d="M260.5,14.85c-16.69,0-25.86,14-25.86,36.2s9.17,36.21,25.86,36.21,26-14,26-36.21S277.34,14.85,260.5,14.85Zm0,87.26C235.74,102.11,220,81,220,51.05S235.74,0,260.5,0c24.91,0,40.64,21.07,40.64,51.05s-15.73,51.06-40.64,51.06" transform="translate(0.06 0)"/></g></g><g class="cls-7"><g id="g52"><path id="path54" class="cls-3" d="M350.55,102.11a43.77,43.77,0,0,1-34.07-16L326.74,75.8c6.43,7.22,15.87,11.74,24.9,11.74,13.41,0,19.84-4.81,19.84-14.43,0-7.63-5.61-11.45-21.62-16.4-20.25-6.22-30-11.46-30-29.13,0-17.12,14-27.58,31.61-27.58,13,0,22.85,5,31.33,13.44L372.72,24c-6-6.36-12.86-9.47-22.31-9.47-11.22,0-16,5.65-16,12.3,0,6.93,4.38,10.33,20.94,15.42C374.22,48.23,386,54.45,386,72.13s-10.95,30-35.44,30" transform="translate(0.06 0)"/></g></g></g></g></g></svg>