<svg xmlns="http://www.w3.org/2000/svg" viewBox="0 0 207.99 112.17"><defs><style>.cls-1{fill:#f89939;}.cls-2{fill:#3499cd;}.cls-3{fill:#010101;}.cls-4{isolation:isolate;font-size:17.31px;fill:#fff;font-family:Helvetica;}</style></defs><g id="Layer_2" data-name="Layer 2"><g id="Layer_4" data-name="Layer 4"><g id="g3"><path id="path5" class="cls-1" d="M159.53,95.32C184.94,69.92,189.16,33,169,12.76s-57.15-16-82.55,9.43-18,73.93-9.42,82.55c7,7,57.14,16,82.54-9.42Z"/><path id="path7" class="cls-2" d="M55.31,58.61C40.57,43.88,19.12,41.42,7.41,53.14S-1.86,86.31,12.88,101s42.89,10.48,47.9,5.47C64.82,102.47,70.05,73.35,55.31,58.61Z"/></g><g id="g9"><g id="g11"><path id="path13" class="cls-3" d="M106.15,89.09a41,41,0,0,1-6.85,5.3,11.2,11.2,0,0,1-5.61,1.71,6,6,0,0,1-5-2.38,10,10,0,0,1-1.88-6.41,50.38,50.38,0,0,1,2.61-14.48,91.93,91.93,0,0,1,6.35-15.57l7.3-2.7a2,2,0,0,1,.52-.11c.55,0,1,.4,1.36,1.22a8.46,8.46,0,0,1,.53,3.29,25.38,25.38,0,0,1-2.7,11.34A51.08,51.08,0,0,1,94.37,82c-.15,2-.23,3.36-.23,4.11a7.45,7.45,0,0,0,.92,4,2.8,2.8,0,0,0,2.44,1.46,6.18,6.18,0,0,0,3.31-1.12,38.78,38.78,0,0,0,5.34-4.65v3.3Zm-11-11.23a35.06,35.06,0,0,0,5.92-9.09,21.84,21.84,0,0,0,2.27-8.66A3.92,3.92,0,0,0,103,58.4c-.21-.43-.48-.65-.8-.65-.71,0-1.74,1.77-3.09,5.29a99.05,99.05,0,0,0-4,14.82Z"/><path id="path15" class="cls-3" d="M127.64,89.09a35,35,0,0,1-6.55,5.3,12.37,12.37,0,0,1-6.4,1.71,8.33,8.33,0,0,1-6.31-2.5A9.11,9.11,0,0,1,106,87a16.46,16.46,0,0,1,4.23-11q4.22-4.94,9.36-4.93a6.34,6.34,0,0,1,4.28,1.38,4.55,4.55,0,0,1,1.61,3.62q0,5.94-12.64,9.65c.76,3.73,2.77,5.6,6,5.6a7,7,0,0,0,3.62-1,31.7,31.7,0,0,0,5.2-4.52v3.3Zm-15-5.31q7.35-2.07,7.35-7.64,0-2.76-2-2.76t-3.62,2.89a14.47,14.47,0,0,0-1.72,7.51Z"/><path id="path17" class="cls-3" d="M158.32,89.09a61.25,61.25,0,0,1-6.58,5.69A6.87,6.87,0,0,1,148,96.1q-4.55,0-4.28-8a30.18,30.18,0,0,1-5.3,6.06,7.94,7.94,0,0,1-5,1.95,5.22,5.22,0,0,1-4.29-2.37,9.45,9.45,0,0,1-1.76-5.82,15.56,15.56,0,0,1,2.36-8.21,19.46,19.46,0,0,1,6.08-6.32A12.44,12.44,0,0,1,142.29,71a5.09,5.09,0,0,1,5,3.3L153.19,71h1.61l-2.54,8.42c-1.3,4.23-1.95,7.14-1.95,8.71s.58,2.46,1.75,2.46a3.9,3.9,0,0,0,2.47-1.19q1.35-1.19,3.79-3.63v3.3Zm-21,1.58c1.92,0,3.72-1.63,5.42-4.89a19.91,19.91,0,0,0,2.54-9,3.93,3.93,0,0,0-.72-2.51,2.32,2.32,0,0,0-1.92-.91c-1.92,0-3.73,1.63-5.45,4.88a19.61,19.61,0,0,0-2.57,9,4,4,0,0,0,.76,2.52,2.37,2.37,0,0,0,1.94,1Z"/><path id="path19" class="cls-3" d="M179.78,89.09q-7.22,7.06-11.12,7.07a3.7,3.7,0,0,1-3-1.48A5.64,5.64,0,0,1,164.5,91q0-4,4.33-10.86a15.88,15.88,0,0,1-4.65,1.52,32.85,32.85,0,0,1-5.86,7.41h-.66V86.51a38.16,38.16,0,0,0,4.05-5c-1.65-.73-2.47-1.81-2.47-3.25a9.26,9.26,0,0,1,1.51-4.73A4.64,4.64,0,0,1,164.9,71a2,2,0,0,1,2.24,2.3,15.83,15.83,0,0,1-1.29,5.17q4.76-.51,8.33-7.3l2.61-.11-2.67,7.35q-1.67,4.66-2.15,6.34a10.65,10.65,0,0,0-.49,3,3,3,0,0,0,.56,1.92,1.77,1.77,0,0,0,1.51.72,3.28,3.28,0,0,0,2-.7q.94-.71,4.25-3.89v3.3Z"/><path id="path21" class="cls-3" d="M208,89.09q-6.63,7-11.38,7a3.92,3.92,0,0,1-3.1-1.35,5.28,5.28,0,0,1-1.18-3.62c0-2,.85-5.18,2.53-9.39a16.94,16.94,0,0,0,1.35-4.31c0-.61-.24-.92-.72-.92a2.35,2.35,0,0,0-1.06.4A15.41,15.41,0,0,0,193,78c-.48.44-1,1-1.61,1.61s-1.07,1.15-1.66,1.84l-1.61,1.87a5.88,5.88,0,0,0-1.32,2.73,43.81,43.81,0,0,0-.58,4.48c-.06,1-.08,2.38-.08,4.11l-6.35,1.49q-.31-3.89-.32-5.77a34.6,34.6,0,0,1,1.08-8.77,56.58,56.58,0,0,1,3.46-9.3L191,71a65.75,65.75,0,0,0-2.9,9.36,55.72,55.72,0,0,1,7.47-7.28,8.75,8.75,0,0,1,4.92-2A3.11,3.11,0,0,1,203,72.13a4,4,0,0,1,1,2.76c0,1.84-.83,4.87-2.47,9.08a21.37,21.37,0,0,0-1.7,5.64c0,1.15.47,1.72,1.41,1.72q2.1,0,6.8-5.54Z"/></g></g><text id="text25" class="cls-4" transform="translate(115 61.46)">scikit</text></g></g></svg>