<svg xmlns="http://www.w3.org/2000/svg" viewBox="0 0 179.82 179.82"><defs><style>.cls-1{fill:#dd4814;}.cls-2{fill:#fff;}</style></defs><g id="Layer_2" data-name="Layer 2"><g id="Layer_1-2" data-name="Layer 1"><path class="cls-1" d="M179.82,89.91A89.91,89.91,0,1,1,89.91,0,89.91,89.91,0,0,1,179.82,89.91Z"/><path class="cls-2" d="M28.77,77.9a12,12,0,1,0,12,12,12,12,0,0,0-12-12Zm85.71,54.56a12,12,0,1,0,16.39,4.39A12,12,0,0,0,114.48,132.46ZM54.85,89.91A35,35,0,0,1,69.76,61.22L61,46.52A52.24,52.24,0,0,0,39.42,76.83a16.87,16.87,0,0,1,0,26.15A52.19,52.19,0,0,0,61,133.3l8.78-14.71A35,35,0,0,1,54.85,89.91ZM89.91,54.84a35.06,35.06,0,0,1,34.92,32l17.11-.25a52,52,0,0,0-15.5-33.83,16.84,16.84,0,0,1-22.6-13.06,52.1,52.1,0,0,0-37,3.5l8.34,15a34.92,34.92,0,0,1,14.77-3.27Zm0,70.13a34.91,34.91,0,0,1-14.77-3.26l-8.34,15a52.1,52.1,0,0,0,37,3.5,16.86,16.86,0,0,1,22.6-13.07,52,52,0,0,0,15.5-33.82L124.83,93a35.05,35.05,0,0,1-34.92,32Zm24.57-77.62A12,12,0,1,0,110.08,31a12,12,0,0,0,4.4,16.39Z"/></g></g></svg>