<svg xmlns="http://www.w3.org/2000/svg" viewBox="0 0 241.23 54.08"><defs><style>.cls-1{fill:blue;}.cls-2{fill:#d40000;}</style></defs><g id="Layer_2" data-name="Layer 2"><g id="Layer_3" data-name="Layer 3"><g id="layer1"><path id="flowRoot2411" class="cls-1" d="M35.33,54.08,0,38.72V30.21L35.33,14.92v10L10.69,34.36l24.64,9.78Z"/><path id="flowRoot2419" class="cls-2" d="M43.38,52.94,56.84,33.71,43.94,15.6H56l6.61,10.27,7-10.27h11.6L68.51,33.29,82.33,52.94H70.2L62.61,41.37,54.94,52.94ZM87.46,15.6h9.11v5.1q4.89-5.94,11.64-5.94a12.58,12.58,0,0,1,6.22,1.47,11.36,11.36,0,0,1,4.32,4.47,17.36,17.36,0,0,1,5.31-4.47,13.09,13.09,0,0,1,6.08-1.47,13.53,13.53,0,0,1,7,1.67,10.25,10.25,0,0,1,4.26,4.9c.68,1.6,1,4.17,1,7.74V52.94H132.5V31.6c0-3.7-.34-6.1-1-7.17a4.67,4.67,0,0,0-4.22-2.11,6.76,6.76,0,0,0-3.9,1.26,7,7,0,0,0-2.64,3.71,26.65,26.65,0,0,0-.81,7.72V52.94H110V32.48a28.52,28.52,0,0,0-.52-7,4.48,4.48,0,0,0-1.64-2.36,5.13,5.13,0,0,0-3-.77,7.21,7.21,0,0,0-4.12,1.23,6.74,6.74,0,0,0-2.62,3.55,26.67,26.67,0,0,0-.79,7.7V52.94H87.46Zm64.73,37.34V1.4h9.88V52.94Z"/><path id="flowRoot2429" class="cls-1" d="M182.46,53.3,195.22,0h7.42L189.73,53.3Z"/><path id="text2439" class="cls-1" d="M205.86,54.08V44.14l24.68-9.71-24.68-9.6V15l35.37,15.29v8.44Z"/></g></g></g></svg>