<svg xmlns="http://www.w3.org/2000/svg" viewBox="0 0 100 100">                    <defs>                        <style>.cls-1{fill:#00cdff;}.cls-2{fill:#00cdff;}</style>                    </defs>                    <g id="Layer_2" data-name="Layer 2">                        <g id="Layer_1-2" data-name="Layer 1">                            <path class="cls-1"                                  d="M50,99.55A49.52,49.52,0,0,1,12.38,17.79a48,48,0,1,0,75.24,0A49.52,49.52,0,0,1,50,99.55Z"/>                            <path class="cls-2"                                  d="M96.9,35.47a49.09,49.09,0,1,1-93.8,0,48.41,48.41,0,1,0,95.31,12,48.71,48.71,0,0,0-1.51-12M50,0A47.5,47.5,0,1,1,2.5,47.5,47.5,47.5,0,0,1,50,0a50,50,0,1,0,50,50A50,50,0,0,0,50,0Z"/>                        </g>                    </g>                </svg>