<svg xmlns="http://www.w3.org/2000/svg" viewBox="0 0 401 401"><defs><style>.cls-1{fill:none;stroke:#000;stroke-miterlimit:10;}</style></defs><g id="Layer_2" data-name="Layer 2"><g id="Layer_3" data-name="Layer 3"><path class="cls-1" d="M13.16,198.94c12.45-3,24.82-6,37.84-6.07,8,0,16-1.82,24.11-.81,20.28,2.54,40.89,1.46,61,5.26,7.06,1.34,14.1,3.23,21.08,5.28a72.86,72.86,0,0,0,35.62,1.47c9.09-1.87,17.35-6.26,26.34-8.34,10.93-2.54,22.12-6.64,33.14-4.3a149.2,149.2,0,0,1,31.21,10.12c11,5,22.18,10.64,34,13.44,7.4,1.76,15.68,3,23.64.86a6.52,6.52,0,0,1,3-.29c7.53,1.8,13.67-2.35,19.95-5,8.35-3.53,16.34-8.21,25.12-10.38,3.87-.95,7.57-2.34,11.31-3.59V.5H.5V207.87c3.06-2.11,5.31-5.34,8.75-7A18.64,18.64,0,0,1,13.16,198.94Z"/><path class="cls-1" d="M1,229.84l-.5,0V400.5h400V400H1Z"/><path d="M400.5,400h.5V223.52l-.5,0Z"/><path d="M385,230c-9.54,6.53-19.68,10.56-31.25,11.08-4.62.21-8.93-1.32-13.06-2.71l3,1.75-25,43.3L269.55,255H211V230.09c-2.61.84-5.27,1.58-8,2.2a56.86,56.86,0,0,1-27.37-.48,62.54,62.54,0,0,1-9.63-3.42V259H47V222.35C40.12,225.17,32.78,227,26,230c-8.59,3.73-16.72.35-25-.13V400H400.5V223.54C394.94,223.81,389.83,226.68,385,230Z"/><path d="M132.45,211.41c-12.64-2.36-25.62-1.31-38.24-3.92a26.67,26.67,0,0,0-13.54,1.25c-8.82,2.94-18,5-26.2,9.92-.78.48-1.59.92-2.4,1.34h99.22c-.83-.55-1.65-1.11-2.47-1.68A41.9,41.9,0,0,0,132.45,211.41Z"/><path d="M52.07,220c-1.65.87-3.34,1.64-5.07,2.35V259H166V228.39A99.75,99.75,0,0,1,151.29,220Z"/><path d="M258.51,208.17c-8.68,3.08-16.73,7.53-24.84,11.83h39.69l7.77-13.46C273.31,203.89,265.85,205.57,258.51,208.17Z"/><path d="M273.36,220H233.67c-2.68,1.42-5.37,2.83-8.09,4.16A108.5,108.5,0,0,1,211,230.09V255h58.55l-12.29-7.1Z"/><path d="M282.72,207.14l-.72-.27V220h21.9c-.62-.41-1.25-.81-1.86-1.23C295.9,214.61,289.8,210.07,282.72,207.14Z"/><path d="M303.9,220H282v35H269.55l49.19,28.4,25-43.3-3-1.75-.26-.09A155.24,155.24,0,0,1,303.9,220Z"/><path d="M281.13,206.54,273.36,220H282V206.87C281.71,206.76,281.42,206.64,281.13,206.54Z"/><polygon points="282 220 273.37 220 257.26 247.9 269.55 255 282 255 282 220"/><path d="M1,220H47V205H166v15h45V205h71v0l.26-.44L308.93,220H400.5V196.58c-3.74,1.25-7.44,2.64-11.31,3.59-8.78,2.17-16.77,6.85-25.12,10.38-6.28,2.66-12.42,6.81-19.95,5a6.52,6.52,0,0,0-3,.29c-8,2.18-16.24.9-23.64-.86-11.77-2.8-22.91-8.39-34-13.44a149.2,149.2,0,0,0-31.21-10.12c-11-2.34-22.21,1.76-33.14,4.3-9,2.08-17.25,6.47-26.34,8.34a72.86,72.86,0,0,1-35.62-1.47c-7-2-14-3.94-21.08-5.28-20.13-3.8-40.74-2.72-61-5.26-8.08-1-16.1.79-24.11.81-13,0-25.39,3-37.84,6.07a18.64,18.64,0,0,0-3.91,1.9c-3.44,1.69-5.69,4.92-8.75,7v21.95l.5,0Z"/><path d="M400.5,220v3.54l.5,0V220Z"/><path d="M166,220v8.39a62.54,62.54,0,0,0,9.63,3.42,56.86,56.86,0,0,0,27.37.48c2.73-.62,5.39-1.36,8-2.2V220Z"/><path d="M1,220v9.84c8.25.48,16.38,3.86,25,.13,6.81-3,14.15-4.8,21-7.62V220Z"/><path d="M340.71,238.35c4.13,1.39,8.44,2.92,13.06,2.71,11.57-.52,21.71-4.55,31.25-11.08,4.81-3.3,9.92-6.17,15.48-6.44V220H308.93Z"/><path d="M54.47,218.66c8.2-4.94,17.38-7,26.2-9.92a26.67,26.67,0,0,1,13.54-1.25c12.62,2.61,25.6,1.56,38.24,3.92a41.9,41.9,0,0,1,16.37,6.91c.82.57,1.64,1.13,2.47,1.68H166V205H47v15h5.07C52.88,219.58,53.69,219.14,54.47,218.66Z"/><path d="M151.29,220A99.75,99.75,0,0,0,166,228.39V220Z"/><path d="M47,220v2.35c1.73-.71,3.42-1.48,5.07-2.35Z"/><path d="M258.51,208.17c7.34-2.6,14.8-4.28,22.62-1.63L282,205v0H211v15h22.67C241.78,215.7,249.83,211.25,258.51,208.17Z"/><path d="M233.67,220H211v10.09a108.5,108.5,0,0,0,14.58-5.93C228.3,222.83,231,221.42,233.67,220Z"/><path d="M282.72,207.14c7.08,2.93,13.18,7.47,19.32,11.63.61.42,1.24.82,1.86,1.23h5l-26.67-15.4L282,205v1.83Z"/><path d="M303.9,220a155.24,155.24,0,0,0,36.55,18.26l.26.09L308.93,220Z"/><path d="M282,206.87V205l-.87,1.5C281.42,206.64,281.71,206.76,282,206.87Z"/><rect class="cls-1" x="0.5" y="0.5" width="400" height="400"/></g></g></svg>