<svg xmlns="http://www.w3.org/2000/svg" viewBox="0 0 401 401"><defs><style>.cls-1{fill:none;stroke:#000;stroke-miterlimit:10;}</style></defs><g id="Layer_2" data-name="Layer 2"><g id="Layer_3" data-name="Layer 3"><path class="cls-1" d="M1,230.9l-.5.4V400.5h400V400H1Z"/><path class="cls-1" d="M52.27,202.84c11-.63,21.79-3.21,32.34-6.73,13-4.32,26.06-8.16,39.3-11.66,10.9-2.88,21.68-1.71,32.42-1.38,6.64.21,13.59,2,20.07,4,10.72,3.23,21.84,3.26,32.65,5.58s20.4,7.63,30.1,12.61c9.36,4.81,19,8.49,29.61,10,13.82,2,27-.53,40.27-3.68,21.86-5.18,43.06-12.46,64.47-19.11,8.17-2.54,16.52-4.47,25.26-3.7.63,0,1.21.13,1.74.21V.5H.5V198.29l.74.14A186.74,186.74,0,0,0,52.27,202.84Z"/><path class="cls-1" d="M114,219h1.47l-1.47-.11Z"/><path d="M400.5,400h.5V219.29l-.5.13Z"/><path d="M385.37,224.2c-8.71,2.15-16.63,6.8-24.92,10.3-6.23,2.63-12.32,6.75-19.79,5a6.43,6.43,0,0,0-3,.29c-7.9,2.15-16.12.89-23.45-.86A115.65,115.65,0,0,1,294.64,232L293,238.72,216.66,219.8c-8.9,2.07-17.09,6.41-26.09,8.27a72.44,72.44,0,0,1-35.34-1.46c-6.93-2-13.91-3.91-20.92-5.24A176,176,0,0,0,115.47,219H114v8H15v-4.67l-2.68.65a18.84,18.84,0,0,0-3.88,1.88c-2.93,1.44-5,4-7.44,6V400H400.5V219.42C395.41,220.86,390.55,222.93,385.37,224.2Z"/><path d="M73.77,216.15c-8-1-16,.79-23.91.81a109.78,109.78,0,0,0-19.75,2H114v-.11C100.6,217.92,87.12,217.82,73.77,216.15Z"/><path d="M15,222.33V227h99v-8H30.11C25.05,219.94,20,221.11,15,222.33Z"/><path d="M219.93,219h43.13q-6.71-2-13.48-3.47C239.72,213.43,229.74,216.52,219.93,219Z"/><path d="M263.06,219H219.93c-1.08.27-2.16.54-3.24.79h0L293,238.72l1.66-6.71c-4.74-2.07-9.43-4.3-14.1-6.44A137.91,137.91,0,0,0,263.06,219Z"/><path d="M1,219H15v-5h99v4.89l1.47.11h98l-16.56-4.11L200,202.28,267.46,219h133V189c-.53-.08-1.11-.16-1.74-.21-8.74-.77-17.09,1.16-25.26,3.7-21.41,6.65-42.61,13.93-64.47,19.11-13.3,3.15-26.45,5.68-40.27,3.68-10.58-1.53-20.25-5.21-29.61-10-9.7-5-19.19-10.26-30.1-12.61s-21.93-2.35-32.65-5.58c-6.48-2-13.43-3.77-20.07-4-10.74-.33-21.52-1.5-32.42,1.38-13.24,3.5-26.34,7.34-39.3,11.66-10.55,3.52-21.3,6.1-32.34,6.73a186.74,186.74,0,0,1-51-4.41l-.74-.14v33l.5-.4Z"/><path d="M400.5,219v.42l.5-.13V219Z"/><path d="M296.11,226.11l-1.47,5.9a115.65,115.65,0,0,0,19.58,6.89c7.33,1.75,15.55,3,23.45.86a6.43,6.43,0,0,1,3-.29c7.47,1.78,13.56-2.34,19.79-5,8.29-3.5,16.21-8.15,24.92-10.3,5.18-1.27,10-3.34,15.13-4.78V219h-133Z"/><path d="M115.47,219a176,176,0,0,1,18.84,2.37c7,1.33,14,3.2,20.92,5.24a72.44,72.44,0,0,0,35.34,1.46c9-1.86,17.19-6.2,26.09-8.27l-3.21-.8Z"/><path d="M1,219v11.9c2.45-2,4.51-4.6,7.44-6A18.84,18.84,0,0,1,12.32,223l2.68-.65V219Z"/><path d="M49.86,217c7.94,0,15.9-1.81,23.91-.81,13.35,1.67,26.83,1.77,40.23,2.74V214H15v5H30.11A109.78,109.78,0,0,1,49.86,217Z"/><path d="M15,219v3.33c5-1.22,10.05-2.39,15.11-3.33Z"/><path d="M249.58,215.53q6.77,1.44,13.48,3.47h4.4L200,202.28l-3.13,12.61L213.45,219h6.48C229.74,216.52,239.72,213.43,249.58,215.53Z"/><path d="M219.93,219h-6.48l3.21.8h0C217.77,219.54,218.85,219.27,219.93,219Z"/><path d="M267.46,219h-4.4a137.91,137.91,0,0,1,17.48,6.57c4.67,2.14,9.36,4.37,14.1,6.44l1.47-5.9Z"/><rect class="cls-1" x="0.5" y="0.5" width="400" height="400"/></g></g></svg>