<svg xmlns="http://www.w3.org/2000/svg" viewBox="0 0 401.5 401.5"><defs><style>.cls-1{fill:none;stroke:#000;stroke-miterlimit:10;}</style></defs><g id="Layer_2" data-name="Layer 2"><g id="Layer_3" data-name="Layer 3"><path class="cls-1" d="M.5,227.8V401H1V227.74Z"/><path class="cls-1" d="M7.29,191.38c13.26,3.17,25,9.82,37.2,15.38a14.85,14.85,0,0,0,5.77,1.35c12.72.37,24.7-2.56,36.85-6.22,10.18-3.07,20.77-5.79,31.68-5.8a347.39,347.39,0,0,1,42.6,2.65c11,1.36,22.32,1,33.4.09,9.5-.75,18.11-5.51,27-8.77,14-5.13,28.56-6.13,43.13-4.58,5.22.55,10.4,3.54,15.47,5.86,7.52,3.44,12.7,9.67,19.28,14.12,9.89,6.68,20.61,8.72,32.37,5,10.82-3.44,21.71-6.78,32.41-10.47,10.51-3.63,21.39-6.1,31.64-10.47,1.9-.81,3.35-1,4.39-.48V1H.5V191.77C1.86,190.64,4.08,190.61,7.29,191.38Z"/><path d="M400.5,401H1v.5H401v-185a4.66,4.66,0,0,0-.5.25Z"/><path d="M400.5,216.71c-2.1,1.2-2,3.67-2,6.16,0,7.91-.35,8.66-8.13,8.08-15.43-1.15-30.87-.71-46.3-.92-11.81-.16-23.23,3.13-34.94,3.7-1.32.06-2.75.53-3.94.19-14.23-4.06-28.74-.94-43.09-1.78-3.95-.24-7.08,1.42-7.32,6-.11,2.21-1.37,3.64-3.33,3.66-4.86.07-10.08,1.66-14.16-2.61-1.31-1.38-3-1.18-4.68-1.18q-42.42,0-84.86,0a10.35,10.35,0,0,0-5.28,1.13,6,6,0,0,1-6.63-.11c-4.09-2.73-8.75-2.58-13-1.82-8.3,1.47-16.58.41-24.86.79-1.62.07-3.81.18-3.68-2.17.1-1.77,1.8-2.73,3.64-2.77,3.16-.07,6.32,0,9.48-.06.82,0,1.8-.05,1.85-1.16a1.65,1.65,0,0,0-1.58-1.62,22.49,22.49,0,0,0-3.48-.18H69.19c-2.14,0-4.33-.19-6,1.92,1.52,1.73,3.44.95,5.1,1.05,2.81.17,5.66,0,8.46.26a2.88,2.88,0,0,1,2.63,2.63c.08,1.73-1.4,2.09-2.79,2.1-3.82.05-7.65,0-11.48,0-1,0-2.42-.2-2.58-1.14-.8-4.95-4.5-3.85-7.64-3.8a21.38,21.38,0,0,1-9-2.08c-4.58-2-9.8-1.64-14.6-.14-6.56,2-13.2.89-19.8,1.06a4,4,0,0,1-3.13-1.27c-1.92-3.17-4.55-3.26-7.31-2.91V401H400.5Z"/><path d="M1,213.5H400.5V189c-1-.48-2.49-.33-4.39.48-10.25,4.37-21.13,6.84-31.64,10.47-10.7,3.69-21.59,7-32.41,10.47-11.76,3.74-22.48,1.7-32.37-5-6.58-4.45-11.76-10.68-19.28-14.12-5.07-2.32-10.25-5.31-15.47-5.86-14.57-1.55-29.15-.55-43.13,4.58-8.91,3.26-17.52,8-27,8.77-11.08.88-22.41,1.27-33.4-.09a347.39,347.39,0,0,0-42.6-2.65c-10.91,0-21.5,2.73-31.68,5.8C75,205.55,63,208.48,50.26,208.11a14.85,14.85,0,0,1-5.77-1.35c-12.22-5.56-23.94-12.21-37.2-15.38-3.21-.77-5.43-.74-6.79.39v36l.5-.06Z"/><path d="M400.5,213.5v3.21a4.66,4.66,0,0,1,.5-.25v-3Z"/><path d="M1,227.74c2.76-.35,5.39-.26,7.31,2.91a4,4,0,0,0,3.13,1.27c6.6-.17,13.24,1,19.8-1.06,4.8-1.5,10-1.82,14.6.14a21.38,21.38,0,0,0,9,2.08c3.14-.05,6.84-1.15,7.64,3.8.16.94,1.55,1.13,2.58,1.14,3.83,0,7.66,0,11.48,0,1.39,0,2.87-.37,2.79-2.1a2.88,2.88,0,0,0-2.63-2.63c-2.8-.26-5.65-.09-8.46-.26-1.66-.1-3.58.68-5.1-1.05,1.72-2.11,3.91-1.92,6-1.92h34.94a22.49,22.49,0,0,1,3.48.18,1.65,1.65,0,0,1,1.58,1.62c0,1.11-1,1.15-1.85,1.16-3.16,0-6.32,0-9.48.06-1.84,0-3.54,1-3.64,2.77-.13,2.35,2.06,2.24,3.68,2.17,8.28-.38,16.56.68,24.86-.79,4.3-.76,9-.91,13,1.82a6,6,0,0,0,6.63.11,10.35,10.35,0,0,1,5.28-1.13q42.43,0,84.86,0c1.66,0,3.37-.2,4.68,1.18,4.08,4.27,9.3,2.68,14.16,2.61,2,0,3.22-1.45,3.33-3.66.24-4.62,3.37-6.28,7.32-6,14.35.84,28.86-2.28,43.09,1.78,1.19.34,2.62-.13,3.94-.19,11.71-.57,23.13-3.86,34.94-3.7,15.43.21,30.87-.23,46.3.92,7.78.58,8.12-.17,8.13-8.08,0-2.49-.07-5,2-6.16V213.5H1Z"/><rect class="cls-1" x="1" y="0.5" width="400" height="400"/></g></g></svg>