<svg xmlns="http://www.w3.org/2000/svg" viewBox="0 0 401 401"><defs><style>.cls-1{fill:none;stroke:#000;stroke-miterlimit:10;}</style></defs><g id="Layer_2" data-name="Layer 2"><g id="Layer_3" data-name="Layer 3"><path class="cls-1" d="M28.11,204.93c9.12-4,19.2-5.84,27.78-11,8-4.81,16.94-6.8,25.54-9.67A26,26,0,0,1,94.62,183c12.29,2.54,24.95,1.51,37.27,3.82a41,41,0,0,1,16,6.73c8.1,5.63,16.55,10.67,26.12,13.15a55.4,55.4,0,0,0,26.68.46,99.24,99.24,0,0,0,22-7.92c10.68-5.23,20.84-11.59,32.1-15.58,7.63-2.71,15.4-4.39,23.59-1,6.9,2.85,12.85,7.27,18.83,11.33a153.53,153.53,0,0,0,37.44,19c4.1,1.37,8.38,2.93,13,2.72,11.27-.51,21.15-4.43,30.45-10.8,6.74-4.61,14.09-8.4,22.46-5V.5H.5V204.79C9.68,204.26,18.61,209.06,28.11,204.93Z"/><path class="cls-1" d="M1,221.86l-.5-.12V400.5h400V400H1Z"/><path d="M400.5,400h.5V222.75l-.5.06Z"/><path d="M387.74,228.32c-15.81,12.15-33.72,12.13-52.14,8.73-11-2-20.83-7.19-30.55-12.53-2.66-1.46-5.33-2.86-8.05-4.17V237H238V220.7q-3.45,1.83-6.78,4c-14,9.25-28.57,12.2-44.87,8.48A197,197,0,0,0,149,228.77c-10.1-.34-19.73,2.78-29.57,4.22s-19.76,2.32-29.89.07c-14.15-3.15-28.28-6.4-42.88-7.62-13.94-1.16-27.81-3.08-41.85-2.84A15,15,0,0,1,1,221.86V400H400.5V222.81A26.66,26.66,0,0,0,387.74,228.32Z"/><path d="M241.37,219h52.7a68.36,68.36,0,0,0-18.1-5.46A60,60,0,0,0,241.37,219Z"/><path d="M241.37,219c-1.13.53-2.26,1.1-3.37,1.7V237h59V220.35c-1-.46-1.95-.91-2.93-1.35Z"/><path d="M.45,204.79q0,8.46,0,16.93l.07,0v-17Z"/><path d="M1,219H238V203h59v16H400.5V199.94c-8.37-3.4-15.72.39-22.46,5-9.3,6.37-19.18,10.29-30.45,10.8-4.6.21-8.88-1.35-13-2.72a153.53,153.53,0,0,1-37.44-19c-6-4.06-11.93-8.48-18.83-11.33-8.19-3.39-16-1.71-23.59,1-11.26,4-21.42,10.35-32.1,15.58a99.24,99.24,0,0,1-22,7.92,55.4,55.4,0,0,1-26.68-.46c-9.57-2.48-18-7.52-26.12-13.15a41,41,0,0,0-16-6.73c-12.32-2.31-25-1.28-37.27-3.82a26,26,0,0,0-13.19,1.21c-8.6,2.87-17.55,4.86-25.54,9.67-8.58,5.18-18.66,7.06-27.78,11-9.5,4.13-18.43-.67-27.61-.14v17l.5.12Z"/><path d="M400.5,219v3.81l.5-.06V219Z"/><path d="M1,219v2.86a15,15,0,0,0,3.79.74c14-.24,27.91,1.68,41.85,2.84,14.6,1.22,28.73,4.47,42.88,7.62,10.13,2.25,20.14,1.36,29.89-.07s19.47-4.56,29.57-4.22a197,197,0,0,1,37.37,4.43c16.3,3.72,30.87.77,44.87-8.48q3.33-2.19,6.78-4V219Z"/><path d="M297,220.35c2.72,1.31,5.39,2.71,8.05,4.17,9.72,5.34,19.51,10.49,30.55,12.53,18.42,3.4,36.33,3.42,52.14-8.73a26.66,26.66,0,0,1,12.76-5.51V219H297Z"/><path d="M276,213.54a68.36,68.36,0,0,1,18.1,5.46H297V203H238v16h3.37A60,60,0,0,1,276,213.54Z"/><path d="M294.07,219c1,.44,2,.89,2.93,1.35V219Z"/><path d="M238,219v1.7c1.11-.6,2.24-1.17,3.37-1.7Z"/><rect class="cls-1" x="0.5" y="0.5" width="400" height="400"/></g></g></svg>