<svg xmlns="http://www.w3.org/2000/svg" viewBox="0 0 401 401"><defs><style>.cls-1{fill:none;stroke:#000;stroke-miterlimit:10;}</style></defs><g id="Layer_2" data-name="Layer 2"><g id="Layer_3" data-name="Layer 3"><path class="cls-1" d="M1,271.57l-.5-.06v129h400V400H1Z"/><path class="cls-1" d="M52.23,193.56a224.09,224.09,0,0,0,27.31,12.25c23.16,8.76,46.57,15.77,71.86,12A85.61,85.61,0,0,0,189.31,203c11.23-8,22.47-15.78,35.57-20.86,18.57-7.18,36.54-6,53.89,2.57,10,4.91,19,11.85,28.58,17.54,8.62,5.09,17.16,10.75,26.94,13.19a126.72,126.72,0,0,0,41.39,3.25c8.39-.72,16.9-1.38,24.82-4.46V.5H.5V202.57c5.44-2.52,10.32-6.15,16-8.26C28.42,189.92,40.22,187.07,52.23,193.56Z"/><path d="M400.5,400h.5V262.67l-.5-.14Z"/><path d="M397.8,262.13c-8.7-.76-17,1.16-25.15,3.69-21.32,6.62-42.43,13.87-64.19,19-13.25,3.14-26.34,5.65-40.11,3.66-10.53-1.52-20.15-5.18-29.47-10-9.67-5-19.11-10.22-30-12.55s-21.84-2.35-32.51-5.56c-6.45-1.94-13.37-3.76-20-4-10.69-.34-21.43-1.49-32.28,1.37C111,261.31,97.91,265.14,85,269.44c-10.51,3.5-21.21,6.07-32.2,6.7A185.92,185.92,0,0,1,2,271.75c-.36-.08-.69-.13-1-.18V400H400.5V262.53A19.47,19.47,0,0,0,397.8,262.13Z"/><path d="M1,229H400.5V214.21c-7.92,3.08-16.43,3.74-24.82,4.46a126.72,126.72,0,0,1-41.39-3.25c-9.78-2.44-18.32-8.1-26.94-13.19-9.63-5.69-18.59-12.63-28.58-17.54-17.35-8.52-35.32-9.75-53.89-2.57C211.78,187.2,200.54,195,189.31,203a85.61,85.61,0,0,1-37.91,14.86c-25.29,3.74-48.7-3.27-71.86-12a224.09,224.09,0,0,1-27.31-12.25c-12-6.49-23.81-3.64-35.7.75-5.71,2.11-10.59,5.74-16,8.26v68.94l.5.06Z"/><path d="M400.5,229v33.53l.5.14V229Z"/><path d="M1,271.57c.31.05.64.1,1,.18a185.92,185.92,0,0,0,50.81,4.39c11-.63,21.69-3.2,32.2-6.7,12.9-4.3,25.95-8.13,39.13-11.61,10.85-2.86,21.59-1.71,32.28-1.37,6.61.2,13.53,2,20,4,10.67,3.21,21.75,3.25,32.51,5.56s20.3,7.59,30,12.55c9.32,4.79,18.94,8.45,29.47,10,13.77,2,26.86-.52,40.11-3.66,21.76-5.15,42.87-12.4,64.19-19,8.13-2.53,16.45-4.45,25.15-3.69a19.47,19.47,0,0,1,2.7.4V229H1Z"/><rect class="cls-1" x="0.5" y="0.5" width="400" height="400"/></g></g></svg>