<svg xmlns="http://www.w3.org/2000/svg" viewBox="0 0 401 401"><defs><style>.cls-1{fill:none;stroke:#000;stroke-miterlimit:10;}</style></defs><g id="Layer_2" data-name="Layer 2"><g id="Layer_3" data-name="Layer 3"><path class="cls-1" d="M400,400H.5v.5h400V230.81H400Z"/><path class="cls-1" d="M2.75,199.85c6.38,5,14,6.5,21.68,7.41,13.36,1.57,26.33,0,38.61-5.88,6.78-3.23,13.45-6.77,20.4-9.6,14.5-5.9,29.35-2.48,43.89-.35,13,1.89,25.56,5.86,38.65,7.65,14.7,2,28.08-1.05,41-7.39,8.57-4.21,16.94-8.9,25.91-12.15,3.09-1.11,5.86-3,9.08-3.63,14.19-2.79,27.73-.16,41,5.06,13.83,5.46,26.79,12.76,40.29,18.9,14.21,6.45,28.4,6.87,41.47-3,10-7.55,20.95-8.63,32.64-5.78a10.08,10.08,0,0,1,3.23,1.31V.5H.5V199.57C.86,199,1.54,198.9,2.75,199.85Z"/><path d="M.16,232.2V212H0V400H.5V233.61A2.63,2.63,0,0,1,.16,232.2Z"/><path d="M400,230.8l-1.87,0c-11.39-.08-21.46-4.69-31.6-9.15-4.85-2.13-9.67-4.37-14.53-6.5V237H289V212.49c-.56.26-1.12.5-1.68.77-10,4.75-19.88,9.6-29.83,14.37C248,232.18,238,232,227.9,231c-8.61-.83-16.6-4.08-24.84-6.42-19-5.38-37.91-3.51-56.73,1.11-11.52,2.83-22.92,6.33-34.58,8.38-9.78,1.72-19.77.6-29.41-2.21-3.48-1-7-2.09-10.33-3.38-17.79-6.81-35.29-4.07-52.92.92-5.67,1.61-11.12,4-16.93,5.09a2,2,0,0,1-1.66-.92V400H400Z"/><path d="M338.26,209.68c-16.35-5.56-32.52-4.44-48.17,2.32h54.42C342.44,211.18,340.36,210.4,338.26,209.68Z"/><path d="M290.09,212l-1.09.49V237h63V215.13c-2.48-1.09-5-2.14-7.49-3.13Z"/><path d="M.5,199.57a3.85,3.85,0,0,0-.34,1.83V212H.5Z"/><path d="M397.27,191.1c-11.69-2.85-22.63-1.77-32.64,5.78-13.07,9.86-27.26,9.44-41.47,3-13.5-6.14-26.46-13.44-40.29-18.9-13.22-5.22-26.76-7.85-41-5.06-3.22.63-6,2.52-9.08,3.63-9,3.25-17.34,7.94-25.91,12.15-12.87,6.34-26.25,9.4-41,7.39-13.09-1.79-25.68-5.76-38.65-7.65-14.54-2.13-29.39-5.55-43.89.35-7,2.83-13.62,6.37-20.4,9.6-12.28,5.86-25.25,7.45-38.61,5.88-7.7-.91-15.3-2.43-21.68-7.41C1.54,198.9.86,199,.5,199.57V212H289v-7h63v7h48v18.8h.5v-38.4A10.08,10.08,0,0,0,397.27,191.1Z"/><path d="M.5,233.61V212H.16v20.2A2.63,2.63,0,0,0,.5,233.61Z"/><path d="M366.53,221.63c10.14,4.46,20.21,9.07,31.6,9.15l1.87,0V212H352v3.13C356.86,217.26,361.68,219.5,366.53,221.63Z"/><path d="M2.16,234.53c5.81-1.12,11.26-3.48,16.93-5.09,17.63-5,35.13-7.73,52.92-.92,3.38,1.29,6.85,2.36,10.33,3.38,9.64,2.81,19.63,3.93,29.41,2.21,11.66-2.05,23.06-5.55,34.58-8.38,18.82-4.62,37.74-6.49,56.73-1.11,8.24,2.34,16.23,5.59,24.84,6.42,10.1,1,20.12,1.14,29.59-3.41,9.95-4.77,19.86-9.62,29.83-14.37.56-.27,1.12-.51,1.68-.77V212H.5v21.61A2,2,0,0,0,2.16,234.53Z"/><path d="M338.26,209.68c2.1.72,4.18,1.5,6.25,2.32H352v-7H289v7h1.09C305.74,205.24,321.91,204.12,338.26,209.68Z"/><path d="M352,215.13V212h-7.49C347,213,349.52,214,352,215.13Z"/><path d="M290.09,212H289v.49Z"/><rect class="cls-1" x="0.5" y="0.5" width="400" height="400"/></g></g></svg>