<svg xmlns="http://www.w3.org/2000/svg" viewBox="0 0 401 401"><defs><style>.cls-1{fill:none;stroke:#000;stroke-miterlimit:10;}</style></defs><g id="Layer_2" data-name="Layer 2"><g id="Layer_3" data-name="Layer 3"><path class="cls-1" d="M400,400.5h.5v-170l-.5-.15Z"/><path class="cls-1" d="M.64,209.27c0-9.31,2.25-11.5,11.64-13.11,7.23-1.24,14.27-3.5,21.46-4.95,8.62-1.75,17.37-1.08,26.05-.44,15.2,1.12,30.07,4.79,45.33,5.67,7.33.42,14.57,2.24,21.89,3.13,16,1.93,31.47,6.65,47.43,8.32a85.33,85.33,0,0,0,41.16-5.67c12.77-5.17,25.55-10.69,39-13.21a150,150,0,0,1,47.08-1.37c20.76,2.71,39.06,12.14,58.23,19.29a126.68,126.68,0,0,0,39.8,8.26c.28,0,.51,0,.75,0V.5H.5V217H.76C.71,214.42.65,211.85.64,209.27Z"/><polygon points="0.5 217 0 217 0 401 400 401 400 400.5 0.5 400.5 0.5 217"/><path d="M399.53,230.27c-4.43-1-8.8-2.66-13.55-2.32a76.69,76.69,0,0,1-31.9-4c-2.44-.89-4.66-2.25-7.08-3.27V311H250v8H138V244H121v65H9V220.18a77.32,77.32,0,0,1-8.21-2l0-1.17H.5V400.5H400V230.39C399.85,230.35,399.69,230.3,399.53,230.27Z"/><path d="M313.59,208.32c-10.18-3.59-20.66-7.44-31.46-3.9-7.54,2.46-14.46,6.77-21.71,10.14a46,46,0,0,1-6.34,2.44H337C329.16,214.11,321.42,211.09,313.59,208.32Z"/><path d="M337,217H254.08a30.18,30.18,0,0,1-4.08.9V311h97V220.67c-.43-.18-.85-.36-1.29-.51C342.78,219.14,339.86,218.08,337,217Z"/><path d="M89,207h30.33c-.91-.41-1.82-.82-2.73-1.21C97.19,197.47,79,200,60.75,209A171.56,171.56,0,0,1,42,217H89Z"/><path d="M89,217H42a93.84,93.84,0,0,1-10.6,3.06A55.39,55.39,0,0,1,9,220.18V309H121V244H89Z"/><path d="M222,217v-.9c-2.62-.29-5.24-.52-7.87-.6-16.13-.49-31.78-6.53-47.86-5-7.44.71-14.85,1.11-22.27,1.45V217Z"/><polygon points="222 217 144 217 144 244 138 244 138 319 250 319 250 311 222 311 222 217"/><path d="M229.17,217c-2.39-.31-4.78-.63-7.17-.9v.9Z"/><path d="M247.45,218.18A97.87,97.87,0,0,1,229.17,217H222v94h28V217.9C249.16,218,248.32,218.13,247.45,218.18Z"/><path d="M138,217v-4.79c-6.22.25-11.7-2.06-17-4.46V217Z"/><rect x="121" y="217" width="17" height="27"/><path d="M89,217h32v-9.25l-1.67-.75H89Z"/><rect x="89" y="217" width="32" height="27"/><path d="M144,217V212l-5.95.26H138V217Z"/><rect x="138" y="217" width="6" height="27"/><path d="M399.75,215.19a126.68,126.68,0,0,1-39.8-8.26c-19.17-7.15-37.47-16.58-58.23-19.29A150,150,0,0,0,254.64,189c-13.49,2.52-26.27,8-39,13.21a85.33,85.33,0,0,1-41.16,5.67c-16-1.67-31.46-6.39-47.43-8.32-7.32-.89-14.56-2.71-21.89-3.13-15.26-.88-30.13-4.55-45.33-5.67-8.68-.64-17.43-1.31-26,.44-7.19,1.45-14.23,3.71-21.46,4.95C2.89,197.77.61,200,.64,209.27c0,2.58.07,5.15.12,7.73H9V200H121v7h23v3h78v-8H347v15h53v13.39l.5.15V215.18C400.26,215.19,400,215.2,399.75,215.19Z"/><path d="M354.08,223.94a76.69,76.69,0,0,0,31.9,4c4.75-.34,9.12,1.29,13.55,2.32.16,0,.32.08.47.12V217H347v3.67C349.42,221.69,351.64,223.05,354.08,223.94Z"/><path d="M9,220.18V217H.76l0,1.17A77.32,77.32,0,0,0,9,220.18Z"/><path d="M250,217h4.08a46,46,0,0,0,6.34-2.44c7.25-3.37,14.17-7.68,21.71-10.14,10.8-3.54,21.28.31,31.46,3.9,7.83,2.77,15.57,5.79,23.36,8.68H347V202H222v8h28Z"/><path d="M254.08,217H250v.9A30.18,30.18,0,0,0,254.08,217Z"/><path d="M345.71,220.16c.44.15.86.33,1.29.51V217H337C339.86,218.08,342.78,219.14,345.71,220.16Z"/><path d="M60.75,209C79,200,97.19,197.47,116.6,205.79c.91.39,1.82.8,2.73,1.21H121v-7H9v17H42A171.56,171.56,0,0,0,60.75,209Z"/><path d="M31.43,220.06A93.84,93.84,0,0,0,42,217H9v3.18A55.39,55.39,0,0,0,31.43,220.06Z"/><path d="M166.27,210.5c16.08-1.53,31.73,4.51,47.86,5,2.63.08,5.25.31,7.87.6V210H144V212C151.42,211.61,158.83,211.21,166.27,210.5Z"/><path d="M229.17,217H250v-7H222v6.1C224.39,216.37,226.78,216.69,229.17,217Z"/><path d="M247.45,218.18c.87-.05,1.71-.16,2.55-.28V217H229.17A97.87,97.87,0,0,0,247.45,218.18Z"/><path d="M138,212.21V210h6v-3H121v.75C126.3,210.15,131.78,212.46,138,212.21Z"/><path d="M121,207.75V207h-1.67Z"/><path d="M138,212.21h.05L144,212V210h-6Z"/><rect class="cls-1" x="0.5" y="0.5" width="400" height="400"/></g></g></svg>