<svg xmlns="http://www.w3.org/2000/svg" viewBox="0 0 401 401"><defs><style>.cls-1{fill:none;stroke:#000;stroke-miterlimit:10;}</style></defs><g id="Layer_2" data-name="Layer 2"><g id="Layer_3" data-name="Layer 3"><path class="cls-1" d="M69.41,199.85c3.46,1.33,7,2.42,10.58,3.46,9.86,2.88,20.08,4,30.08,2.27,11.93-2.1,23.59-5.68,35.38-8.57,19.26-4.73,38.61-6.65,58-1.14,8.43,2.39,16.6,5.72,25.41,6.57,10.33,1,20.59,1.16,30.28-3.49,10.18-4.89,20.32-9.85,30.51-14.71,16.89-8.05,34.4-9.69,52.12-3.65,9.88,3.36,19.34,8,28.93,12.22s19.14,8.57,29.76,9.26V.5H.5V205.43c5-1.26,9.81-3.22,14.78-4.63C33.31,195.69,51.22,192.89,69.41,199.85Z"/><path class="cls-1" d="M400,400H.5v.5h400V249.66l-.5,0Z"/><path d="M0,231.71V400H.5V231.54Z"/><path d="M400,249.62a131.48,131.48,0,0,1-37.21-8.29c-19.68-7.34-38.47-17-59.79-19.8a153.68,153.68,0,0,0-48.32,1.41c-13.86,2.58-27,8.26-40.09,13.56a87.51,87.51,0,0,1-42.26,5.82c-16.39-1.71-32.3-6.56-48.69-8.54-7.52-.91-15-2.78-22.48-3.21-15.66-.9-30.93-4.67-46.53-5.82-8.92-.66-17.9-1.35-26.75.44-7.39,1.5-14.62,3.82-22,5.09A34.83,34.83,0,0,0,.5,231.54V400H400Z"/><path d="M370.74,192.81c-9.59-4.21-19.05-8.86-28.93-12.22-17.72-6-35.23-4.4-52.12,3.65-10.19,4.86-20.33,9.82-30.51,14.71-9.69,4.65-20,4.48-30.28,3.49-8.81-.85-17-4.18-25.41-6.57-19.43-5.51-38.78-3.59-58,1.14-11.79,2.89-23.45,6.47-35.38,8.57-10,1.75-20.22.61-30.08-2.27-3.56-1-7.12-2.13-10.58-3.46-18.19-7-36.1-4.16-54.13,1-5,1.41-9.77,3.37-14.78,4.63V212H400v37.62l.5,0V202.07C389.88,201.38,380.34,197,370.74,192.81Z"/><path d="M.5,212H0v19.71l.5-.17Z"/><path d="M5.85,230.28c7.41-1.27,14.64-3.59,22-5.09,8.85-1.79,17.83-1.1,26.75-.44,15.6,1.15,30.87,4.92,46.53,5.82,7.53.43,15,2.3,22.48,3.21,16.39,2,32.3,6.83,48.69,8.54a87.51,87.51,0,0,0,42.26-5.82c13.11-5.3,26.23-11,40.09-13.56A153.68,153.68,0,0,1,303,221.53c21.32,2.79,40.11,12.46,59.79,19.8A131.48,131.48,0,0,0,400,249.62V212H.5v19.54A34.83,34.83,0,0,1,5.85,230.28Z"/><rect class="cls-1" x="0.5" y="0.5" width="400" height="400"/></g></g></svg>