<svg xmlns="http://www.w3.org/2000/svg" viewBox="0 0 402 401"><defs><style>.cls-1{fill:none;}.cls-1,.cls-2{stroke:#000;stroke-miterlimit:10;}</style></defs><g id="Layer_2" data-name="Layer 2"><g id="Layer_3" data-name="Layer 3"><path class="cls-1" d="M.5,386.87V400.5H1V387.08A3.75,3.75,0,0,1,.5,386.87Z"/><path class="cls-1" d="M29.62,207.3C39.92,205,49.54,200.79,59,196.18c18.23-8.93,36.44-11.47,55.86-3.15,6.72,2.87,13.47,6.76,21.46,6.42,9.42-.4,18.79-.81,28.22-1.71,16.08-1.54,31.74,4.51,47.87,5,11.13.33,22.06,3.32,33.33,2.68a35.29,35.29,0,0,0,13-3.62c7.26-3.37,14.18-7.68,21.71-10.15,10.81-3.54,21.29.32,31.47,3.91,10.76,3.8,21.35,8.09,32.13,11.84,2.95,1,5.5,2.74,8.37,3.78a76.72,76.72,0,0,0,31.91,4c4.75-.34,9.12,1.29,13.56,2.32a8.45,8.45,0,0,1,2.69,1.1V.5H.5V205.85C10.07,208.55,19.78,209.48,29.62,207.3Z"/><path d="M400.5,400.5H1v.5H401V388.09l-.5-.07Z"/><path d="M400.5,388l-1.26-.19h-2c-2.47,0-4.95-.25-7.4,0-4.81.42-9.78-1.23-14.47,1l-9.71-.65a8.55,8.55,0,0,0-5.2,0l-2.76-.29-31.79-.11-319.53,0A16.72,16.72,0,0,1,1,387.08V400.5H400.5Z"/><path d="M1,222H400.5v-3.39a8.45,8.45,0,0,0-2.69-1.1c-4.44-1-8.81-2.66-13.56-2.32a76.72,76.72,0,0,1-31.91-4c-2.87-1-5.42-2.75-8.37-3.78-10.78-3.75-21.37-8-32.13-11.84-10.18-3.59-20.66-7.45-31.47-3.91-7.53,2.47-14.45,6.78-21.71,10.15a35.29,35.29,0,0,1-13,3.62c-11.27.64-22.2-2.35-33.33-2.68-16.13-.49-31.79-6.54-47.87-5-9.43.9-18.8,1.31-28.22,1.71-8,.34-14.74-3.55-21.46-6.42-19.42-8.32-37.63-5.78-55.86,3.15-9.41,4.61-19,8.84-29.33,11.12-9.84,2.18-19.55,1.25-29.12-1.45v181a3.75,3.75,0,0,0,.5.21Z"/><path d="M400.5,222V388l.5.07V222Z"/><path d="M1,387.08a16.72,16.72,0,0,0,5.35.65l319.53,0,31.79.11,2.76.29a8.55,8.55,0,0,1,5.2,0l9.71.65c4.69-2.21,9.66-.56,14.47-1,2.45-.21,4.93,0,7.4,0h2l1.26.19V222H1Z"/><rect class="cls-1" x="1.5" y="0.5" width="400" height="400"/><rect class="cls-2" x="398.5" y="218.5" width="3" height="7"/></g></g></svg>